<svg xmlns="http://www.w3.org/2000/svg" width="125" height="125" viewBox="0 0 125 125"><g transform="translate(-1190 -1102)"><circle cx="62.5" cy="62.5" r="62.5" transform="translate(1190 1102)" fill="#ebe5ff"/><path d="M27.751,29.713a1.115,1.115,0,0,1,0,1.576l-1.866,1.866h0v6.5a1.115,1.115,0,0,1-1.115,1.115H15.656a1.115,1.115,0,0,1-1.115-1.115V30.538a1.115,1.115,0,0,1,1.115-1.115H21.9a1.115,1.115,0,1,1,0,2.229H16.77v6.887h6.887V35.384L21.67,37.37a1.114,1.114,0,0,1-1.753-.231L18.3,34.33a1.115,1.115,0,1,1,1.93-1.115l.9,1.551,5.054-5.054a1.115,1.115,0,0,1,1.576,0ZM26.175,46.427l-5.054,5.054-.9-1.551a1.115,1.115,0,1,0-1.93,1.115l1.622,2.809a1.114,1.114,0,0,0,1.753.231L23.657,52.1v3.155H16.77V48.366H21.9a1.115,1.115,0,0,0,0-2.229h-6.24a1.115,1.115,0,0,0-1.115,1.115v9.116a1.115,1.115,0,0,0,1.115,1.115h9.116a1.115,1.115,0,0,0,1.115-1.115v-6.5h0L27.752,48a1.115,1.115,0,1,0-1.576-1.576Zm4.475-23.9H46.178a1.115,1.115,0,0,0,0-2.229H30.651a1.115,1.115,0,0,0,0,2.229Zm0-6.054H46.282a1.115,1.115,0,1,0,0-2.229H30.651a1.115,1.115,0,0,0,0,2.229Zm0,22.768H46.178a1.115,1.115,0,0,0,0-2.229H30.651a1.115,1.115,0,0,0,0,2.229ZM46.178,53.722H30.651a1.115,1.115,0,1,0,0,2.229H46.178a1.115,1.115,0,1,0,0-2.229Zm0-6.054H30.651a1.115,1.115,0,1,0,0,2.229H46.178a1.115,1.115,0,0,0,0-2.229ZM26.175,13l-5.054,5.054-.9-1.551a1.115,1.115,0,1,0-1.93,1.115l1.622,2.809a1.114,1.114,0,0,0,.82.548,1.091,1.091,0,0,0,.146.01,1.114,1.114,0,0,0,.788-.326l1.987-1.987v3.155H16.77V14.938H21.9a1.115,1.115,0,0,0,0-2.229h-6.24a1.115,1.115,0,0,0-1.115,1.115v9.116a1.115,1.115,0,0,0,1.115,1.115h9.116a1.115,1.115,0,0,0,1.115-1.115v-6.5h0l1.866-1.866A1.114,1.114,0,1,0,26.176,13Zm59.639,41.17-.048.966a4.814,4.814,0,0,1-4.969,4.6l1.137,23.339a1.115,1.115,0,0,1-1.113,1.169H73.331a1.114,1.114,0,0,1-1.109-1.008l-1.49-15.529-1.49,15.529a1.115,1.115,0,0,1-1.109,1.008H60.643a1.114,1.114,0,0,1-1.113-1.168l1.461-30.5V40.9a.535.535,0,0,0-.5-.533,20.948,20.948,0,0,1-5.4-1V65.04a1.115,1.115,0,0,1-1.115,1.115H7.962A1.115,1.115,0,0,1,6.847,65.04V5.114A1.115,1.115,0,0,1,7.962,4H53.976A1.115,1.115,0,0,1,55.09,5.114V30.083c2.4,1.4,5.554,1.6,10.247.179a2.617,2.617,0,0,0,1.183-1.413A10.691,10.691,0,0,1,63.2,22.4c-1.433-2-1.362-6.143-.418-9.177a1.114,1.114,0,0,1,1.234-.77,13.474,13.474,0,0,0,5.2-.513c2.187-.52,4.64-1.1,6.258.958a2.979,2.979,0,0,1,1.429.326,3.955,3.955,0,0,1,1.955,2.689,12.746,12.746,0,0,1-.571,6.342,10.726,10.726,0,0,1-3.345,6.594,2.613,2.613,0,0,0,1.152,1.394c.51.144,1.09.293,1.706.45a24.142,24.142,0,0,1,5.5,1.846c1.842,1.08,2.533,2.339,2.736,4.988,0,.008,0,.016,0,.024a153.4,153.4,0,0,1-.228,16.619ZM64.345,18.541a2.352,2.352,0,0,1,1.384-.79,7.079,7.079,0,0,1,2.684.294,8.481,8.481,0,0,0,4.683.167,5.733,5.733,0,0,1,1.82-.4,1.933,1.933,0,0,1,1.717.907c.044.067.086.135.126.2a8.847,8.847,0,0,0-.065-2.47,1.8,1.8,0,0,0-.795-1.234.655.655,0,0,0-.518-.056,1.114,1.114,0,0,1-1.4-.49c-.706-1.279-1.616-1.184-4.246-.559a17.442,17.442,0,0,1-5.061.651,13.493,13.493,0,0,0-.324,3.784Zm6.386,9.789c2.89-.233,4.8-3.136,5.3-6.053a7.65,7.65,0,0,1-.829-1.5,7.115,7.115,0,0,0-.37-.746,5.59,5.59,0,0,0-1,.283,10.528,10.528,0,0,1-5.909-.1,6.564,6.564,0,0,0-1.794-.274c-.251.045-.5.723-.733,2.015l0,.017c.413,3.014,2.355,6.111,5.344,6.352Zm-2.3,1.711a4.82,4.82,0,0,1-1,1.419,4.558,4.558,0,0,0,6.6,0,4.82,4.82,0,0,1-1-1.419,6.889,6.889,0,0,1-2.226.519l-.072,0-.072,0A6.889,6.889,0,0,1,68.434,30.04ZM52.861,38.446a17.2,17.2,0,0,1-6.213-5.368,1.108,1.108,0,0,1-.47.105H30.651a1.115,1.115,0,0,1,0-2.229h14.6c-.564-.957-1.07-1.935-1.534-2.907a3.742,3.742,0,0,1,6.635-3.421,19.477,19.477,0,0,0,2.507,3.618V6.229H9.076v57.7H52.861V38.446ZM63.22,40.9V51.486h6.4V35a7.3,7.3,0,0,1-4.206-2.441c-4.23,1.2-7.638,1.184-10.4-.037-2.557-1.131-4.593-3.231-6.6-6.81a1.427,1.427,0,0,0-1.969-.477,1.366,1.366,0,0,0-.71,1.847c2.594,5.433,6.193,10.532,14.89,11.053a2.766,2.766,0,0,1,2.6,2.758Zm16.43,41.119-1.378-28.3h-15.1l-1.355,28.3h5.307l1.639-17.08a1.982,1.982,0,0,1,3.947,0l1.639,17.08H79.65Zm4.167-44.332c-.167-2.155-.606-2.618-1.641-3.224a23.6,23.6,0,0,0-4.928-1.609c-.411-.1-.806-.206-1.181-.306A7.307,7.307,0,0,1,71.846,35V51.486h6.372V39.95a1.115,1.115,0,0,1,2.229,0V52.574l.24,4.936h.072a2.614,2.614,0,0,0,2.78-2.487l.048-.967a151.759,151.759,0,0,0,.229-16.371Z" transform="translate(1205.811 1122.109)" fill="#665f7f"/></g></svg>