<svg xmlns="http://www.w3.org/2000/svg" width="125" height="125" viewBox="0 0 125 125"><g transform="translate(-8866 10222.577)"><circle cx="62.5" cy="62.5" r="62.5" transform="translate(8866 -10222.577)" fill="#ebe5ff"/><g transform="translate(8889.166 -10199.41)"><path d="M75.119,12.906H59a1.152,1.152,0,0,0,0,2.3H75.119a1.245,1.245,0,0,1,1.244,1.244V60.83a1.245,1.245,0,0,1-1.244,1.244H3.548A1.245,1.245,0,0,1,2.3,60.83V16.455a1.245,1.245,0,0,1,1.244-1.244H28.866v2.3H5.762a1.152,1.152,0,0,0-1.152,1.152V49.116a1.152,1.152,0,0,0,2.3,0V19.82H28.866V26l-4.933,2.357a1.161,1.161,0,0,0-.655,1.04V48.192a1.153,1.153,0,0,0,.655,1.04l14.9,7.121a1.168,1.168,0,0,0,.994,0l8.379-4a1.152,1.152,0,1,0-.994-2.08l-6.729,3.215V37.246l12.6-6.019V47.466l-1.712.817a1.152,1.152,0,0,0,.993,2.08l2.368-1.131a1.153,1.153,0,0,0,.655-1.04V29.4a1.159,1.159,0,0,0-.655-1.04L49.8,26V19.82H71.753V57.464H6.914V54.033a1.152,1.152,0,0,0-2.3,0v4.584a1.152,1.152,0,0,0,1.152,1.152H72.905a1.152,1.152,0,0,0,1.152-1.152V18.668a1.152,1.152,0,0,0-1.152-1.152H49.8v-2.3h4.283a1.152,1.152,0,0,0,0-2.3H49.8V10.6H60.133a1.152,1.152,0,0,0,1.152-1.152V6.716a3.457,3.457,0,1,0-2.3,0V8.3H48.648A1.152,1.152,0,0,0,47.5,9.449v3.457h-7.01V6.716a3.457,3.457,0,1,0-2.3,0v6.19h-7.01V9.449A1.152,1.152,0,0,0,30.019,8.3H19.686V6.716a3.457,3.457,0,1,0-2.3,0V9.449A1.152,1.152,0,0,0,18.534,10.6H28.866v2.3H3.548A3.552,3.552,0,0,0,0,16.455V60.83a3.552,3.552,0,0,0,3.548,3.548H28.531a10.983,10.983,0,0,1-4.122,7.375h-4.9a3.457,3.457,0,0,0,0,6.914H59.154a3.457,3.457,0,0,0,0-6.914H54.261a11.091,11.091,0,0,1-4.124-7.375H75.119a3.552,3.552,0,0,0,3.548-3.548V16.455A3.552,3.552,0,0,0,75.119,12.906ZM60.133,2.3a1.152,1.152,0,1,1-1.152,1.152A1.153,1.153,0,0,1,60.133,2.3Zm-20.8,0a1.152,1.152,0,1,1-1.152,1.152A1.153,1.153,0,0,1,39.333,2.3Zm-20.8,0a1.152,1.152,0,1,1-1.152,1.152A1.153,1.153,0,0,1,18.534,2.3ZM31.171,19.82h7.01v1.732L31.171,24.9ZM51.564,29.4,39.333,35.242,27.1,29.4l12.231-5.843ZM25.582,31.227l12.6,6.019V53.485l-12.6-6.019ZM47.5,24.9l-7.01-3.349V19.82H47.5Zm0-9.69v2.3h-7.01v-2.3Zm-9.315,0v2.3h-7.01v-2.3Zm22.125,60a1.153,1.153,0,0,1-1.152,1.152H19.513a1.152,1.152,0,1,1,0-2.3H59.154A1.153,1.153,0,0,1,60.306,75.21Zm-9.351-3.457H27.712a13,13,0,0,0,3.137-7.375h16.97A13,13,0,0,0,50.955,71.753Zm0,0" fill="#665f7f"/></g></g></svg>