<svg xmlns="http://www.w3.org/2000/svg" width="88.605" height="88.605" viewBox="0 0 88.605 88.605"><path d="M257.909,457H223.3a1.3,1.3,0,1,0,0,2.6h34.611a1.3,1.3,0,1,0,0-2.6Z" transform="translate(-183.581 -377.913)" fill="#665f7f"/><path d="M190.028,457H188.3a1.3,1.3,0,1,0,0,2.6h1.731a1.3,1.3,0,1,0,0-2.6Z" transform="translate(-154.638 -377.913)" fill="#665f7f"/><path d="M450.028,457H448.3a1.3,1.3,0,0,0,0,2.6h1.731a1.3,1.3,0,1,0,0-2.6Z" transform="translate(-369.644 -377.913)" fill="#665f7f"/><path d="M216.581,40H188.3a1.3,1.3,0,1,0,0,2.6h28.283a1.3,1.3,0,1,0,0-2.6Z" transform="translate(-154.638 -33.078)" fill="#665f7f"/><path d="M216.581,80H188.3a1.3,1.3,0,1,0,0,2.6h28.283a1.3,1.3,0,1,0,0-2.6Z" transform="translate(-154.638 -66.155)" fill="#665f7f"/><path d="M216.581,120H188.3a1.3,1.3,0,1,0,0,2.6h28.283a1.3,1.3,0,1,0,0-2.6Z" transform="translate(-154.638 -99.233)" fill="#665f7f"/><path d="M88.224,17.686,70.919.381A1.3,1.3,0,0,0,70,0H30.2a4.765,4.765,0,0,0-4.759,4.759V32.621H3.894A3.9,3.9,0,0,0,0,36.515V52.09a3.9,3.9,0,0,0,3.894,3.894H25.439V83.846A4.765,4.765,0,0,0,30.2,88.6H83.846A4.765,4.765,0,0,0,88.6,83.846V18.6A1.292,1.292,0,0,0,88.224,17.686ZM71.3,4.432,84.173,17.306H73.463A2.166,2.166,0,0,1,71.3,15.142ZM2.6,52.09V36.515a1.3,1.3,0,0,1,1.3-1.3h60.57a1.3,1.3,0,0,1,1.3,1.3V52.09a1.3,1.3,0,0,1-1.3,1.3H3.894A1.3,1.3,0,0,1,2.6,52.09Zm81.25,33.919H30.2a2.166,2.166,0,0,1-2.163-2.163V55.984H64.464a3.9,3.9,0,0,0,3.894-3.894V36.515a3.9,3.9,0,0,0-3.894-3.894H28.035V4.759A2.166,2.166,0,0,1,30.2,2.6H68.7V15.142A4.765,4.765,0,0,0,73.463,19.9H86.009V83.846A2.166,2.166,0,0,1,83.846,86.009Z" fill="#665f7f"/><path d="M242.065,263.5H221.3a1.3,1.3,0,0,0,0,2.6h20.767a1.3,1.3,0,1,0,0-2.6Z" transform="translate(-181.928 -217.9)" fill="#665f7f"/><path d="M275.142,233.5H261.3a1.3,1.3,0,0,0,0,2.6h13.845a1.3,1.3,0,0,0,0-2.6Z" transform="translate(-215.005 -193.091)" fill="#665f7f"/><path d="M221.3,236.1h1.731a1.3,1.3,0,1,0,0-2.6H221.3a1.3,1.3,0,0,0,0,2.6Z" transform="translate(-181.928 -193.091)" fill="#665f7f"/><path d="M48.22,228.5H43.028A3.032,3.032,0,0,0,40,231.528v3.461a3.032,3.032,0,0,0,3.028,3.029H48.22a3.032,3.032,0,0,0,3.028-3.029v-3.461A3.032,3.032,0,0,0,48.22,228.5Zm.433,6.49a.433.433,0,0,1-.433.433H43.028a.433.433,0,0,1-.433-.433v-3.461a.433.433,0,0,1,.433-.433H48.22a.433.433,0,0,1,.433.433Z" transform="translate(-33.078 -188.957)" fill="#665f7f"/><path d="M138.22,228.5h-5.192A3.032,3.032,0,0,0,130,231.528v3.461a3.032,3.032,0,0,0,3.028,3.029h5.192a3.032,3.032,0,0,0,3.029-3.029v-3.461A3.032,3.032,0,0,0,138.22,228.5Zm.433,6.49a.433.433,0,0,1-.433.433h-5.192a.433.433,0,0,1-.433-.433v-3.461a.433.433,0,0,1,.433-.433h5.192a.433.433,0,0,1,.433.433Z" transform="translate(-107.503 -188.957)" fill="#665f7f"/><path d="M190.028,378.249h5.192a3.032,3.032,0,0,0,3.028-3.029v-5.192A3.032,3.032,0,0,0,195.22,367h-5.192A3.032,3.032,0,0,0,187,370.029v5.192A3.032,3.032,0,0,0,190.028,378.249Zm-.433-8.22a.433.433,0,0,1,.433-.433h5.192a.433.433,0,0,1,.433.433v5.192a.433.433,0,0,1-.433.433h-5.192a.433.433,0,0,1-.433-.433Z" transform="translate(-154.638 -303.488)" fill="#665f7f"/><path d="M300.029,378.249h5.192a3.032,3.032,0,0,0,3.029-3.029v-5.192A3.032,3.032,0,0,0,305.22,367h-5.192A3.032,3.032,0,0,0,297,370.029v5.192A3.032,3.032,0,0,0,300.029,378.249Zm-.433-8.22a.433.433,0,0,1,.433-.433h5.192a.433.433,0,0,1,.433.433v5.192a.433.433,0,0,1-.433.433h-5.192a.433.433,0,0,1-.433-.433Z" transform="translate(-245.602 -303.488)" fill="#665f7f"/><path d="M415.22,367h-5.192A3.032,3.032,0,0,0,407,370.029v5.192a3.032,3.032,0,0,0,3.029,3.029h5.192a3.032,3.032,0,0,0,3.029-3.029v-5.192A3.032,3.032,0,0,0,415.22,367Zm.433,8.22a.433.433,0,0,1-.433.433h-5.192a.433.433,0,0,1-.433-.433v-5.192a.433.433,0,0,1,.433-.433h5.192a.433.433,0,0,1,.433.433Z" transform="translate(-336.566 -303.488)" fill="#665f7f"/></svg>