<svg xmlns="http://www.w3.org/2000/svg" width="90.103" height="81" viewBox="0 0 90.103 81"><path d="M79.358,42.812H52.617a1.748,1.748,0,0,0-1.74,1.74V65.363a1.748,1.748,0,0,0,1.74,1.74h6.8A1.277,1.277,0,0,1,60.7,68.38v2.77l3.915-2.26v0L67.3,67.339a1.271,1.271,0,0,1,.739-.236H79.358a1.748,1.748,0,0,0,1.74-1.74V44.552a1.748,1.748,0,0,0-1.74-1.74Zm4.294,22.116h17.8a2.113,2.113,0,0,1,2.1,2.1V90.349a2.113,2.113,0,0,1-2.1,2.1H88.776a1.271,1.271,0,0,0-.739.236L80.392,97.1V93.729a1.277,1.277,0,0,0-1.277-1.277H71.494a2.113,2.113,0,0,1-2.1-2.1V69.657H79.36a4.3,4.3,0,0,0,4.294-4.294v-.436ZM52.617,40.258H79.358a4.3,4.3,0,0,1,4.294,4.294V62.374h17.8a4.667,4.667,0,0,1,4.657,4.657V90.349a4.667,4.667,0,0,1-4.657,4.657H89.107l-9.358,5.4a1.272,1.272,0,0,1-1.905-1.1h-.005v-4.3H71.494a4.668,4.668,0,0,1-4.657-4.657v-19.8l-.949.548v0l-5.83,3.366a1.274,1.274,0,0,1-1.912-1.1h0v-3.7H52.617a4.3,4.3,0,0,1-4.294-4.294V44.552a4.3,4.3,0,0,1,4.294-4.294ZM32.2,92.049l-9.076,3.374a.251.251,0,0,0-.14.131.262.262,0,0,0-.024.13v.009a.237.237,0,0,0,.013.054l4.7,12.637a1.245,1.245,0,0,1,.059.147l.012.019,0,0h0a.263.263,0,0,0,.248.1,1.268,1.268,0,0,1,.15-.051l8.97-3.335L32.193,92.049Zm-11.3,5.423,4.129,11.107-.961.357a2.13,2.13,0,0,1-2.725-1.249l-2.652-7.133a2.13,2.13,0,0,1,1.25-2.723l.96-.357Zm18.647,7.04a39.013,39.013,0,0,1,9.651-.833,36.81,36.81,0,0,1,7.075.894L47.156,80.061a36.809,36.809,0,0,1-4.772,5.3,39.018,39.018,0,0,1-7.853,5.674l5.01,13.478Zm-6.472,4.971,3.182,8.558a.93.93,0,0,0,.849.673,1.276,1.276,0,0,0,.879-.328.93.93,0,0,0,.208-1.063l-3.182-8.56-1.936.72ZM60.336,92.087a3.79,3.79,0,0,0,.361-.77,3.724,3.724,0,0,0-2.415-4.757l2.054,5.526ZM57.27,83.84l-2.987-8.035a4.091,4.091,0,0,0-5-2.488h-.025l-.228.085a4.072,4.072,0,0,0-2.286,2.129,4.115,4.115,0,0,0-.28.841,28.422,28.422,0,0,1-5.81,7.111A35.527,35.527,0,0,1,32.4,89.257L22.23,93.039A2.805,2.805,0,0,0,20.515,94.9l-1.527.568,0,0a4.674,4.674,0,0,0-2.683,5.973l2.653,7.133a4.673,4.673,0,0,0,6,2.746l1.495-.556a2.839,2.839,0,0,0,.335.182,2.789,2.789,0,0,0,2.136.081l1.769-.657,3.182,8.559a3.375,3.375,0,0,0,3.173,2.329,3.859,3.859,0,0,0,2.655-.986,3.374,3.374,0,0,0,.876-3.836l-3.181-8.558,1.72-.639a35.525,35.525,0,0,1,10-1.014,27.972,27.972,0,0,1,9.195,1.652,1.273,1.273,0,0,0,.5.1l.006,0a4.072,4.072,0,0,0,2.867.2H61.7l.228-.085a4.091,4.091,0,0,0,2.488-5v-.025l-3.073-8.266a6.285,6.285,0,0,0-4.076-10.963Zm-2.018,1.872a1.27,1.27,0,0,1-.071-.192L51.9,76.693a1.547,1.547,0,0,0-1.977-.907h0a1.532,1.532,0,0,0-.857.8,1.558,1.558,0,0,0-.111.338,1.286,1.286,0,0,1-.023.143,1.515,1.515,0,0,0,.086.695c3.349,9.009,6.754,18.013,10.052,27.039a1.547,1.547,0,0,0,1.976.9l.005,0a1.546,1.546,0,0,0,.9-1.975l-6.7-18.018Zm1.859-31.921a1.828,1.828,0,1,1-1.828,1.828,1.828,1.828,0,0,1,1.828-1.828Zm8.876,0a1.828,1.828,0,1,1-1.828,1.828,1.828,1.828,0,0,1,1.828-1.828Zm8.876,0a1.828,1.828,0,1,1-1.828,1.828,1.828,1.828,0,0,1,1.828-1.828ZM76.53,77.383a2.048,2.048,0,1,0,2.048,2.048,2.048,2.048,0,0,0-2.048-2.048Zm9.945,0a2.048,2.048,0,1,0,2.048,2.048,2.048,2.048,0,0,0-2.048-2.048Zm9.945,0a2.048,2.048,0,1,0,2.048,2.048,2.048,2.048,0,0,0-2.048-2.048Z" transform="translate(-16.01 -40.258)" fill="#8f85b2" fill-rule="evenodd"/></svg>