<svg xmlns="http://www.w3.org/2000/svg" width="55.469" height="71" viewBox="0 0 55.469 71"><g transform="translate(-56)"><g transform="translate(56 0)"><path d="M111.144,14.747,96.722.325A1.106,1.106,0,0,0,95.938,0H57.109A1.11,1.11,0,0,0,56,1.109V69.891A1.11,1.11,0,0,0,57.109,71h53.25a1.11,1.11,0,0,0,1.109-1.109V15.531A1.106,1.106,0,0,0,111.144,14.747Zm-14.1-10.96,10.634,10.634H97.047Zm12.2,64.994H58.219V64.344H109.25Zm0-6.656H58.219V2.219H94.828V15.531a1.11,1.11,0,0,0,1.109,1.109H109.25Z" transform="translate(-56 0)" fill="#8f85b2"/></g><g transform="translate(61.547 6.656)"><rect width="13" height="2" transform="translate(0.453 0.344)" fill="#8f85b2"/></g><g transform="translate(61.547 11.094)"><rect width="8" height="2" transform="translate(0.453 -0.094)" fill="#8f85b2"/></g><g transform="translate(77.078 6.656)"><rect width="2" height="2" transform="translate(-0.078 0.344)" fill="#8f85b2"/></g><g transform="translate(61.547 21.078)"><path d="M139.266,152H97.109A1.11,1.11,0,0,0,96,153.109v35.5a1.11,1.11,0,0,0,1.109,1.109h42.156a1.11,1.11,0,0,0,1.109-1.109v-35.5A1.11,1.11,0,0,0,139.266,152Zm-1.109,35.5H98.219V154.219h39.938Z" transform="translate(-96 -152)" fill="#8f85b2"/></g><g transform="translate(68.203 26.625)"><path d="M173.953,200.875a1.11,1.11,0,0,0,1.109-1.109v-6.656A1.11,1.11,0,0,0,173.953,192H167.3a1.11,1.11,0,0,0-1.109,1.109v2.219H152.875v-2.219A1.11,1.11,0,0,0,151.766,192h-6.656A1.11,1.11,0,0,0,144,193.109v6.656a1.11,1.11,0,0,0,1.109,1.109h2.219v8.875h-2.219A1.11,1.11,0,0,0,144,210.859v6.656a1.11,1.11,0,0,0,1.109,1.109h6.656a1.11,1.11,0,0,0,1.109-1.109V215.3h13.313v2.219a1.11,1.11,0,0,0,1.109,1.109h6.656a1.11,1.11,0,0,0,1.109-1.109v-6.656a1.11,1.11,0,0,0-1.109-1.109h-2.219v-8.875Zm-27.734-2.219v-4.437h4.438v4.438Zm4.438,17.75h-4.437v-4.437h4.438Zm15.531-5.547v2.219H152.875v-2.219a1.11,1.11,0,0,0-1.109-1.109h-2.219v-8.875h2.219a1.11,1.11,0,0,0,1.109-1.109v-2.219h13.313v2.219a1.11,1.11,0,0,0,1.109,1.109h2.219v8.875H167.3A1.11,1.11,0,0,0,166.188,210.859Zm6.656,1.109v4.438h-4.437v-4.437Zm-4.437-13.312v-4.437h4.438v4.438Z" transform="translate(-144 -192)" fill="#8f85b2"/></g></g></svg>