<svg xmlns="http://www.w3.org/2000/svg" xmlns:xlink="http://www.w3.org/1999/xlink" width="73.666" height="73.666" viewBox="0 0 73.666 73.666"><defs><clipPath id="a"><path d="M0-682.665H73.666V-609H0Z" transform="translate(0 682.665)" fill="#8f85b2"/></clipPath></defs><g transform="translate(0 682.665)"><g transform="translate(0 -682.665)"><g clip-path="url(#a)"><g transform="translate(43.253 34.427)"><path d="M0-74.364a21.7,21.7,0,0,0,11.811-9" transform="translate(0 83.36)" fill="none" stroke="#8f85b2" stroke-linecap="round" stroke-linejoin="round" stroke-miterlimit="10" stroke-width="2"/></g><g transform="translate(15.178 1.079)"><path d="M-125.951-350.055a21.664,21.664,0,0,1-15.235-20.687A21.656,21.656,0,0,1-119.531-392.4a21.657,21.657,0,0,1,21.657,21.657,21.613,21.613,0,0,1-1.217,7.175" transform="translate(141.186 392.399)" fill="none" stroke="#8f85b2" stroke-linecap="round" stroke-linejoin="round" stroke-miterlimit="10" stroke-width="2"/></g><g transform="translate(23.749 8.637)"><path d="M-108.172-142.982a3.2,3.2,0,0,1-3.2-3.2,3.2,3.2,0,0,1,3.2-3.2,3.2,3.2,0,0,1,3.2,3.2A3.2,3.2,0,0,1-108.172-142.982Zm10.174-3.2a10.253,10.253,0,0,0-.136-1.656l2.712-2.748a1.162,1.162,0,0,0,.179-1.4l-1.439-2.493a1.162,1.162,0,0,0-1.3-.544l-3.735.974a10.157,10.157,0,0,0-2.87-1.658l-1.023-3.721a1.163,1.163,0,0,0-1.121-.854h-2.879a1.163,1.163,0,0,0-1.121.854l-1.023,3.721a10.157,10.157,0,0,0-2.87,1.658l-3.735-.974a1.162,1.162,0,0,0-1.3.544l-1.439,2.493a1.162,1.162,0,0,0,.179,1.4l2.712,2.748a10.252,10.252,0,0,0-.136,1.656,10.252,10.252,0,0,0,.136,1.656l-2.712,2.748a1.162,1.162,0,0,0-.179,1.4l1.439,2.493a1.163,1.163,0,0,0,1.3.544l3.735-.975a10.161,10.161,0,0,0,2.87,1.658l1.023,3.721a1.163,1.163,0,0,0,1.121.854h2.879a1.163,1.163,0,0,0,1.121-.854l1.023-3.721a10.161,10.161,0,0,0,2.87-1.658l3.735.975a1.163,1.163,0,0,0,1.3-.544l1.439-2.493a1.162,1.162,0,0,0-.179-1.4l-2.712-2.748A10.253,10.253,0,0,0-98-146.179Z" transform="translate(121.256 160.277)" fill="none" stroke="#8f85b2" stroke-linecap="round" stroke-linejoin="round" stroke-miterlimit="10" stroke-width="2"/></g><g transform="translate(11.534 46.9)"><path d="M0-53.089a6.422,6.422,0,0,0,6.422,6.422,6.422,6.422,0,0,0,6.422-6.422,6.422,6.422,0,0,0-6.422-6.422A6.422,6.422,0,0,0,0-53.089Z" transform="translate(0 59.511)" fill="none" stroke="#8f85b2" stroke-linecap="round" stroke-linejoin="round" stroke-miterlimit="10" stroke-width="2"/></g><g transform="translate(5.113 59.744)"><path d="M-156.056-106.178h-18.877v-5.9a6.942,6.942,0,0,1,6.942-6.942h11.88" transform="translate(174.933 119.021)" fill="none" stroke="#8f85b2" stroke-linecap="round" stroke-linejoin="round" stroke-miterlimit="10" stroke-width="2"/></g><g transform="translate(10.667 68.333)"><path d="M0-35.16v-4.253" transform="translate(0 39.413)" fill="none" stroke="#8f85b2" stroke-linecap="round" stroke-linejoin="round" stroke-miterlimit="10" stroke-width="2"/></g><g transform="translate(49.288 46.9)"><path d="M-53.09,0a6.422,6.422,0,0,1,6.422,6.422,6.422,6.422,0,0,1-6.422,6.422,6.422,6.422,0,0,1-6.422-6.422A6.422,6.422,0,0,1-53.09,0Z" transform="translate(59.512)" fill="none" stroke="#8f85b2" stroke-linecap="round" stroke-linejoin="round" stroke-miterlimit="10" stroke-width="2"/></g><g transform="translate(49.677 59.744)"><path d="M0,0H11.933a6.941,6.941,0,0,1,6.889,6.073" fill="none" stroke="#8f85b2" stroke-linecap="round" stroke-linejoin="round" stroke-miterlimit="10" stroke-width="2"/></g><g transform="translate(49.289 70.852)"><path d="M-159.266,0V1.735h-19.265" transform="translate(178.532)" fill="none" stroke="#8f85b2" stroke-linecap="round" stroke-linejoin="round" stroke-miterlimit="10" stroke-width="2"/></g><g transform="translate(62.999 68.333)"><path d="M0-35.16v-4.253" transform="translate(0 39.413)" fill="none" stroke="#8f85b2" stroke-linecap="round" stroke-linejoin="round" stroke-miterlimit="10" stroke-width="2"/></g><g transform="translate(44.122 62.52)"><path d="M-45.915,0V10.066h-5.554" transform="translate(51.469)" fill="none" stroke="#8f85b2" stroke-linecap="round" stroke-linejoin="round" stroke-miterlimit="10" stroke-width="2"/></g><g transform="translate(30.411 36.833)"><path d="M-106.178-53.089a6.422,6.422,0,0,1-6.422,6.422,6.422,6.422,0,0,1-6.422-6.422,6.422,6.422,0,0,1,6.422-6.422A6.422,6.422,0,0,1-106.178-53.089Z" transform="translate(119.021 59.511)" fill="none" stroke="#8f85b2" stroke-linecap="round" stroke-linejoin="round" stroke-miterlimit="10" stroke-width="2"/></g><g transform="translate(23.989 49.677)"><path d="M-45.924-171.221v2.2h14.578V-179.09h5.555v-5.9a6.943,6.943,0,0,0-6.944-6.942h-11.8a6.943,6.943,0,0,0-6.943,6.942v5.9h5.555v2.833" transform="translate(51.479 191.933)" fill="none" stroke="#8f85b2" stroke-linecap="round" stroke-linejoin="round" stroke-miterlimit="10" stroke-width="2"/></g><g transform="translate(29.544 59.049)"><path d="M0-28.7v-3.471" transform="translate(0 32.168)" fill="none" stroke="#8f85b2" stroke-linecap="round" stroke-linejoin="round" stroke-miterlimit="10" stroke-width="2"/></g><g transform="translate(44.123 59.049)"><path d="M0-28.7v-3.471" transform="translate(0 32.168)" fill="none" stroke="#8f85b2" stroke-linecap="round" stroke-linejoin="round" stroke-miterlimit="10" stroke-width="2"/></g><g transform="translate(23.99 62.52)"><path d="M0,0V10.066H5.554" fill="none" stroke="#8f85b2" stroke-linecap="round" stroke-linejoin="round" stroke-miterlimit="10" stroke-width="2"/></g></g></g></g></svg>