<svg xmlns="http://www.w3.org/2000/svg" width="67.761" height="73.666" viewBox="0 0 67.761 73.666"><g transform="translate(-26.847 -7)"><path d="M39.432,61.817A8.946,8.946,0,0,1,44.63,69a1.188,1.188,0,0,1-1.181,1.314H28.036A1.188,1.188,0,0,1,26.854,69a8.952,8.952,0,0,1,5.2-7.183,5.1,5.1,0,0,1,2.5-8.493V39.87a1.189,1.189,0,0,1,1.188-1.188H56.126V31.069a12.063,12.063,0,1,1,2.376,0v7.613H78.886a1.189,1.189,0,0,1,1.188,1.188v8.072h5.814a1.739,1.739,0,0,1,1.245.5l5.444,4.91.044.042a1.744,1.744,0,0,1,.528,1.272v24.2a1.8,1.8,0,0,1-1.8,1.8H69.16a1.8,1.8,0,0,1-1.8-1.8V49.744a1.8,1.8,0,0,1,1.8-1.8H77.7V41.058H58.5v13.61a1.188,1.188,0,0,1-2.376,0V41.058H36.93V53.323a5.1,5.1,0,0,1,2.5,8.494ZM35.742,63.4a6.566,6.566,0,0,0-6.245,4.54h12.49A6.564,6.564,0,0,0,35.742,63.4Zm0-7.839a2.731,2.731,0,1,0,2.731,2.731A2.735,2.735,0,0,0,35.742,55.56ZM84.7,50.319H69.735V78.29H90.774v-21.9H86.382A1.691,1.691,0,0,1,84.7,54.71ZM65.43,24.354a9.687,9.687,0,1,0-16.233,0A8.817,8.817,0,0,1,53.66,19.72a5.029,5.029,0,1,1,7.307,0,8.817,8.817,0,0,1,4.463,4.634ZM51.035,26.441a9.689,9.689,0,0,0,12.557,0,6.4,6.4,0,0,0-12.557,0Zm6.279-7.516a2.652,2.652,0,1,0-2.652-2.652A2.66,2.66,0,0,0,57.314,18.925Zm22.94,38.041a9.508,9.508,0,1,1-9.508,9.508A9.508,9.508,0,0,1,80.254,56.966ZM86.5,69.926a7.132,7.132,0,1,0-12.485,0,7.031,7.031,0,0,1,3-3.041,4.127,4.127,0,1,1,6.484,0A7.031,7.031,0,0,1,86.5,69.926ZM75.76,72.013a7.134,7.134,0,0,0,8.989,0,4.621,4.621,0,0,0-8.989,0Zm4.495-5.923a1.75,1.75,0,1,0-1.75-1.75A1.755,1.755,0,0,0,80.254,66.089Zm6.823-14.124v2.05h2.05ZM86.422,18.9A15.91,15.91,0,0,1,91.2,23.245c3.863,5.329,4.341,13.3,1.952,22.689a3.045,3.045,0,0,1-5.9-1.5c1.851-7.273,2.012-13.485-.981-17.614a9.512,9.512,0,0,0-1.361-1.507,3.047,3.047,0,0,1-4.829.782L75.1,21.244a3.044,3.044,0,0,1-.9-2.527c0-.016,0-.032.006-.048a3.049,3.049,0,0,1,2.233-2.548l6.648-1.875A3.044,3.044,0,0,1,86.422,18.9Zm-9.861.086a.662.662,0,0,0,.049.337h0a.666.666,0,0,0,.148.216l4.978,4.849a.669.669,0,0,0,1.065-.777,1.188,1.188,0,0,1,1.671-1.55,12.261,12.261,0,0,1,3.72,3.359c3.332,4.6,3.42,11.5,1.36,19.594a.668.668,0,0,0,1.3.33C93.026,36.785,92.8,29.5,89.275,24.64a13.979,13.979,0,0,0-5.632-4.516,1.188,1.188,0,0,1,.172-2.224l.28-.079a.668.668,0,0,0-.363-1.286l-6.657,1.877-.02.005a.651.651,0,0,0-.086.029h0a.669.669,0,0,0-.27.206h0a.661.661,0,0,0-.135.324v.011Z" fill="#8f85b2" fill-rule="evenodd"/></g></svg>