<svg xmlns="http://www.w3.org/2000/svg" width="103.394" height="119.586" viewBox="0 0 103.394 119.586"><g transform="translate(11349 11823.592)"><path d="M149.389,90.146H144.51a.238.238,0,0,1,0-.476h4.879a.238.238,0,1,1,0,.476" transform="translate(-11459.896 -11892.518)" fill="#2e186b"/><path d="M324.983,27.829h-23.31v112.91h23.31a10.064,10.064,0,0,0,10.055-10.064V37.884a10.062,10.062,0,0,0-10.055-10.055" transform="translate(-11580.884 -11844.981)" fill="#665f7f"/><path d="M324.192,140.186h-23.31a.238.238,0,0,1-.238-.238V27.038a.238.238,0,0,1,.238-.238h23.31a10.3,10.3,0,0,1,10.293,10.293v92.79a10.309,10.309,0,0,1-10.293,10.3m-23.072-.476h23.072a9.833,9.833,0,0,0,9.817-9.826V37.093a9.828,9.828,0,0,0-9.817-9.817H301.12Z" transform="translate(-11580.092 -11844.192)" fill="#2e186b"/><path d="M175.66,37.884v92.79a10.064,10.064,0,0,1-10.053,10.065H112.4a10.067,10.067,0,0,1-10.063-10.065V37.884A10.063,10.063,0,0,1,112.4,27.828h53.206A10.061,10.061,0,0,1,175.66,37.884" transform="translate(-11427.663 -11844.98)" fill="#cdbeff"/><path d="M114.227,140.74H112.4a10.066,10.066,0,0,1-10.063-10.065V37.884A10.062,10.062,0,0,1,112.4,27.829h1.826a10.062,10.062,0,0,0-10.063,10.055v92.79a10.066,10.066,0,0,0,10.063,10.065" transform="translate(-11427.663 -11844.981)" fill="#fff"/><path d="M184.262,74.183V160.49a6.367,6.367,0,0,1-6.351,6.368h-53.2a6.369,6.369,0,0,1-6.359-6.368V74.183a6.362,6.362,0,0,1,6.359-6.36h53.2a6.36,6.36,0,0,1,6.351,6.36" transform="translate(-11439.971 -11875.725)" fill="#fff"/><path d="M183.164,70.611a6.323,6.323,0,0,0-3.761-1.236H126.2a6.359,6.359,0,0,0-6.359,6.359v86.308a6.349,6.349,0,0,0,1.1,3.576,6.361,6.361,0,0,1-2.585-5.123V74.186a6.359,6.359,0,0,1,6.358-6.358h53.206a6.337,6.337,0,0,1,5.249,2.783" transform="translate(-11439.97 -11875.729)" fill="#ffd256"/><path d="M164.812,140.186h-53.2a10.314,10.314,0,0,1-10.3-10.3V37.093a10.309,10.309,0,0,1,10.3-10.293h53.2A10.3,10.3,0,0,1,175.1,37.093v92.79a10.31,10.31,0,0,1-10.293,10.3m-53.2-112.91a9.833,9.833,0,0,0-9.826,9.817v92.79a9.837,9.837,0,0,0,9.826,9.826h53.2a9.833,9.833,0,0,0,9.817-9.826V37.093a9.828,9.828,0,0,0-9.817-9.817Z" transform="translate(-11426.868 -11844.192)" fill="#2e186b"/><path d="M177.12,166.306h-53.2a6.609,6.609,0,0,1-6.6-6.606V73.392a6.605,6.605,0,0,1,6.6-6.6h53.2a6.6,6.6,0,0,1,6.589,6.6V159.7a6.605,6.605,0,0,1-6.589,6.606m-53.2-99.035a6.128,6.128,0,0,0-6.121,6.121V159.7a6.133,6.133,0,0,0,6.121,6.13h53.2a6.128,6.128,0,0,0,6.112-6.13V73.392a6.124,6.124,0,0,0-6.112-6.121Z" transform="translate(-11439.179 -11874.933)" fill="#2e186b"/><path d="M303.029,276.252v11.493a1.387,1.387,0,0,1-1.385,1.385h-5.063a1.389,1.389,0,0,1-1.394-1.385V276.252a1.4,1.4,0,0,1,1.394-1.385h5.063a1.393,1.393,0,0,1,1.385,1.385" transform="translate(-11575.899 -12034.872)" fill="#b1923b"/><path d="M354.378,175.863V210.58a1.387,1.387,0,0,1-1.385,1.385h-5.063a1.381,1.381,0,0,1-1.385-1.385V175.863a1.381,1.381,0,0,1,1.385-1.385h5.063a1.387,1.387,0,0,1,1.385,1.385" transform="translate(-11615.377 -11957.706)" fill="#ffd256"/><path d="M251.709,193.02v30.748a1.389,1.389,0,0,1-1.394,1.385h-5.063a1.387,1.387,0,0,1-1.385-1.385V193.02a1.387,1.387,0,0,1,1.385-1.385h5.063a1.389,1.389,0,0,1,1.394,1.385" transform="translate(-11536.452 -11970.894)" fill="#ffd256"/><path d="M149.062,257.379v15.859a1.381,1.381,0,0,1-1.385,1.385h-5.063a1.382,1.382,0,0,1-1.385-1.385V257.379a1.382,1.382,0,0,1,1.385-1.385h5.063a1.381,1.381,0,0,1,1.385,1.385" transform="translate(-11457.559 -12020.364)" fill="#ffd256"/><path d="M200.382,229.241v22.369A1.382,1.382,0,0,1,199,252.994h-5.063a1.387,1.387,0,0,1-1.385-1.385V229.241a1.387,1.387,0,0,1,1.385-1.385H199a1.382,1.382,0,0,1,1.385,1.385" transform="translate(-11497.006 -11998.734)" fill="#b1923b"/><path d="M298.19,289.132h-1.607a1.39,1.39,0,0,1-1.393-1.385V276.253a1.394,1.394,0,0,1,1.393-1.383h1.607a1.394,1.394,0,0,0-1.393,1.383v11.493a1.39,1.39,0,0,0,1.393,1.385" transform="translate(-11575.901 -12034.875)" fill="#fff"/><path d="M349.539,211.964h-1.607a1.382,1.382,0,0,1-1.383-1.385V175.862a1.38,1.38,0,0,1,1.383-1.385h1.607a1.38,1.38,0,0,0-1.383,1.385v34.716a1.382,1.382,0,0,0,1.383,1.385" transform="translate(-11615.378 -11957.705)" fill="#fff"/><path d="M246.862,225.15h-1.607a1.388,1.388,0,0,1-1.383-1.385V193.016a1.388,1.388,0,0,1,1.383-1.385h1.607a1.388,1.388,0,0,0-1.383,1.385v30.748a1.388,1.388,0,0,0,1.383,1.385" transform="translate(-11536.456 -11970.89)" fill="#fff"/><path d="M144.217,274.626H142.61a1.384,1.384,0,0,1-1.385-1.385V257.381A1.382,1.382,0,0,1,142.61,256h1.607a1.382,1.382,0,0,0-1.386,1.383V273.24a1.384,1.384,0,0,0,1.386,1.385" transform="translate(-11457.554 -12020.366)" fill="#fff"/><path d="M195.543,252.992h-1.607a1.388,1.388,0,0,1-1.383-1.385V229.238a1.388,1.388,0,0,1,1.383-1.385h1.607a1.388,1.388,0,0,0-1.383,1.385v22.368a1.388,1.388,0,0,0,1.383,1.385" transform="translate(-11497.01 -11998.734)" fill="#fff"/><path d="M300.854,288.577h-5.063a1.629,1.629,0,0,1-1.632-1.623V275.461a1.629,1.629,0,0,1,1.632-1.623h5.063a1.624,1.624,0,0,1,1.623,1.623v11.493a1.625,1.625,0,0,1-1.623,1.623m-5.063-14.263a1.152,1.152,0,0,0-1.156,1.146v11.493a1.153,1.153,0,0,0,1.156,1.147h5.063A1.148,1.148,0,0,0,302,286.954V275.461a1.148,1.148,0,0,0-1.147-1.146Z" transform="translate(-11575.108 -12034.08)" fill="#2e186b"/><path d="M352.2,211.411h-5.063a1.625,1.625,0,0,1-1.623-1.623V175.071a1.624,1.624,0,0,1,1.623-1.623H352.2a1.625,1.625,0,0,1,1.623,1.623v34.717a1.625,1.625,0,0,1-1.623,1.623m-5.063-37.487a1.148,1.148,0,0,0-1.147,1.147v34.717a1.148,1.148,0,0,0,1.147,1.147H352.2a1.148,1.148,0,0,0,1.147-1.147V175.071a1.148,1.148,0,0,0-1.147-1.147Z" transform="translate(-11614.586 -11956.914)" fill="#2e186b"/><path d="M249.526,224.6h-5.063a1.624,1.624,0,0,1-1.623-1.623V192.229a1.624,1.624,0,0,1,1.623-1.623h5.063a1.629,1.629,0,0,1,1.632,1.623v30.748a1.629,1.629,0,0,1-1.632,1.623m-5.063-33.517a1.148,1.148,0,0,0-1.147,1.146v30.748a1.148,1.148,0,0,0,1.147,1.146h5.063a1.152,1.152,0,0,0,1.156-1.146V192.229a1.152,1.152,0,0,0-1.156-1.146Z" transform="translate(-11535.661 -11970.102)" fill="#2e186b"/><path d="M146.887,274.069h-5.063a1.625,1.625,0,0,1-1.623-1.623V256.587a1.625,1.625,0,0,1,1.623-1.623h5.063a1.625,1.625,0,0,1,1.623,1.623v15.859a1.625,1.625,0,0,1-1.623,1.623m-5.063-18.629a1.148,1.148,0,0,0-1.147,1.147v15.859a1.148,1.148,0,0,0,1.147,1.147h5.063a1.148,1.148,0,0,0,1.146-1.147V256.587a1.148,1.148,0,0,0-1.146-1.147Z" transform="translate(-11456.768 -12019.571)" fill="#2e186b"/><path d="M198.206,252.441h-5.063a1.625,1.625,0,0,1-1.623-1.623V228.45a1.625,1.625,0,0,1,1.623-1.623h5.063a1.625,1.625,0,0,1,1.623,1.623v22.369a1.625,1.625,0,0,1-1.623,1.623M193.143,227.3A1.148,1.148,0,0,0,192,228.45v22.369a1.148,1.148,0,0,0,1.147,1.147h5.063a1.148,1.148,0,0,0,1.147-1.147V228.45a1.148,1.148,0,0,0-1.147-1.146Z" transform="translate(-11496.214 -11997.945)" fill="#2e186b"/><path d="M157.367,145.087a.238.238,0,0,1-.145-.428l23.749-18.082a.238.238,0,0,1,.306.015l11.7,10.868,13.241-13.506a.238.238,0,0,1,.34.333l-13.4,13.672a.238.238,0,0,1-.332.008L181.1,127.078l-23.59,17.96a.235.235,0,0,1-.144.049" transform="translate(-11469.779 -11918.815)" fill="#2e186b"/><path d="M358.045,126.945a.238.238,0,0,1-.238-.238v-3.143h-3.143a.238.238,0,0,1,0-.476h3.381a.238.238,0,0,1,.238.238v3.381a.238.238,0,0,1-.238.238" transform="translate(-11621.433 -11918.206)" fill="#2e186b"/><path d="M188.789,90.146H178.411a.238.238,0,1,1,0-.476h10.377a.238.238,0,0,1,0,.476" transform="translate(-11485.956 -11892.518)" fill="#2e186b"/><path d="M210.814,108.565h-3.749a.238.238,0,0,1,0-.476h3.749a.238.238,0,0,1,0,.476" transform="translate(-11507.98 -11906.675)" fill="#2e186b"/><path d="M156.393,108.565H144.51a.238.238,0,0,1,0-.476h11.883a.238.238,0,0,1,0,.476" transform="translate(-11459.896 -11906.675)" fill="#2e186b"/><path d="M153.138,128.89H144.51a.238.238,0,0,1,0-.476h8.628a.238.238,0,1,1,0,.476" transform="translate(-11459.896 -11922.299)" fill="#2e186b"/><path d="M213.806,369.384h-4.767a.238.238,0,1,1,0-.476h4.767a.238.238,0,1,1,0,.476" transform="translate(-11509.497 -12107.156)" fill="#2e186b"/><path d="M259.308,369.384h-17.7a.238.238,0,1,1,0-.476h17.7a.238.238,0,1,1,0,.476" transform="translate(-11534.53 -12107.156)" fill="#2e186b"/><path d="M339.64,369.384H328.281a.238.238,0,1,1,0-.476H339.64a.238.238,0,1,1,0,.476" transform="translate(-11601.153 -12107.156)" fill="#2e186b"/><path d="M225.063,385.676H209.039a.238.238,0,0,1,0-.476h16.024a.238.238,0,0,1,0,.476" transform="translate(-11509.497 -12119.681)" fill="#2e186b"/><path d="M303.863,385.676H288a.238.238,0,1,1,0-.476h15.86a.238.238,0,0,1,0,.476" transform="translate(-11570.193 -12119.681)" fill="#2e186b"/><path d="M367.946,385.676h-2.84a.238.238,0,1,1,0-.476h2.84a.238.238,0,0,1,0,.476" transform="translate(-11629.459 -12119.681)" fill="#2e186b"/><path d="M227.96,401.969H209.04a.238.238,0,0,1,0-.476h18.92a.238.238,0,1,1,0,.476" transform="translate(-11509.498 -12132.204)" fill="#2e186b"/><path d="M305.075,401.969h-4.412a.238.238,0,1,1,0-.476h4.412a.238.238,0,0,1,0,.476" transform="translate(-11579.924 -12132.204)" fill="#2e186b"/><path d="M145.191,40.959a2,2,0,1,1-2-2,2,2,0,0,1,2,2" transform="translate(-11457.524 -11853.534)" fill="#fff"/><path d="M142.4,42.409a2.241,2.241,0,1,1,2.241-2.241,2.244,2.244,0,0,1-2.241,2.241m0-4.006a1.765,1.765,0,1,0,1.765,1.765A1.767,1.767,0,0,0,142.4,38.4" transform="translate(-11456.731 -11852.745)" fill="#2e186b"/><path d="M173.077,43.067a1.369,1.369,0,1,1-1.369-1.369,1.369,1.369,0,0,1,1.369,1.369" transform="translate(-11479.936 -11855.644)" fill="#fff"/><path d="M170.918,43.882a1.607,1.607,0,1,1,1.607-1.607,1.608,1.608,0,0,1-1.607,1.607m0-2.737a1.131,1.131,0,1,0,1.131,1.131,1.132,1.132,0,0,0-1.131-1.131" transform="translate(-11479.144 -11854.852)" fill="#2e186b"/><path d="M145.514,374.255a5.3,5.3,0,1,1,2.769-9.815.238.238,0,1,1-.249.406,4.822,4.822,0,1,0,2.3,4.112,4.865,4.865,0,0,0-.083-.9.238.238,0,0,1,.468-.088,5.3,5.3,0,0,1-5.206,6.282" transform="translate(-11456.779 -12103.123)" fill="#2e186b"/><path d="M158.633,370.005a.237.237,0,0,1-.168-.07l-1.625-1.625a.238.238,0,0,1,.337-.337l1.456,1.456,5.7-5.7a.238.238,0,0,1,.337.337l-5.869,5.869a.237.237,0,0,1-.168.07" transform="translate(-11469.504 -12103.123)" fill="#2e186b"/><path d="M213.806,430.11h-4.767a.238.238,0,1,1,0-.476h4.767a.238.238,0,1,1,0,.476" transform="translate(-11509.497 -12153.834)" fill="#2e186b"/><path d="M259.308,430.11h-17.7a.238.238,0,1,1,0-.476h17.7a.238.238,0,1,1,0,.476" transform="translate(-11534.53 -12153.834)" fill="#2e186b"/><path d="M334.581,430.11h-6.3a.238.238,0,1,1,0-.476h6.3a.238.238,0,1,1,0,.476" transform="translate(-11601.153 -12153.834)" fill="#2e186b"/><path d="M225.063,446.4H209.039a.238.238,0,0,1,0-.476h16.024a.238.238,0,0,1,0,.476" transform="translate(-11509.497 -12166.356)" fill="#2e186b"/><path d="M303.863,446.4H288a.238.238,0,1,1,0-.476h15.86a.238.238,0,0,1,0,.476" transform="translate(-11570.193 -12166.356)" fill="#2e186b"/><path d="M227.96,462.7H209.04a.238.238,0,0,1,0-.476h18.92a.238.238,0,1,1,0,.476" transform="translate(-11509.498 -12178.882)" fill="#2e186b"/><path d="M305.075,462.7h-4.412a.238.238,0,1,1,0-.476h4.412a.238.238,0,0,1,0,.476" transform="translate(-11579.924 -12178.882)" fill="#2e186b"/><path d="M145.514,434.981a5.3,5.3,0,1,1,2.769-9.815.238.238,0,1,1-.249.406,4.822,4.822,0,1,0,2.3,4.112,4.864,4.864,0,0,0-.083-.9.238.238,0,1,1,.468-.088,5.3,5.3,0,0,1-5.206,6.282" transform="translate(-11456.779 -12149.8)" fill="#2e186b"/><path d="M158.633,430.73a.239.239,0,0,1-.168-.07l-1.625-1.625a.238.238,0,0,1,.337-.337l1.456,1.456,5.7-5.7a.238.238,0,0,1,.337.337l-5.869,5.869a.239.239,0,0,1-.168.07" transform="translate(-11469.504 -12149.8)" fill="#2e186b"/><path d="M6.781,10.825a4.042,4.042,0,0,1,4.044-4.04V0A10.823,10.823,0,0,0,.412,13.782L6.938,11.93a4.041,4.041,0,0,1-.157-1.105" transform="translate(-11349 -11823.592)" fill="#ff926d"/><path d="M57.617,10.825A10.827,10.827,0,0,0,46.792,0V6.785a4.039,4.039,0,0,1,2.144,7.465L52.535,20a10.814,10.814,0,0,0,5.081-9.174" transform="translate(-11384.967 -11823.592)" fill="#6b9c7d"/><path d="M12.2,54.508A4.041,4.041,0,0,1,8.308,51.57L1.783,53.422a10.822,10.822,0,0,0,16.156,6.217l-3.6-5.749a4.021,4.021,0,0,1-2.143.619" transform="translate(-11350.369 -11863.231)" fill="#7e682a"/><rect width="103.392" height="119.586" transform="translate(-11349 -11823.592)" fill="none"/></g></svg>