<svg xmlns="http://www.w3.org/2000/svg" xmlns:xlink="http://www.w3.org/1999/xlink" width="147.887" height="128.892" viewBox="0 0 147.887 128.892"><defs><clipPath id="a"><rect width="77.282" height="56.008" fill="none"/></clipPath><clipPath id="b"><rect width="128.886" height="128.892" fill="none"/></clipPath></defs><g transform="translate(-815.361 -274.028)"><g transform="translate(885.966 346.912)"><g clip-path="url(#a)"><path d="M280.831,71.661l-7.38-38.017-1.283-6.606a2.7,2.7,0,0,0-2.658-2.194h-3.872V74.89h12.526a2.722,2.722,0,0,0,2.667-3.229" transform="translate(-203.772 -19.058)" fill="#2e186b"/><path d="M277.587,74.488H265.061a.175.175,0,0,1-.175-.175V24.267a.175.175,0,0,1,.175-.175h3.871a2.885,2.885,0,0,1,2.83,2.336l8.663,44.622h0a2.9,2.9,0,0,1-2.839,3.437m-12.35-.351h12.35a2.546,2.546,0,0,0,2.495-3.021l-8.663-44.622a2.535,2.535,0,0,0-2.486-2.052h-3.7Z" transform="translate(-203.194 -18.481)" fill="#2e186b"/><path d="M106.291,74.892H54.225l-9.4-50.046H97.638a2.7,2.7,0,0,1,2.657,2.193l8.663,44.623a2.721,2.721,0,0,1-2.666,3.23" transform="translate(-34.385 -19.059)" fill="#fff"/><path d="M51.359,59.632l.362,1.927h55.107l-.374-1.927Z" transform="translate(-39.398 -45.744)" fill="#4c6f59"/><path d="M55.452,74.89H54.226l-9.4-50.046h1.227Z" transform="translate(-34.387 -19.058)" fill="#4c6f59"/><path d="M101.577,33.645H46.472l-1.647-8.8H97.638a2.7,2.7,0,0,1,2.657,2.193Z" transform="translate(-34.385 -19.059)" fill="#9ae1b4"/><path d="M98.925,25.9H46.112l1.451,7.748H46.475l-1.647-8.8H97.64a2.694,2.694,0,0,1,2.271,1.237,2.68,2.68,0,0,0-.987-.186" transform="translate(-34.388 -19.058)" fill="#fff"/><path d="M20.416,74.892H3.464A2.712,2.712,0,0,1,.816,71.6l10.2-46.752Z" transform="translate(-0.577 -19.059)" fill="#9ae1b4"/><path d="M5.038,74.89H3.461A2.712,2.712,0,0,1,.814,71.6l10.2-46.753.729,3.885L2.39,71.6A2.712,2.712,0,0,0,5.038,74.89" transform="translate(-0.575 -19.058)" fill="#fff"/><path d="M211.971,84.551h-4.388a.612.612,0,0,1-.6-.5l-.72-3.894a.613.613,0,0,1,.6-.723h4.388a.612.612,0,0,1,.6.5l.72,3.894a.614.614,0,0,1-.6.724" transform="translate(-158.215 -60.932)" fill="#fff"/><path d="M188.937,197.094a.613.613,0,0,1-.6.724h-4.388a.613.613,0,0,1-.6-.5l-.72-3.892a.614.614,0,0,1,.6-.725h4.39a.61.61,0,0,1,.6.5Z" transform="translate(-140.084 -147.82)" fill="#fff"/><path d="M95.707,160.065h-4.39a.613.613,0,0,1-.6-.5L90,155.67a.611.611,0,0,1,.6-.724h4.388a.614.614,0,0,1,.6.5l.72,3.894a.614.614,0,0,1-.6.724" transform="translate(-69.029 -118.859)" fill="#fff"/><path d="M131.6,122.3h-4.388a.613.613,0,0,1-.6-.5l-.72-3.892a.614.614,0,0,1,.6-.725h4.39a.614.614,0,0,1,.6.5l.718,3.894a.611.611,0,0,1-.6.724" transform="translate(-96.56 -89.893)" fill="#fff"/><path d="M88.462,122.3h-4.39a.61.61,0,0,1-.6-.5l-.72-3.892a.613.613,0,0,1,.6-.725h4.388a.614.614,0,0,1,.6.5l.72,3.894a.613.613,0,0,1-.6.724" transform="translate(-63.471 -89.893)" fill="#fff"/><path d="M138.843,160.065h-4.388a.613.613,0,0,1-.6-.5l-.72-3.894a.613.613,0,0,1,.6-.724h4.388a.611.611,0,0,1,.6.5l.72,3.894a.614.614,0,0,1-.6.724" transform="translate(-102.118 -118.859)" fill="#fff"/><path d="M145.8,197.094a.613.613,0,0,1-.6.724h-4.39a.613.613,0,0,1-.6-.5l-.718-3.892a.613.613,0,0,1,.6-.725h4.388a.613.613,0,0,1,.6.5Z" transform="translate(-106.994 -147.82)" fill="#fff"/><path d="M168.834,84.551h-4.388a.613.613,0,0,1-.6-.5l-.718-3.894a.611.611,0,0,1,.6-.723h4.388a.614.614,0,0,1,.6.5l.718,3.894a.612.612,0,0,1-.6.724" transform="translate(-125.126 -60.932)" fill="#fff"/><path d="M217.872,122.3h-4.388a.613.613,0,0,1-.6-.5l-.72-3.892a.614.614,0,0,1,.6-.725h4.39a.614.614,0,0,1,.6.5l.718,3.894a.611.611,0,0,1-.6.724" transform="translate(-162.742 -89.893)" fill="#fff"/><path d="M225.119,160.065h-4.388a.613.613,0,0,1-.6-.5l-.72-3.894a.613.613,0,0,1,.6-.724H224.4a.611.611,0,0,1,.6.5l.72,3.894a.614.614,0,0,1-.6.724" transform="translate(-168.301 -118.859)" fill="#fff"/><path d="M261.014,122.3h-4.388a.61.61,0,0,1-.6-.5l-.72-3.892a.614.614,0,0,1,.6-.725h4.388a.614.614,0,0,1,.6.5l.72,3.894a.613.613,0,0,1-.6.724" transform="translate(-195.836 -89.893)" fill="#fff"/><path d="M102.661,197.094a.613.613,0,0,1-.6.724H97.671a.613.613,0,0,1-.6-.5l-.72-3.892a.614.614,0,0,1,.6-.725h4.388a.61.61,0,0,1,.6.5Z" transform="translate(-73.901 -147.82)" fill="#fff"/><path d="M255.111,84.551h-4.39a.613.613,0,0,1-.6-.5l-.718-3.894a.611.611,0,0,1,.6-.723h4.388a.614.614,0,0,1,.6.5l.718,3.894a.611.611,0,0,1-.6.724" transform="translate(-191.308 -60.932)" fill="#fff"/><path d="M174.738,122.3H170.35a.61.61,0,0,1-.6-.5l-.72-3.892a.614.614,0,0,1,.6-.725h4.388a.614.614,0,0,1,.6.5l.72,3.894a.613.613,0,0,1-.6.724" transform="translate(-129.654 -89.893)" fill="#fff"/><path d="M181.983,160.065h-4.39a.613.613,0,0,1-.6-.5l-.718-3.894a.611.611,0,0,1,.6-.724h4.388a.614.614,0,0,1,.6.5l.72,3.894a.614.614,0,0,1-.6.724" transform="translate(-135.211 -118.859)" fill="#fff"/><path d="M207.312,80.771l.7,3.781h-.428a.611.611,0,0,1-.6-.5l-.72-3.893a.614.614,0,0,1,.6-.724h4.388a.612.612,0,0,1,.6.5l.021.112h-3.96a.614.614,0,0,0-.6.724" transform="translate(-158.215 -60.934)" fill="#4c6f59"/><path d="M183.674,194.037l.7,3.781h-.428a.615.615,0,0,1-.6-.5l-.72-3.891a.615.615,0,0,1,.6-.725h4.389a.609.609,0,0,1,.6.5l.021.112h-3.96a.615.615,0,0,0-.6.725" transform="translate(-140.083 -147.819)" fill="#4c6f59"/><path d="M91.05,156.283l.7,3.783h-.428a.615.615,0,0,1-.6-.5L90,155.67a.61.61,0,0,1,.6-.724h4.389a.61.61,0,0,1,.6.5l.021.112h-3.96a.61.61,0,0,0-.6.724" transform="translate(-69.03 -118.859)" fill="#4c6f59"/><path d="M126.939,118.525l.7,3.779h-.429a.611.611,0,0,1-.6-.5l-.72-3.891a.613.613,0,0,1,.6-.725h4.389a.614.614,0,0,1,.6.5l.021.112h-3.962a.613.613,0,0,0-.6.725" transform="translate(-96.56 -89.894)" fill="#4c6f59"/><path d="M83.8,118.525l.7,3.779h-.429a.611.611,0,0,1-.6-.5l-.72-3.891a.614.614,0,0,1,.6-.725H87.74a.613.613,0,0,1,.6.5l.021.112H84.4a.614.614,0,0,0-.6.725" transform="translate(-63.47 -89.894)" fill="#4c6f59"/><path d="M134.185,156.283l.7,3.783h-.428a.614.614,0,0,1-.6-.5l-.72-3.893a.614.614,0,0,1,.6-.724h4.388a.611.611,0,0,1,.6.5l.021.112h-3.96a.614.614,0,0,0-.6.724" transform="translate(-102.12 -118.859)" fill="#4c6f59"/><path d="M140.541,194.037l.7,3.781h-.427a.614.614,0,0,1-.6-.5l-.718-3.891a.613.613,0,0,1,.6-.725h4.387a.614.614,0,0,1,.6.5l.021.112h-3.96a.613.613,0,0,0-.6.725" transform="translate(-106.994 -147.819)" fill="#4c6f59"/><path d="M164.178,80.771l.7,3.781h-.429a.61.61,0,0,1-.6-.5l-.718-3.893a.61.61,0,0,1,.6-.724h4.388a.614.614,0,0,1,.6.5l.021.112h-3.96a.61.61,0,0,0-.6.724" transform="translate(-125.126 -60.934)" fill="#4c6f59"/><path d="M213.21,118.525l.7,3.779h-.428a.614.614,0,0,1-.6-.5l-.72-3.891a.615.615,0,0,1,.6-.725h4.391a.612.612,0,0,1,.6.5l.021.112h-3.962a.615.615,0,0,0-.6.725" transform="translate(-162.74 -89.894)" fill="#4c6f59"/><path d="M220.462,156.283l.7,3.783h-.427a.615.615,0,0,1-.6-.5l-.718-3.893a.611.611,0,0,1,.6-.724H224.4a.608.608,0,0,1,.6.5l.021.112h-3.96a.611.611,0,0,0-.6.724" transform="translate(-168.302 -118.859)" fill="#4c6f59"/><path d="M256.356,118.525l.7,3.779h-.429a.608.608,0,0,1-.6-.5l-.72-3.891a.613.613,0,0,1,.6-.725h4.388a.614.614,0,0,1,.6.5l.021.112h-3.96a.613.613,0,0,0-.6.725" transform="translate(-195.836 -89.894)" fill="#4c6f59"/><path d="M97.4,194.037l.7,3.781h-.427a.615.615,0,0,1-.6-.5l-.718-3.891a.613.613,0,0,1,.6-.725h4.389a.608.608,0,0,1,.6.5l.021.112H98a.613.613,0,0,0-.6.725" transform="translate(-73.902 -147.819)" fill="#4c6f59"/><path d="M250.45,80.771l.7,3.781h-.427a.614.614,0,0,1-.6-.5l-.718-3.893a.612.612,0,0,1,.6-.724h4.388a.612.612,0,0,1,.6.5l.021.112h-3.96a.612.612,0,0,0-.6.724" transform="translate(-191.306 -60.934)" fill="#4c6f59"/><path d="M170.079,118.525l.7,3.779h-.428a.61.61,0,0,1-.6-.5l-.72-3.891a.615.615,0,0,1,.6-.725h4.387a.614.614,0,0,1,.6.5l.021.112h-3.96a.615.615,0,0,0-.6.725" transform="translate(-129.654 -89.894)" fill="#4c6f59"/><path d="M177.323,156.283l.7,3.783h-.427a.615.615,0,0,1-.6-.5l-.718-3.893a.612.612,0,0,1,.6-.724h4.388a.612.612,0,0,1,.6.5l.021.112h-3.96a.612.612,0,0,0-.6.724" transform="translate(-135.21 -118.859)" fill="#4c6f59"/><path d="M105.714,74.49H53.648a.175.175,0,0,1-.172-.143L44.076,24.3a.175.175,0,0,1,.172-.208H97.061a2.885,2.885,0,0,1,2.829,2.335l8.662,44.623a2.9,2.9,0,0,1-2.838,3.439m-51.921-.351h51.921a2.546,2.546,0,0,0,2.494-3.022L99.546,26.494a2.534,2.534,0,0,0-2.485-2.051H44.46Z" transform="translate(-33.809 -18.482)" fill="#2e186b"/><path d="M101,33.242H45.9a.175.175,0,0,1-.172-.143l-1.647-8.8a.175.175,0,0,1,.172-.208H97.061a2.885,2.885,0,0,1,2.829,2.335l1.283,6.606a.175.175,0,0,1-.172.209m-54.96-.351h54.747l-1.243-6.4a2.534,2.534,0,0,0-2.485-2.051H44.46Z" transform="translate(-33.809 -18.482)" fill="#2e186b"/><path d="M19.839,74.49H2.887A2.888,2.888,0,0,1,.068,70.984l10.2-46.752a.175.175,0,0,1,.344,0l9.4,50.046a.175.175,0,0,1-.172.208M10.427,25.15.41,71.059A2.537,2.537,0,0,0,2.887,74.14H19.628Z" transform="translate(0 -18.483)" fill="#2e186b"/><path d="M64.36,9.9a.175.175,0,0,1,0-.351,4.474,4.474,0,0,0,4.322-4.6,4.33,4.33,0,1,0-8.644,0,4.937,4.937,0,0,0,.066.806.175.175,0,1,1-.346.058,5.279,5.279,0,0,1-.071-.863,4.68,4.68,0,1,1,9.345,0A4.824,4.824,0,0,1,64.36,9.9" transform="translate(-45.787)" fill="#2e186b"/><path d="M119.589,9.9a.175.175,0,0,1,0-.351,4.474,4.474,0,0,0,4.322-4.6,4.33,4.33,0,1,0-8.644,0,4.937,4.937,0,0,0,.066.806.175.175,0,1,1-.346.058,5.279,5.279,0,0,1-.071-.863,4.68,4.68,0,1,1,9.345,0A4.824,4.824,0,0,1,119.589,9.9" transform="translate(-88.153)" fill="#2e186b"/><path d="M174.819,9.9a.175.175,0,0,1,0-.351,4.474,4.474,0,0,0,4.322-4.6,4.33,4.33,0,1,0-8.644,0,4.954,4.954,0,0,0,.066.806.175.175,0,1,1-.346.057,5.286,5.286,0,0,1-.071-.863,4.68,4.68,0,1,1,9.345,0A4.824,4.824,0,0,1,174.819,9.9" transform="translate(-130.52)" fill="#2e186b"/><path d="M211.394,84.148h-4.388a.788.788,0,0,1-.775-.645l-.72-3.894a.788.788,0,0,1,.775-.931h4.388a.789.789,0,0,1,.775.645l.72,3.894a.789.789,0,0,1-.775.93m-5.108-5.119a.438.438,0,0,0-.43.517l.72,3.893a.438.438,0,0,0,.43.358h4.388a.439.439,0,0,0,.43-.517l-.72-3.894a.438.438,0,0,0-.43-.358Z" transform="translate(-157.639 -60.355)" fill="#2e186b"/><path d="M187.757,197.416H183.37a.788.788,0,0,1-.775-.645l-.72-3.892a.79.79,0,0,1,.775-.933h4.39a.784.784,0,0,1,.773.646l.72,3.893h0a.788.788,0,0,1-.775.93M182.65,192.3a.439.439,0,0,0-.43.519l.72,3.891a.438.438,0,0,0,.43.358h4.388a.438.438,0,0,0,.43-.516l-.72-3.894a.434.434,0,0,0-.428-.358Z" transform="translate(-139.507 -147.243)" fill="#2e186b"/><path d="M95.13,159.662h-4.39a.788.788,0,0,1-.775-.645l-.718-3.894a.786.786,0,0,1,.775-.931h4.388a.789.789,0,0,1,.775.645l.72,3.894a.789.789,0,0,1-.775.93m-5.108-5.119a.436.436,0,0,0-.43.516l.718,3.895a.438.438,0,0,0,.43.358h4.39a.439.439,0,0,0,.43-.517l-.72-3.894a.438.438,0,0,0-.43-.358Z" transform="translate(-68.452 -118.282)" fill="#2e186b"/><path d="M131.02,121.9h-4.388a.788.788,0,0,1-.775-.645l-.72-3.892a.79.79,0,0,1,.775-.933h4.39a.789.789,0,0,1,.775.645l.718,3.894a.786.786,0,0,1-.775.93m-5.108-5.119a.439.439,0,0,0-.43.519l.72,3.891a.438.438,0,0,0,.43.358h4.388a.436.436,0,0,0,.43-.516l-.718-3.894a.438.438,0,0,0-.43-.358Z" transform="translate(-95.983 -89.315)" fill="#2e186b"/><path d="M87.885,121.9H83.5a.784.784,0,0,1-.773-.646L82,117.365a.789.789,0,0,1,.775-.933h4.388a.789.789,0,0,1,.775.645l.72,3.894a.788.788,0,0,1-.775.931m-5.108-5.119a.438.438,0,0,0-.43.519l.72,3.891a.434.434,0,0,0,.428.358h4.39a.438.438,0,0,0,.43-.517l-.72-3.894a.438.438,0,0,0-.43-.358Z" transform="translate(-62.894 -89.315)" fill="#2e186b"/><path d="M138.266,159.662h-4.388a.788.788,0,0,1-.775-.645l-.72-3.894a.788.788,0,0,1,.775-.931h4.388a.785.785,0,0,1,.775.646l.72,3.893a.789.789,0,0,1-.775.93m-5.108-5.119a.437.437,0,0,0-.43.517l.72,3.893a.438.438,0,0,0,.43.359h4.388a.439.439,0,0,0,.43-.517l-.72-3.894a.435.435,0,0,0-.43-.358Z" transform="translate(-101.542 -118.282)" fill="#2e186b"/><path d="M144.621,197.416h-4.39a.789.789,0,0,1-.775-.645l-.718-3.892a.788.788,0,0,1,.775-.933H143.9a.789.789,0,0,1,.775.645l.72,3.894h0a.788.788,0,0,1-.775.93m-5.108-5.119a.437.437,0,0,0-.43.518l.718,3.892a.438.438,0,0,0,.43.358h4.39a.438.438,0,0,0,.43-.517l-.72-3.894a.438.438,0,0,0-.43-.358Z" transform="translate(-106.417 -147.243)" fill="#2e186b"/><path d="M168.257,84.148h-4.388a.788.788,0,0,1-.775-.645l-.718-3.894a.786.786,0,0,1,.775-.931h4.388a.789.789,0,0,1,.775.645l.718,3.894a.787.787,0,0,1-.775.93m-5.106-5.119a.436.436,0,0,0-.43.516l.718,3.895a.438.438,0,0,0,.43.358h4.388a.437.437,0,0,0,.43-.516l-.718-3.895a.438.438,0,0,0-.43-.358Z" transform="translate(-124.549 -60.355)" fill="#2e186b"/><path d="M217.3,121.9h-4.388a.788.788,0,0,1-.775-.645l-.72-3.892a.79.79,0,0,1,.775-.933h4.39a.789.789,0,0,1,.775.645l.718,3.894a.786.786,0,0,1-.775.93m-5.108-5.119a.439.439,0,0,0-.43.519l.72,3.891a.438.438,0,0,0,.43.358H217.3a.436.436,0,0,0,.43-.516l-.718-3.894a.438.438,0,0,0-.43-.358Z" transform="translate(-162.165 -89.315)" fill="#2e186b"/><path d="M224.542,159.662h-4.388a.788.788,0,0,1-.774-.645l-.72-3.894a.788.788,0,0,1,.775-.931h4.388a.785.785,0,0,1,.775.646l.72,3.893a.789.789,0,0,1-.774.93m-5.108-5.119a.437.437,0,0,0-.43.517l.72,3.893a.438.438,0,0,0,.43.359h4.388a.44.44,0,0,0,.43-.517l-.72-3.894a.435.435,0,0,0-.43-.358Z" transform="translate(-167.724 -118.282)" fill="#2e186b"/><path d="M260.437,121.9h-4.388a.785.785,0,0,1-.775-.646l-.72-3.891a.79.79,0,0,1,.775-.933h4.388a.789.789,0,0,1,.775.645l.72,3.894a.788.788,0,0,1-.775.931m-5.108-5.119a.439.439,0,0,0-.43.519l.72,3.891a.436.436,0,0,0,.43.358h4.388a.438.438,0,0,0,.43-.517l-.72-3.894a.438.438,0,0,0-.43-.358Z" transform="translate(-195.259 -89.315)" fill="#2e186b"/><path d="M101.481,197.416H97.094a.788.788,0,0,1-.775-.645l-.72-3.892a.79.79,0,0,1,.775-.933h4.388a.786.786,0,0,1,.775.646l.719,3.893h0a.788.788,0,0,1-.775.93M96.374,192.3a.439.439,0,0,0-.43.519l.72,3.891a.438.438,0,0,0,.43.358h4.388a.438.438,0,0,0,.43-.516l-.72-3.894a.436.436,0,0,0-.43-.358Z" transform="translate(-73.324 -147.243)" fill="#2e186b"/><path d="M254.534,84.148h-4.39a.789.789,0,0,1-.775-.645l-.718-3.894a.786.786,0,0,1,.775-.931h4.388a.789.789,0,0,1,.775.645l.718,3.894a.786.786,0,0,1-.773.93m-5.108-5.119a.436.436,0,0,0-.43.516l.718,3.895a.438.438,0,0,0,.43.358h4.39a.436.436,0,0,0,.428-.516l-.718-3.895a.438.438,0,0,0-.43-.358Z" transform="translate(-190.731 -60.355)" fill="#2e186b"/><path d="M174.161,121.9h-4.388a.785.785,0,0,1-.775-.646l-.72-3.891a.79.79,0,0,1,.775-.933h4.388a.789.789,0,0,1,.775.645l.72,3.894a.788.788,0,0,1-.775.931m-5.108-5.119a.439.439,0,0,0-.43.519l.72,3.891a.436.436,0,0,0,.43.358h4.388a.438.438,0,0,0,.43-.517l-.72-3.894a.438.438,0,0,0-.43-.358Z" transform="translate(-129.077 -89.315)" fill="#2e186b"/><path d="M181.406,159.662h-4.39a.788.788,0,0,1-.775-.645l-.718-3.894a.786.786,0,0,1,.775-.931h4.388a.789.789,0,0,1,.775.645l.72,3.894a.788.788,0,0,1-.774.93m-5.108-5.119a.435.435,0,0,0-.43.516l.718,3.895a.438.438,0,0,0,.43.358h4.39a.439.439,0,0,0,.43-.517l-.72-3.894a.438.438,0,0,0-.43-.358Z" transform="translate(-134.634 -118.282)" fill="#2e186b"/><path d="M230.049,9.9a.175.175,0,0,1,0-.351,4.473,4.473,0,0,0,4.322-4.6,4.33,4.33,0,1,0-8.644,0,4.973,4.973,0,0,0,.066.806.175.175,0,1,1-.346.057,5.309,5.309,0,0,1-.071-.863,4.68,4.68,0,1,1,9.345,0A4.824,4.824,0,0,1,230.049,9.9" transform="translate(-172.887)" fill="#2e186b"/><path d="M76.943,37.746a1.224,1.224,0,1,1-1.224-1.224,1.224,1.224,0,0,1,1.224,1.224" transform="translate(-57.145 -28.016)" fill="#2e186b"/><path d="M75.142,38.567a1.4,1.4,0,1,1,1.4-1.4,1.4,1.4,0,0,1-1.4,1.4m0-2.448a1.049,1.049,0,1,0,1.049,1.049,1.05,1.05,0,0,0-1.049-1.049" transform="translate(-56.568 -27.438)" fill="#2e186b"/><path d="M132.173,37.746a1.224,1.224,0,1,1-1.224-1.224,1.224,1.224,0,0,1,1.224,1.224" transform="translate(-99.512 -28.016)" fill="#2e186b"/><path d="M130.371,38.567a1.4,1.4,0,1,1,1.4-1.4,1.4,1.4,0,0,1-1.4,1.4m0-2.448a1.049,1.049,0,1,0,1.049,1.049,1.05,1.05,0,0,0-1.049-1.049" transform="translate(-98.935 -27.438)" fill="#2e186b"/><path d="M187.4,37.746a1.224,1.224,0,1,1-1.224-1.224,1.224,1.224,0,0,1,1.224,1.224" transform="translate(-141.879 -28.016)" fill="#2e186b"/><path d="M185.6,38.567a1.4,1.4,0,1,1,1.4-1.4,1.4,1.4,0,0,1-1.4,1.4m0-2.448a1.049,1.049,0,1,0,1.049,1.049A1.05,1.05,0,0,0,185.6,36.12" transform="translate(-141.302 -27.438)" fill="#2e186b"/><path d="M242.632,37.746a1.224,1.224,0,1,1-1.224-1.224,1.224,1.224,0,0,1,1.224,1.224" transform="translate(-184.246 -28.016)" fill="#2e186b"/><path d="M240.83,38.567a1.4,1.4,0,1,1,1.4-1.4,1.4,1.4,0,0,1-1.4,1.4m0-2.448a1.049,1.049,0,1,0,1.049,1.049,1.05,1.05,0,0,0-1.049-1.049" transform="translate(-183.668 -27.438)" fill="#2e186b"/></g></g><g transform="translate(815.361 274.028)"><g clip-path="url(#b)"><path d="M173.387,527.391H59.421a.251.251,0,1,1,0-.5H173.387a.251.251,0,1,1,0,.5" transform="translate(-44.752 -398.5)" fill="#2e186b"/><path d="M6.269,527.391H.251a.251.251,0,1,1,0-.5H6.269a.251.251,0,1,1,0,.5" transform="translate(0 -398.5)" fill="#2e186b"/><path d="M250.392,472.562a9.835,9.835,0,0,0-4.3.982,8.643,8.643,0,0,0-13.225-2.91,8.442,8.442,0,0,0-2.218-.29H230.6v12.779h29.651c.015-.225.026-.451.026-.68a9.884,9.884,0,0,0-9.882-9.882" transform="translate(-174.406 -354.483)" fill="#2e186b"/><path d="M259.47,482.6H229.819a.251.251,0,0,1-.251-.251V469.567a.251.251,0,0,1,.249-.251h.054a8.729,8.729,0,0,1,2.16.266,8.894,8.894,0,0,1,13.4,2.854,10.024,10.024,0,0,1,4.185-.9,10.144,10.144,0,0,1,10.133,10.133c0,.211-.008.432-.026.7a.251.251,0,0,1-.25.234m-29.4-.5h29.164c.008-.155.011-.295.011-.429a9.643,9.643,0,0,0-9.632-9.632,9.526,9.526,0,0,0-4.189.957.252.252,0,0,1-.335-.116,8.392,8.392,0,0,0-12.842-2.826.252.252,0,0,1-.225.048,8.16,8.16,0,0,0-1.954-.279Z" transform="translate(-173.628 -353.705)" fill="#2e186b"/><path d="M272.287,82.9l-14.966,47.647v8.416H246.413v8.066h-5.182v37.751l5.135.28,4.236-41,9.488,3.9L275.845,82.9Z" transform="translate(-182.449 -62.697)" fill="#7e4836"/><path d="M245.588,184.53h-.014l-5.134-.28a.251.251,0,0,1-.237-.25V146.248a.251.251,0,0,1,.251-.251h4.931v-7.815a.251.251,0,0,1,.251-.251h10.657v-8.165a.254.254,0,0,1,.011-.075l14.966-47.647a.251.251,0,0,1,.239-.176h3.558a.251.251,0,0,1,.244.31l-15.756,65.057a.251.251,0,0,1-.339.173l-9.177-3.769-4.2,40.666a.251.251,0,0,1-.249.225m-4.884-.768,4.659.254,4.211-40.762a.251.251,0,0,1,.345-.206l9.217,3.786L274.748,82.37h-3.055l-14.9,47.435v8.377a.251.251,0,0,1-.251.251H245.886v7.815a.251.251,0,0,1-.251.251H240.7Z" transform="translate(-181.671 -61.919)" fill="#2e186b"/><path d="M346.3,1.03l-18.3,19.949,22.872,2.287Z" transform="translate(-248.079 -0.779)" fill="#2e186b"/><path d="M350.1,22.739h-.025L327.2,20.45a.251.251,0,0,1-.16-.419L345.34.082a.251.251,0,0,1,.431.119l4.574,22.236a.251.251,0,0,1-.246.3M327.751,20l22.034,2.2L345.378.782Z" transform="translate(-247.301 -0.001)" fill="#2e186b"/><path d="M149.453,474.355c.015-.225.026-.451.026-.68a9.885,9.885,0,0,0-14.181-8.9,8.643,8.643,0,0,0-13.225-2.91,8.444,8.444,0,0,0-2.218-.29,8.6,8.6,0,0,0-3.312.656,10.056,10.056,0,0,0-18.792,4.1,8.127,8.127,0,0,0-1.049-.067,8.638,8.638,0,0,0-8.618,8.09Z" transform="translate(-66.62 -345.714)" fill="#665f7f"/><path d="M149.48,473.673c0,.23-.009.455-.025.68H149.4a9.882,9.882,0,0,0-14.1-7.61,8.641,8.641,0,0,0-13.225-2.91,8.361,8.361,0,0,0-2.218-.292,8.6,8.6,0,0,0-3.312.658,10.056,10.056,0,0,0-18.792,4.1,8.022,8.022,0,0,0-1.049-.068,8.633,8.633,0,0,0-8.26,6.121h-.357a8.635,8.635,0,0,1,8.617-8.089,8.033,8.033,0,0,1,1.049.067,10.056,10.056,0,0,1,18.792-4.1,8.591,8.591,0,0,1,3.312-.658,8.363,8.363,0,0,1,2.218.292,8.641,8.641,0,0,1,13.225,2.91,9.882,9.882,0,0,1,14.181,8.9" transform="translate(-66.622 -345.714)" fill="#fff"/><path d="M148.675,473.827H87.306a.251.251,0,0,1-.25-.267,8.906,8.906,0,0,1,8.868-8.324c.276,0,.552.013.823.04a10.307,10.307,0,0,1,19.126-4.138,8.827,8.827,0,0,1,3.2-.593,8.726,8.726,0,0,1,2.16.266,8.894,8.894,0,0,1,13.4,2.854,10.024,10.024,0,0,1,4.185-.9A10.145,10.145,0,0,1,148.951,472.9c0,.211-.008.433-.027.7a.25.25,0,0,1-.25.234m-61.1-.5h60.862c.008-.154.011-.294.011-.429a9.643,9.643,0,0,0-9.631-9.632,9.525,9.525,0,0,0-4.189.957.251.251,0,0,1-.335-.116,8.392,8.392,0,0,0-12.842-2.826.252.252,0,0,1-.225.048,8.2,8.2,0,0,0-2.152-.281,8.318,8.318,0,0,0-3.216.637.251.251,0,0,1-.315-.109,9.806,9.806,0,0,0-18.323,4,.25.25,0,0,1-.282.229,7.949,7.949,0,0,0-1.017-.065,8.4,8.4,0,0,0-8.346,7.588" transform="translate(-65.842 -344.935)" fill="#2e186b"/><path d="M221.59,82.9l-15.756,65.057-9.488-3.9-4.236,41-18.636-1.016,16.6-52.181,11.351,3.9,16.6-52.859Z" transform="translate(-131.203 -62.697)" fill="#cdbeff"/><path d="M221.592,82.893l-.183.751h-1.69l-16.6,52.858-11.353-3.9-16.4,51.537-1.892-.1,16.6-52.181,11.353,3.9,16.6-52.861Z" transform="translate(-131.205 -62.694)" fill="#fff"/><path d="M191.332,184.531h-.014l-18.636-1.016a.251.251,0,0,1-.225-.327l16.6-52.181a.251.251,0,0,1,.32-.161l11.107,3.813,16.526-52.613a.251.251,0,0,1,.239-.175h3.558a.25.25,0,0,1,.243.31L205.3,147.236a.25.25,0,0,1-.339.173l-9.177-3.769-4.2,40.666a.251.251,0,0,1-.249.225m-18.3-1.5,18.074.986,4.211-40.762a.25.25,0,0,1,.345-.206l9.218,3.785L220.492,82.37h-3.055l-16.548,52.683a.25.25,0,0,1-.126.149.253.253,0,0,1-.195.013L189.46,131.4Z" transform="translate(-130.424 -61.92)" fill="#2e186b"/><path d="M187.779,486.006a6.616,6.616,0,0,0-6.325-.315,5.78,5.78,0,0,0-8.845-1.946,5.644,5.644,0,0,0-1.483-.194,5.752,5.752,0,0,0-2.215.439,6.725,6.725,0,0,0-12.567,2.743" transform="translate(-118.247 -363.457)" fill="#665f7f"/><path d="M155.566,486.205h-.02a.251.251,0,0,1-.23-.27,6.976,6.976,0,0,1,12.925-3.035,6.055,6.055,0,0,1,3.532-.207,6.031,6.031,0,0,1,9.016,1.892,6.871,6.871,0,0,1,6.343.43.251.251,0,1,1-.262.428,6.365,6.365,0,0,0-6.085-.3.251.251,0,0,1-.335-.116,5.529,5.529,0,0,0-8.461-1.862.251.251,0,0,1-.224.048,5.393,5.393,0,0,0-1.418-.185,5.481,5.481,0,0,0-2.118.42.251.251,0,0,1-.315-.109,6.474,6.474,0,0,0-12.1,2.64.251.251,0,0,1-.25.231" transform="translate(-117.468 -362.679)" fill="#2e186b"/><path d="M333.954,1.03l-18.3,19.949,22.872,2.287Z" transform="translate(-238.739 -0.779)" fill="#cdbeff"/><path d="M334.371,3.074,317.753,21.191l-2.1-.211,18.3-19.948Z" transform="translate(-238.738 -0.781)" fill="#fff"/><path d="M337.751,22.739h-.025L314.854,20.45a.251.251,0,0,1-.16-.419l18.3-19.95a.251.251,0,0,1,.431.119L338,22.437a.251.251,0,0,1-.246.3M315.4,20l22.034,2.2L333.029.782Z" transform="translate(-237.961 -0.001)" fill="#2e186b"/><rect width="7.386" height="17.316" transform="translate(48.701 33.066)" fill="#9654ff"/><rect width="7.386" height="24.682" transform="translate(34.607 25.7)" fill="#9654ff"/><rect width="7.39" height="11.385" transform="translate(20.513 38.997)" fill="#9654ff"/><rect width="7.39" height="38.599" transform="translate(62.792 11.783)" fill="#9654ff"/><rect width="7.386" height="11.073" transform="translate(48.701 39.309)" fill="#ff7af1"/><rect width="7.386" height="15.783" transform="translate(34.607 34.599)" fill="#ff7af1"/><rect width="7.39" height="7.28" transform="translate(20.513 43.102)" fill="#ff7af1"/><rect width="7.39" height="32.041" transform="translate(62.792 18.341)" fill="#ff7af1"/><path d="M136.891,282.742l-.753-.166a.71.71,0,0,1-.523-.51,8.739,8.739,0,0,0-.812-1.947.713.713,0,0,1,.008-.729l.417-.665a.593.593,0,0,0-.075-.729l-1.541-1.541a.594.594,0,0,0-.729-.075l-.657.414a.713.713,0,0,1-.732.01,8.691,8.691,0,0,0-1.944-.8.713.713,0,0,1-.513-.523l-.171-.761a.577.577,0,0,0-.569-.454h-2.192a.58.58,0,0,0-.566.454l-.174.761a.713.713,0,0,1-.513.523,8.587,8.587,0,0,0-1.936.8.736.736,0,0,1-.284.087v2.138H119.75V291H123.7v1.387a8.455,8.455,0,0,0,1.162.42.714.714,0,0,1,.51.526l.168.753a.586.586,0,0,0,.571.462H128.3a.585.585,0,0,0,.569-.462l.166-.753a.716.716,0,0,1,.512-.526,8.584,8.584,0,0,0,1.941-.8.711.711,0,0,1,.734.008l.662.419a.582.582,0,0,0,.724-.08l1.546-1.546a.589.589,0,0,0,.075-.726l-.414-.657a.706.706,0,0,1-.008-.732,8.711,8.711,0,0,0,.809-1.941.7.7,0,0,1,.526-.513l.751-.168a.577.577,0,0,0,.454-.563v-2.2a.58.58,0,0,0-.454-.566m-9.688,6.093a4.429,4.429,0,1,1,4.427-4.43,4.431,4.431,0,0,1-4.427,4.43" transform="translate(-90.57 -207.433)" fill="#2e186b"/><path d="M127.519,294.023h-2.187a.841.841,0,0,1-.816-.659l-.168-.752a.463.463,0,0,0-.334-.339,8.726,8.726,0,0,1-1.195-.431.251.251,0,0,1-.149-.229v-1.137h-3.7a.251.251,0,0,1-.251-.251V278.251a.251.251,0,0,1,.251-.251H121.6v-1.887a.251.251,0,0,1,.222-.249.488.488,0,0,0,.188-.056,8.852,8.852,0,0,1,1.993-.825.463.463,0,0,0,.336-.338l.174-.761a.835.835,0,0,1,.81-.649h2.192a.831.831,0,0,1,.814.654l.17.757a.462.462,0,0,0,.334.336,8.952,8.952,0,0,1,2,.827.459.459,0,0,0,.475,0l.657-.414a.845.845,0,0,1,1.035.105l1.546,1.546a.846.846,0,0,1,.109,1.042l-.415.663a.466.466,0,0,0,0,.474,9,9,0,0,1,.834,2,.46.46,0,0,0,.338.333l.751.165h0a.835.835,0,0,1,.65.81v2.2a.824.824,0,0,1-.65.808l-.75.168a.456.456,0,0,0-.339.334,8.959,8.959,0,0,1-.833,2,.457.457,0,0,0,0,.473l.415.658a.838.838,0,0,1-.106,1.034l-1.55,1.55a.837.837,0,0,1-1.036.114l-.661-.419a.462.462,0,0,0-.476,0,8.888,8.888,0,0,1-2,.828.468.468,0,0,0-.335.34l-.165.751a.834.834,0,0,1-.814.659m-4.348-2.576a8.015,8.015,0,0,0,.978.343.964.964,0,0,1,.688.714l.168.752a.337.337,0,0,0,.327.266h2.187a.336.336,0,0,0,.323-.262l.166-.756a.971.971,0,0,1,.69-.714,8.37,8.37,0,0,0,1.886-.78.963.963,0,0,1,.992.014l.663.42a.334.334,0,0,0,.412-.046l1.546-1.546a.337.337,0,0,0,.041-.414l-.415-.658a.956.956,0,0,1-.014-.99,8.449,8.449,0,0,0,.786-1.885.954.954,0,0,1,.715-.69l.748-.168a.326.326,0,0,0,.258-.319v-2.2a.331.331,0,0,0-.257-.321l-.753-.166a.961.961,0,0,1-.711-.689,8.5,8.5,0,0,0-.788-1.889.967.967,0,0,1,.014-.985l.416-.665a.344.344,0,0,0-.044-.424l-1.536-1.536a.342.342,0,0,0-.417-.041l-.658.415a.966.966,0,0,1-.988.017,8.449,8.449,0,0,0-1.889-.781.961.961,0,0,1-.69-.709l-.171-.762a.328.328,0,0,0-.324-.258h-2.192a.331.331,0,0,0-.321.257l-.174.762a.962.962,0,0,1-.691.71,8.337,8.337,0,0,0-1.878.777.88.88,0,0,1-.157.07v1.937a.251.251,0,0,1-.251.251h-2.633v11.472h3.7a.251.251,0,0,1,.251.251Zm3.253-3.138a4.679,4.679,0,1,1,4.678-4.681,4.686,4.686,0,0,1-4.678,4.681m0-8.857a4.178,4.178,0,1,0,4.176,4.177,4.182,4.182,0,0,0-4.176-4.177" transform="translate(-89.791 -206.655)" fill="#2e186b"/><path d="M122.026,282.742l-.753-.166a.71.71,0,0,1-.523-.51,8.74,8.74,0,0,0-.812-1.947.713.713,0,0,1,.008-.729l.417-.665a.594.594,0,0,0-.075-.729l-1.541-1.541a.594.594,0,0,0-.729-.075l-.657.414a.712.712,0,0,1-.732.01,8.7,8.7,0,0,0-1.944-.8.714.714,0,0,1-.513-.523l-.171-.761a.577.577,0,0,0-.569-.454h-2.192a.58.58,0,0,0-.566.454l-.173.761a.713.713,0,0,1-.513.523,8.586,8.586,0,0,0-1.936.8.706.706,0,0,1-.732-.008l-.657-.414a.594.594,0,0,0-.729.075L104.394,278a.6.6,0,0,0-.08.737l.414.646a.71.71,0,0,1,.011.737,8.615,8.615,0,0,0-.806,1.946.712.712,0,0,1-.526.513l-.756.168a.58.58,0,0,0-.457.566V285.5a.591.591,0,0,0,.462.577l.75.166a.7.7,0,0,1,.526.513,8.433,8.433,0,0,0,.8,1.939.7.7,0,0,1-.008.737l-.416.654a.59.59,0,0,0,.083.726l1.541,1.543a.6.6,0,0,0,.729.083l.657-.419a.712.712,0,0,1,.734-.011,8.681,8.681,0,0,0,1.941.807.713.713,0,0,1,.51.526l.168.753a.586.586,0,0,0,.571.462h2.187a.585.585,0,0,0,.569-.462l.166-.753a.717.717,0,0,1,.512-.526,8.6,8.6,0,0,0,1.941-.8.711.711,0,0,1,.734.008l.662.419a.582.582,0,0,0,.724-.08l1.546-1.546a.589.589,0,0,0,.075-.726l-.414-.657a.706.706,0,0,1-.008-.732,8.706,8.706,0,0,0,.809-1.941.7.7,0,0,1,.526-.513l.75-.168a.578.578,0,0,0,.454-.564v-2.2a.58.58,0,0,0-.454-.566m-9.688,6.093a4.429,4.429,0,1,1,4.427-4.43,4.431,4.431,0,0,1-4.427,4.43" transform="translate(-77.292 -207.433)" fill="#fff"/><path d="M112.655,294.023h-2.187a.841.841,0,0,1-.816-.659l-.168-.752a.462.462,0,0,0-.334-.339,8.934,8.934,0,0,1-2-.829.462.462,0,0,0-.476,0l-.657.419a.845.845,0,0,1-1.036-.112l-1.546-1.548a.84.84,0,0,1-.117-1.038l.416-.654a.454.454,0,0,0,0-.476,8.721,8.721,0,0,1-.829-2,.455.455,0,0,0-.337-.334l-.752-.166a.839.839,0,0,1-.659-.821v-2.185a.826.826,0,0,1,.654-.811l.755-.168a.462.462,0,0,0,.338-.334,8.9,8.9,0,0,1,.83-2,.456.456,0,0,0,0-.478l-.414-.646a.847.847,0,0,1,.113-1.048l1.542-1.542a.846.846,0,0,1,1.041-.109l.655.414a.457.457,0,0,0,.474,0,8.854,8.854,0,0,1,1.993-.825.462.462,0,0,0,.335-.338l.173-.761a.836.836,0,0,1,.811-.649h2.192a.831.831,0,0,1,.814.653l.17.757a.463.463,0,0,0,.334.337,8.933,8.933,0,0,1,2,.827.46.46,0,0,0,.475,0l.657-.414a.844.844,0,0,1,1.035.105l1.546,1.546a.846.846,0,0,1,.109,1.041l-.415.663a.465.465,0,0,0,0,.474,9.008,9.008,0,0,1,.834,2,.461.461,0,0,0,.338.333l.751.165h0a.836.836,0,0,1,.65.811v2.2a.824.824,0,0,1-.65.808l-.75.168a.455.455,0,0,0-.339.334,8.979,8.979,0,0,1-.833,2,.457.457,0,0,0,0,.473l.415.658a.838.838,0,0,1-.106,1.034l-1.55,1.55a.837.837,0,0,1-1.036.114l-.661-.419a.462.462,0,0,0-.476,0,8.9,8.9,0,0,1-2,.828.469.469,0,0,0-.335.34l-.165.751a.834.834,0,0,1-.814.659m-5.741-3.146a.991.991,0,0,1,.486.129,8.422,8.422,0,0,0,1.885.783.964.964,0,0,1,.688.714l.168.752a.333.333,0,0,0,.327.266h2.187a.336.336,0,0,0,.323-.262l.166-.756a.971.971,0,0,1,.69-.714,8.373,8.373,0,0,0,1.886-.78.963.963,0,0,1,.992.014l.662.42a.333.333,0,0,0,.413-.046l1.546-1.546a.337.337,0,0,0,.041-.414l-.415-.658a.957.957,0,0,1-.014-.99,8.465,8.465,0,0,0,.786-1.885.953.953,0,0,1,.714-.69l.748-.168a.325.325,0,0,0,.258-.319v-2.2a.331.331,0,0,0-.257-.321l-.753-.165a.962.962,0,0,1-.711-.689,8.505,8.505,0,0,0-.788-1.889.967.967,0,0,1,.014-.985l.416-.665a.344.344,0,0,0-.044-.423l-1.536-1.536a.342.342,0,0,0-.417-.041l-.658.415a.966.966,0,0,1-.988.018,8.426,8.426,0,0,0-1.889-.781.963.963,0,0,1-.69-.709l-.171-.762a.329.329,0,0,0-.324-.258h-2.192a.331.331,0,0,0-.321.257l-.174.762a.963.963,0,0,1-.691.709,8.344,8.344,0,0,0-1.879.778.956.956,0,0,1-.99-.015l-.656-.413a.344.344,0,0,0-.423.045l-1.536,1.536a.345.345,0,0,0-.045.427l.412.644a.963.963,0,0,1,.018,1,8.4,8.4,0,0,0-.783,1.891.963.963,0,0,1-.712.69l-.757.168a.328.328,0,0,0-.26.321v2.185a.34.34,0,0,0,.267.332l.749.165a.954.954,0,0,1,.714.692,8.19,8.19,0,0,0,.78,1.88.952.952,0,0,1-.015,1l-.416.653a.34.34,0,0,0,.052.418l1.537,1.54a.343.343,0,0,0,.416.049l.657-.419a.938.938,0,0,1,.506-.147m4.646-2.569a4.679,4.679,0,1,1,4.678-4.681,4.686,4.686,0,0,1-4.678,4.681m0-8.857a4.178,4.178,0,1,0,4.177,4.176,4.182,4.182,0,0,0-4.177-4.176" transform="translate(-76.514 -206.655)" fill="#2e186b"/><path d="M443.7,129.5a4.146,4.146,0,0,1,4.149-4.145V118.39a11.1,11.1,0,0,0-10.683,14.141l6.695-1.9a4.155,4.155,0,0,1-.161-1.134" transform="translate(-330.318 -89.541)" fill="#ff926d"/><path d="M493.425,129.5a11.108,11.108,0,0,0-11.106-11.106v6.961a4.144,4.144,0,0,1,2.2,7.659l3.694,5.9a11.1,11.1,0,0,0,5.213-9.412" transform="translate(-364.789 -89.541)" fill="#6b9c7d"/><path d="M449.16,171.637a4.146,4.146,0,0,1-3.988-3.015l-6.7,1.9a11.1,11.1,0,0,0,16.576,6.378L451.36,171a4.127,4.127,0,0,1-2.2.635" transform="translate(-331.631 -127.533)" fill="#7e682a"/></g></g></g></svg>