<svg xmlns="http://www.w3.org/2000/svg" xmlns:xlink="http://www.w3.org/1999/xlink" width="117.399" height="116.013" viewBox="0 0 117.399 116.013"><defs><clipPath id="a"><rect width="117.399" height="116.013" fill="none"/></clipPath></defs><g clip-path="url(#a)"><path d="M292.726,108.728c.139-.1.278-.206.423-.3a31.8,31.8,0,0,0-18.012-58.074c-.963,0-1.917.051-2.86.139v104.47h25.646s4.257-9.54-3.55-8.787a6.694,6.694,0,0,0-3.483,1.332c-1.893,1.51-6.206,4.187-9.113.148a5.943,5.943,0,0,1-1.126-4.107A29.023,29.023,0,0,1,282,136.867q2.2-.2,4.388-.514a2.884,2.884,0,0,0,2.474-2.853v-4.746a20.641,20.641,0,0,1,12.236,10.182,1.388,1.388,0,0,0,2.618-.507,34.337,34.337,0,0,0-10.986-29.7" transform="translate(-211.842 -39.175)" fill="#b1654b"/><path d="M297.122,154.388H271.476a.228.228,0,0,1-.228-.228V49.69a.228.228,0,0,1,.207-.227c.968-.091,1.937-.138,2.881-.14h.085a32.033,32.033,0,0,1,18.056,58.491c-.066.045-.131.09-.2.136a34.557,34.557,0,0,1,10.857,29.7,1.6,1.6,0,0,1-1.316,1.44,1.586,1.586,0,0,1-1.732-.851,20.406,20.406,0,0,0-11.8-9.968V132.7a3.13,3.13,0,0,1-2.669,3.079c-1.4.2-2.834.374-4.254.5a29.566,29.566,0,0,0-1.287,6.485,5.735,5.735,0,0,0,1.084,3.952,4.481,4.481,0,0,0,3.039,1.994c2.23.307,4.557-1.239,5.747-2.187a6.917,6.917,0,0,1,3.6-1.38c2.016-.195,3.44.268,4.236,1.374,1.828,2.541-.361,7.522-.455,7.733a.229.229,0,0,1-.209.135m-25.417-.457h25.266c.334-.81,1.962-5.036.444-7.145-.695-.965-1.98-1.363-3.82-1.186a6.458,6.458,0,0,0-3.363,1.283c-1.247.994-3.7,2.613-6.094,2.282a4.92,4.92,0,0,1-3.347-2.179,6.188,6.188,0,0,1-1.168-4.262,29.02,29.02,0,0,1,1.36-6.734.228.228,0,0,1,.195-.15c1.459-.129,2.931-.3,4.375-.513a2.671,2.671,0,0,0,2.278-2.627v-4.746a.228.228,0,0,1,.3-.216A20.9,20.9,0,0,1,300.5,138.032a1.125,1.125,0,0,0,1.241.612,1.156,1.156,0,0,0,.946-1.038A34.134,34.134,0,0,0,291.77,108.1a.228.228,0,0,1,.018-.349c.142-.107.285-.21.431-.31a31.576,31.576,0,0,0-17.8-57.657h-.084c-.863,0-1.747.043-2.632.119Z" transform="translate(-211.042 -38.375)" fill="#2e186b"/><path d="M160.571,314.21c-16.531-1.088-23.315,6.38-26.027,11.643a1.388,1.388,0,0,1-2.617-.507C129.288,299.921,151.2,289.77,151.2,289.77Z" transform="translate(-102.473 -225.453)" fill="#d6f3e1"/><path d="M133.015,326.578a1.376,1.376,0,0,1-1.09-1.231c-2.64-25.425,19.273-35.575,19.273-35.575l.58,1.514c-3.281,1.722-21.143,12.205-18.763,35.292" transform="translate(-102.472 -225.454)" fill="#fff"/><path d="M269.418,311.338c16.531-1.088,23.315,6.38,26.027,11.643a1.388,1.388,0,0,0,2.617-.507C300.7,297.049,278.79,286.9,278.79,286.9Z" transform="translate(-209.619 -223.219)" fill="#d6f3e1"/><path d="M329.02,322.476a1.4,1.4,0,0,1-1.8,1.2,1.441,1.441,0,0,0,.1-.4c2.267-21.865-13.618-32.433-18.112-34.964l.54-1.411s21.912,10.151,19.273,35.575" transform="translate(-240.576 -223.221)" fill="#fff"/><path d="M132.537,326.037a1.668,1.668,0,0,1-.312-.03,1.6,1.6,0,0,1-1.316-1.439,34.59,34.59,0,0,1,8.7-27.5,37.536,37.536,0,0,1,10.7-8.308.228.228,0,0,1,.309.125l9.372,24.44a.228.228,0,0,1-.228.31c-16.726-1.1-23.349,6.745-25.809,11.52a1.586,1.586,0,0,1-1.42.881m17.749-36.753a37.718,37.718,0,0,0-10.345,8.1,34.145,34.145,0,0,0-8.577,27.132,1.157,1.157,0,0,0,.946,1.038,1.126,1.126,0,0,0,1.241-.612,20.174,20.174,0,0,1,7.92-8.3c4.71-2.743,10.754-3.918,17.97-3.493Z" transform="translate(-101.683 -224.652)" fill="#2e186b"/><path d="M295.861,323.165a1.586,1.586,0,0,1-1.419-.88c-2.461-4.775-9.087-12.621-25.81-11.52a.228.228,0,0,1-.228-.31l9.372-24.44a.228.228,0,0,1,.309-.125,37.536,37.536,0,0,1,10.7,8.308,34.59,34.59,0,0,1,8.7,27.5,1.6,1.6,0,0,1-1.316,1.44,1.7,1.7,0,0,1-.312.03M271.775,310.2c5.984,0,11.07,1.2,15.153,3.577a20.171,20.171,0,0,1,7.92,8.3,1.126,1.126,0,0,0,1.241.612,1.157,1.157,0,0,0,.946-1.039,34.144,34.144,0,0,0-8.577-27.132,37.722,37.722,0,0,0-10.345-8.1l-9.155,23.874q1.44-.085,2.817-.085" transform="translate(-208.818 -222.418)" fill="#2e186b"/><path d="M190.438,82.155a31.77,31.77,0,0,1-13.875,26.269,13.289,13.289,0,0,0-5.743,10.291l-.45,8.68H146.9l-.45-8.674A13.135,13.135,0,0,0,140.81,108.5a31.8,31.8,0,1,1,49.627-26.341" transform="translate(-98.682 -39.174)" fill="#fff"/><path d="M149.28,118.719l.451,8.674H146.9l-.45-8.674a13.128,13.128,0,0,0-5.64-10.226,31.807,31.807,0,0,1,17.739-58.148q.754,0,1.5.033a31.807,31.807,0,0,0-16.406,58.115,13.129,13.129,0,0,1,5.64,10.226" transform="translate(-98.681 -39.17)" fill="#cdbeff"/><path d="M169.569,126.823H146.1a.228.228,0,0,1-.228-.217l-.45-8.674a12.953,12.953,0,0,0-5.541-10.048,31.872,31.872,0,0,1-14.044-28.017,31.527,31.527,0,0,1,2.349-10.612.228.228,0,1,1,.422.174,31.072,31.072,0,0,0-2.315,10.459,31.418,31.418,0,0,0,13.844,27.618,13.412,13.412,0,0,1,5.741,10.4l.439,8.457h23.035l.439-8.463a13.59,13.59,0,0,1,5.841-10.468,31.577,31.577,0,0,0-17.8-57.658h-.082a31.822,31.822,0,0,0-25.1,12.6.228.228,0,1,1-.364-.276,32.281,32.281,0,0,1,25.463-12.78h.083a32.034,32.034,0,0,1,18.059,58.492,13.13,13.13,0,0,0-5.643,10.114l-.45,8.68a.229.229,0,0,1-.228.217" transform="translate(-97.881 -38.373)" fill="#2e186b"/><path d="M269.308,10.506a.228.228,0,0,1-.228-.228V5.514a.228.228,0,1,1,.457,0v4.763a.228.228,0,0,1-.228.228" transform="translate(-209.356 -4.113)" fill="#2e186b"/><path d="M175.848,35.549a.228.228,0,0,1-.2-.114l-2.382-4.125a.228.228,0,1,1,.4-.228l2.382,4.125a.228.228,0,0,1-.2.342" transform="translate(-134.786 -24.093)" fill="#2e186b"/><path d="M107.43,103.966a.228.228,0,0,1-.114-.031l-4.125-2.382a.228.228,0,1,1,.228-.4l4.125,2.382a.228.228,0,0,1-.115.426" transform="translate(-80.198 -78.681)" fill="#2e186b"/><path d="M416.726,103.966a.228.228,0,0,1-.115-.426l4.125-2.382a.228.228,0,1,1,.228.4l-4.125,2.382a.228.228,0,0,1-.114.031" transform="translate(-324.052 -78.681)" fill="#2e186b"/><path d="M354.419,35.549a.228.228,0,0,1-.2-.342l2.382-4.125a.228.228,0,1,1,.4.228l-2.382,4.125a.228.228,0,0,1-.2.114" transform="translate(-275.575 -24.093)" fill="#2e186b"/><path d="M264.683,238.041a.228.228,0,0,1-.228-.228v-4.64c.314-5.4,3.243-10.466,5.645-13.767a22.282,22.282,0,0,0,4.186-12.275c.2-6.17-1.684-9.692-5.6-10.469-3.006-.6-6.113.848-8.182,3.781,2.208,3.3,3.063,7.187,2.079,9.522a2.442,2.442,0,0,1-4.5.323c-1.011-1.668-1.514-4.722,1.836-9.8l.055-.082a.227.227,0,0,1,.1-.186.236.236,0,0,1,.046-.025c2.175-3.093,5.462-4.613,8.655-3.98,2.863.568,6.223,2.926,5.964,10.932a22.742,22.742,0,0,1-4.274,12.529c-2.366,3.252-5.25,8.236-5.558,13.511v4.627a.228.228,0,0,1-.228.228m-4.452-37.188c-3.136,4.81-2.687,7.655-1.752,9.2a1.988,1.988,0,0,0,3.686-.263c.912-2.165.116-5.8-1.935-8.935" transform="translate(-200.214 -152.553)" fill="#2e186b"/><path d="M214.462,238.04a.228.228,0,0,1-.228-.228v-4.64c-.307-5.263-3.192-10.246-5.558-13.5a22.742,22.742,0,0,1-4.273-12.529c-.258-8.006,3.1-10.363,5.964-10.932,3.291-.653,6.685.984,8.854,4.273a.228.228,0,1,1-.381.252c-2.065-3.131-5.278-4.693-8.384-4.077-3.913.776-5.8,4.3-5.6,10.469a22.28,22.28,0,0,0,4.186,12.275c2.4,3.3,5.331,8.367,5.645,13.754v4.653a.228.228,0,0,1-.228.228" transform="translate(-159.023 -152.552)" fill="#2e186b"/><path d="M172.855,445.051h-56.92l.76-5.319a6.288,6.288,0,0,1,2.565-4.092c3.952-2.985,8.031-.839,10.052.636a7.533,7.533,0,0,0,6.286.889c7.838-2.374,11.984-13.965,11.984-13.965l10.858.909c-1.916,2.324-2.617,6.963-2.856,9.53a5.946,5.946,0,0,0,1.126,4.107c2.908,4.038,7.219,1.361,9.112-.149a6.7,6.7,0,0,1,3.483-1.331c7.808-.755,3.55,8.786,3.55,8.786" transform="translate(-90.202 -329.267)" fill="#fff"/><path d="M172.855,445.051h-56.92l.76-5.319a6.288,6.288,0,0,1,2.565-4.092c3.952-2.985,8.031-.839,10.052.636a7.533,7.533,0,0,0,6.286.889c7.838-2.374,11.984-13.965,11.984-13.965l10.858.909c-1.916,2.324-2.617,6.963-2.856,9.53a5.946,5.946,0,0,0,1.126,4.107c2.908,4.038,7.219,1.361,9.112-.149a6.7,6.7,0,0,1,3.483-1.331c7.808-.755,3.55,8.786,3.55,8.786" transform="translate(-90.202 -329.267)" fill="#fff"/><path d="M157.34,425.951l-9.755-.818S143.439,436.724,135.6,439.1a7.528,7.528,0,0,1-6.286-.888c-2.021-1.476-6.1-3.62-10.052-.635a6.293,6.293,0,0,0-2.565,4.091l-.484,3.39h-.276l.761-5.319a6.292,6.292,0,0,1,2.565-4.093c3.951-2.983,8.031-.838,10.052.637a7.536,7.536,0,0,0,6.286.889c7.839-2.373,11.984-13.965,11.984-13.965l10.858.909a8.2,8.2,0,0,0-1.1,1.839" transform="translate(-90.204 -329.27)" fill="#ff926d"/><path d="M312.835,482.969c-.267-1.788-1.439-3.214-4.643-2.9a6.692,6.692,0,0,0-3.483,1.329c-1.894,1.51-6.206,4.187-9.113.151a5.956,5.956,0,0,1-1.126-4.109c.014-.137.028-.279.044-.425a6.017,6.017,0,0,0,1.082,2.6c2.908,4.038,7.22,1.361,9.113-.148a6.7,6.7,0,0,1,3.483-1.332c4.314-.416,4.945,2.311,4.643,4.835" transform="translate(-229.088 -371.135)" fill="#ff926d"/><path d="M172.055,444.478h-56.92a.228.228,0,0,1-.226-.261l.761-5.319a6.484,6.484,0,0,1,2.653-4.242c4.044-3.054,8.2-.914,10.325.633a7.321,7.321,0,0,0,6.085.855c7.639-2.314,11.794-13.709,11.835-13.824a.228.228,0,0,1,.234-.151l10.858.909a.229.229,0,0,1,.157.373c-1.893,2.3-2.57,6.879-2.8,9.406a5.737,5.737,0,0,0,1.084,3.952,4.481,4.481,0,0,0,3.038,1.993c2.227.308,4.557-1.239,5.747-2.187a6.923,6.923,0,0,1,3.6-1.38c2.015-.2,3.44.267,4.236,1.373,1.828,2.54-.362,7.522-.456,7.733a.229.229,0,0,1-.209.135m-56.656-.457H171.9c.335-.809,1.963-5.035.444-7.145-.694-.964-1.979-1.363-3.821-1.185a6.461,6.461,0,0,0-3.362,1.282c-1.247.994-3.7,2.612-6.093,2.282a4.92,4.92,0,0,1-3.347-2.178,6.19,6.19,0,0,1-1.168-4.262c.229-2.462.874-6.844,2.648-9.316l-10.267-.859c-.558,1.486-4.633,11.689-12.071,13.942a7.8,7.8,0,0,1-6.488-.923c-2.018-1.472-5.972-3.514-9.78-.638a6.038,6.038,0,0,0-2.477,3.942Z" transform="translate(-89.402 -328.465)" fill="#2e186b"/><path d="M248.3,415.392c0,3.329-3.9,6.027-8.7,6.027s-8.7-2.7-8.7-6.027,3.9-6.027,8.7-6.027,8.7,2.7,8.7,6.027" transform="translate(-179.646 -318.503)" fill="#2e186b"/><path d="M238.8,420.848c-4.926,0-8.933-2.806-8.933-6.256s4.007-6.255,8.933-6.255,8.933,2.806,8.933,6.255-4.007,6.256-8.933,6.256m0-12.054c-4.674,0-8.476,2.6-8.476,5.8s3.8,5.8,8.476,5.8,8.477-2.6,8.477-5.8-3.8-5.8-8.477-5.8" transform="translate(-178.846 -317.703)" fill="#2e186b"/><path d="M235.952,376.366v8.555a2.881,2.881,0,0,1-2.471,2.852,77.025,77.025,0,0,1-22.328,0,2.881,2.881,0,0,1-2.471-2.852v-8.555a2.878,2.878,0,0,1,3.274-2.845,76.777,76.777,0,0,0,20.722,0,2.878,2.878,0,0,1,3.274,2.845" transform="translate(-162.363 -290.595)" fill="#ffd256"/><path d="M235.95,376.366V377.7a2.876,2.876,0,0,0-3.274-2.845,76.8,76.8,0,0,1-20.724,0,2.877,2.877,0,0,0-3.274,2.845v-1.338a2.878,2.878,0,0,1,3.274-2.845,76.805,76.805,0,0,0,20.724,0,2.878,2.878,0,0,1,3.274,2.845" transform="translate(-162.36 -290.595)" fill="#fff"/><path d="M221.516,388.015a77.235,77.235,0,0,1-11.2-.816,3.126,3.126,0,0,1-2.667-3.078v-8.555a3.092,3.092,0,0,1,1.056-2.328,3.127,3.127,0,0,1,2.477-.743,76.51,76.51,0,0,0,20.661,0,3.127,3.127,0,0,1,2.478.743,3.092,3.092,0,0,1,1.056,2.328v8.555a3.126,3.126,0,0,1-2.667,3.078,77.223,77.223,0,0,1-11.2.816m-10.75-15.092a2.669,2.669,0,0,0-1.757.658,2.636,2.636,0,0,0-.9,1.984v8.555a2.668,2.668,0,0,0,2.276,2.626,76.729,76.729,0,0,0,22.262,0,2.668,2.668,0,0,0,2.276-2.626v-8.555a2.635,2.635,0,0,0-.9-1.984,2.671,2.671,0,0,0-2.116-.635,76.952,76.952,0,0,1-20.784,0,2.734,2.734,0,0,0-.358-.024" transform="translate(-161.562 -289.795)" fill="#2e186b"/><path d="M221.752,416.129a71.143,71.143,0,0,1-13.916-1.4.228.228,0,0,1,.089-.448,66.887,66.887,0,0,0,27.179,0,.228.228,0,0,1,.1.447,64.278,64.278,0,0,1-13.447,1.4" transform="translate(-161.562 -322.321)" fill="#2e186b"/><rect width="24.496" height="21.932" transform="translate(4.157 57.311)" fill="#7e4836"/><path d="M42.422,279.565h-24.5a.228.228,0,0,1-.228-.228V257.405a.228.228,0,0,1,.228-.228h24.5a.228.228,0,0,1,.228.228v21.931a.228.228,0,0,1-.228.228m-24.267-.457H42.193V257.634H18.155Z" transform="translate(-13.77 -200.095)" fill="#2e186b"/><rect width="24.495" height="21.932" transform="translate(1.663 57.311)" fill="#fff"/><path d="M31.186,279.565H6.688a.229.229,0,0,1-.228-.228V264.888a.228.228,0,1,1,.457,0v14.221h24.04V257.633H6.917V260.1a.228.228,0,1,1-.457,0V257.4a.229.229,0,0,1,.228-.229h24.5a.229.229,0,0,1,.228.229v21.932a.229.229,0,0,1-.228.228" transform="translate(-5.026 -200.094)" fill="#2e186b"/><path d="M93.922,312.635v4.689a.668.668,0,0,1-.668.668H91.432a.668.668,0,0,1-.668-.668v-4.689a.668.668,0,0,1,.668-.668h1.822a.668.668,0,0,1,.668.668" transform="translate(-70.618 -242.723)" fill="#b1923b"/><path d="M70.452,288.506v10.045a.668.668,0,0,1-.668.668H67.96a.668.668,0,0,1-.668-.668V288.506a.668.668,0,0,1,.668-.668h1.824a.668.668,0,0,1,.668.668" transform="translate(-52.356 -223.95)" fill="#b1923b"/><path d="M23.514,298.895v7.739a.669.669,0,0,1-.67.668H21.022a.668.668,0,0,1-.668-.668v-7.739a.668.668,0,0,1,.668-.668h1.822a.669.669,0,0,1,.67.668" transform="translate(-15.836 -232.033)" fill="#b1923b"/><path d="M46.984,276.776v12.648a.668.668,0,0,1-.668.668H44.494a.668.668,0,0,1-.668-.668V276.776a.668.668,0,0,1,.668-.668h1.822a.668.668,0,0,1,.668.668" transform="translate(-34.098 -214.824)" fill="#b1923b"/><path d="M93.922,329.061V330.1a.668.668,0,0,1-.668.668H91.432a.668.668,0,0,1-.668-.668v-1.044a.668.668,0,0,1,.668-.668h1.822a.668.668,0,0,1,.668.668" transform="translate(-70.618 -255.504)" fill="#ffd256"/><path d="M70.452,304.93v6.4a.668.668,0,0,1-.668.668H67.96a.668.668,0,0,1-.668-.668v-6.4a.668.668,0,0,1,.668-.668h1.824a.668.668,0,0,1,.668.668" transform="translate(-52.356 -236.729)" fill="#ffd256"/><path d="M23.514,315.319v4.093a.669.669,0,0,1-.67.668H21.022a.668.668,0,0,1-.668-.668v-4.093a.668.668,0,0,1,.668-.668h1.822a.669.669,0,0,1,.67.668" transform="translate(-15.836 -244.812)" fill="#ffd256"/><path d="M46.984,293.2v9a.668.668,0,0,1-.668.668H44.494a.668.668,0,0,1-.668-.668v-9a.668.668,0,0,1,.668-.668h1.822a.668.668,0,0,1,.668.668" transform="translate(-34.098 -227.603)" fill="#ffd256"/><path d="M404.075,168.67a16.713,16.713,0,1,1-16.713-16.713,16.713,16.713,0,0,1,16.713,16.713" transform="translate(-288.38 -118.229)" fill="#665f7f"/><path d="M386.562,184.811A16.942,16.942,0,1,1,403.5,167.87a16.961,16.961,0,0,1-16.942,16.942m0-33.426a16.485,16.485,0,1,0,16.485,16.485,16.5,16.5,0,0,0-16.485-16.485" transform="translate(-287.58 -117.428)" fill="#2e186b"/><path d="M392.768,168.67a16.713,16.713,0,1,1-16.713-16.713,16.713,16.713,0,0,1,16.713,16.713" transform="translate(-279.583 -118.229)" fill="#cdbeff"/><path d="M388.353,157.357A16.712,16.712,0,0,0,364.74,180.97a16.712,16.712,0,1,1,23.613-23.613" transform="translate(-279.582 -118.229)" fill="#fff"/><path d="M388.623,194.366a13.128,13.128,0,1,1,13.128-13.128,13.143,13.143,0,0,1-13.128,13.128" transform="translate(-292.151 -130.797)" fill="#fff"/><path d="M398.224,172.294a13.121,13.121,0,0,0-18.531,18.558,13.122,13.122,0,1,1,18.531-18.558" transform="translate(-292.15 -130.797)" fill="#7e4836"/><path d="M401.191,203.349a9.542,9.542,0,1,1,9.542-9.542,9.553,9.553,0,0,1-9.542,9.542" transform="translate(-304.719 -143.365)" fill="#ff7af1"/><path d="M401.191,203.349a9.542,9.542,0,1,1,9.542-9.542,9.553,9.553,0,0,1-9.542,9.542" transform="translate(-304.719 -143.365)" fill="#ebe5ff"/><path d="M408.267,187.415A9.536,9.536,0,0,0,394.8,200.884a9.537,9.537,0,1,1,13.469-13.469" transform="translate(-304.718 -143.365)" fill="#fff"/><path d="M413.759,212.331a5.957,5.957,0,1,1,5.957-5.957,5.964,5.964,0,0,1-5.957,5.957" transform="translate(-317.287 -155.933)" fill="#fff"/><path d="M418.16,202.364a5.955,5.955,0,0,0-8.139,8.648,5.956,5.956,0,1,1,8.139-8.648" transform="translate(-317.286 -155.933)" fill="#7e4836"/><path d="M387.821,193.793a13.357,13.357,0,0,1-3.62-26.214.228.228,0,0,1,.124.44,12.9,12.9,0,1,0,3.5-.481c-.253,0-.511.007-.764.022a.228.228,0,1,1-.027-.456c.262-.015.528-.023.791-.023a13.356,13.356,0,1,1,0,26.712" transform="translate(-291.349 -129.996)" fill="#2e186b"/><path d="M400.39,202.776A9.771,9.771,0,1,1,410.161,193a9.782,9.782,0,0,1-9.771,9.771m0-19.085A9.314,9.314,0,1,0,409.7,193a9.325,9.325,0,0,0-9.314-9.314" transform="translate(-303.918 -142.564)" fill="#2e186b"/><path d="M412.958,211.759a6.185,6.185,0,1,1,6.186-6.186,6.192,6.192,0,0,1-6.186,6.186m0-11.914a5.729,5.729,0,1,0,5.729,5.729,5.735,5.735,0,0,0-5.729-5.729" transform="translate(-316.486 -155.132)" fill="#2e186b"/><path d="M375.254,184.811a16.961,16.961,0,0,1-16.942-16.942.228.228,0,0,1,.457,0,16.466,16.466,0,1,0,.394-3.6.228.228,0,0,1-.446-.1,16.943,16.943,0,1,1,16.537,20.638" transform="translate(-278.782 -117.428)" fill="#2e186b"/><path d="M433.67,163.7a.228.228,0,0,1-.159-.393l18.5-17.9a.228.228,0,0,1,.318.328l-18.5,17.9a.228.228,0,0,1-.159.064" transform="translate(-337.236 -113.078)" fill="#2e186b"/><path d="M506.738,144.879l-1.763,1.654a.265.265,0,0,1-.192.072l-1.866-.061a.27.27,0,0,1-.261-.278l.061-1.866a.269.269,0,0,1,.084-.188l1.763-1.652a.27.27,0,0,1,.455.2l-.044,1.327a.27.27,0,0,0,.261.278l1.327.044a.268.268,0,0,1,.176.465" transform="translate(-391.087 -110.86)" fill="#2e186b"/><path d="M503.994,146.035h-.021l-1.864-.06a.5.5,0,0,1-.482-.512l.061-1.868a.5.5,0,0,1,.152-.344l1.766-1.656a.5.5,0,0,1,.84.377L504.4,143.3a.046.046,0,0,0,.039.042l1.329.044a.5.5,0,0,1,.324.86l-1.763,1.654a.494.494,0,0,1-.337.134m-.047-4.119a.04.04,0,0,0-.028.012l-1.763,1.652a.042.042,0,0,0-.012.025l-.061,1.87a.041.041,0,0,0,.039.042l1.867.061a.049.049,0,0,0,.027-.01l1.764-1.655h0a.037.037,0,0,0,.011-.045.036.036,0,0,0-.037-.026l-1.328-.044a.492.492,0,0,1-.347-.157.5.5,0,0,1-.135-.356l.044-1.328a.039.039,0,0,0-.025-.038.046.046,0,0,0-.018,0" transform="translate(-390.287 -110.061)" fill="#2e186b"/><path d="M435.472,219.807h-.01l-1.911-.086a.228.228,0,0,1-.218-.238l.086-1.911a.233.233,0,0,1,.238-.218.228.228,0,0,1,.218.238l-.075,1.684,1.683.076a.228.228,0,0,1-.01.456" transform="translate(-337.151 -169.11)" fill="#2e186b"/><path d="M39.527,403.213l-.674-.148a.635.635,0,0,1-.468-.456,7.83,7.83,0,0,0-.726-1.742.638.638,0,0,1,.007-.652l.373-.595a.531.531,0,0,0-.067-.652l-1.379-1.379a.531.531,0,0,0-.652-.067l-.588.37a.637.637,0,0,1-.655.01,7.777,7.777,0,0,0-1.739-.719.638.638,0,0,1-.459-.468l-.153-.681a.517.517,0,0,0-.509-.406H29.876a.519.519,0,0,0-.507.406l-.155.681a.638.638,0,0,1-.459.468,7.68,7.68,0,0,0-1.733.717.631.631,0,0,1-.655-.007l-.588-.37a.531.531,0,0,0-.652.067l-1.379,1.379a.535.535,0,0,0-.072.659l.371.578a.636.636,0,0,1,.01.66,7.7,7.7,0,0,0-.722,1.742.638.638,0,0,1-.471.459l-.676.15a.519.519,0,0,0-.409.507v1.955a.529.529,0,0,0,.414.516l.671.148a.63.63,0,0,1,.471.459,7.562,7.562,0,0,0,.719,1.735.63.63,0,0,1-.007.659l-.373.586a.528.528,0,0,0,.074.65l1.379,1.381a.532.532,0,0,0,.652.074l.588-.375a.636.636,0,0,1,.657-.01,7.768,7.768,0,0,0,1.737.722.638.638,0,0,1,.456.471l.151.674a.524.524,0,0,0,.511.413h1.957a.523.523,0,0,0,.509-.413l.148-.674a.642.642,0,0,1,.459-.471,7.691,7.691,0,0,0,1.737-.719.636.636,0,0,1,.657.007l.592.375a.52.52,0,0,0,.648-.072l1.384-1.383a.528.528,0,0,0,.067-.65l-.371-.588a.632.632,0,0,1-.007-.655,7.793,7.793,0,0,0,.724-1.737.63.63,0,0,1,.471-.459l.671-.151a.517.517,0,0,0,.406-.5v-1.967a.519.519,0,0,0-.406-.507m-8.669,5.1a3.61,3.61,0,1,1,3.609-3.611,3.612,3.612,0,0,1-3.609,3.611" transform="translate(-16.946 -307.814)" fill="#fff"/><path d="M31.036,413.208H29.079a.757.757,0,0,1-.735-.593l-.15-.673a.411.411,0,0,0-.3-.3,7.985,7.985,0,0,1-1.787-.742.409.409,0,0,0-.422,0l-.588.375a.76.76,0,0,1-.932-.1l-1.383-1.386a.757.757,0,0,1-.1-.934l.372-.585a.4.4,0,0,0,0-.422,7.777,7.777,0,0,1-.742-1.789.4.4,0,0,0-.3-.3l-.673-.148a.755.755,0,0,1-.593-.739v-1.955a.744.744,0,0,1,.588-.73l.676-.15a.411.411,0,0,0,.3-.3,7.965,7.965,0,0,1,.743-1.795.4.4,0,0,0,0-.423l-.37-.578a.761.761,0,0,1,.1-.943l1.379-1.38a.761.761,0,0,1,.937-.1l.587.37a.4.4,0,0,0,.42,0,7.914,7.914,0,0,1,1.785-.739.41.41,0,0,0,.3-.3l.155-.681a.752.752,0,0,1,.73-.584h1.962a.748.748,0,0,1,.733.588l.152.678a.409.409,0,0,0,.3.3,8.007,8.007,0,0,1,1.792.741.407.407,0,0,0,.421,0l.588-.371a.76.76,0,0,1,.931.095l1.383,1.383a.761.761,0,0,1,.1.937l-.372.593a.413.413,0,0,0,0,.42,8.047,8.047,0,0,1,.747,1.792.41.41,0,0,0,.3.3l.672.148h0a.752.752,0,0,1,.585.729v1.967a.741.741,0,0,1-.585.727l-.671.15a.4.4,0,0,0-.3.3,8.016,8.016,0,0,1-.746,1.79.4.4,0,0,0,0,.419l.371.589a.754.754,0,0,1-.1.93l-1.387,1.387a.753.753,0,0,1-.932.1l-.592-.374a.41.41,0,0,0-.422,0,7.95,7.95,0,0,1-1.789.741.415.415,0,0,0-.3.3l-.148.672a.75.75,0,0,1-.732.593M25.9,410.385a.892.892,0,0,1,.437.116,7.545,7.545,0,0,0,1.686.7.867.867,0,0,1,.618.642l.15.673a.294.294,0,0,0,.289.235h1.957a.3.3,0,0,0,.285-.232l.149-.676a.873.873,0,0,1,.62-.641,7.5,7.5,0,0,0,1.686-.7.865.865,0,0,1,.891.013l.593.375a.294.294,0,0,0,.364-.04l1.383-1.384a.3.3,0,0,0,.036-.365l-.371-.589a.859.859,0,0,1-.012-.889,7.589,7.589,0,0,0,.7-1.686.856.856,0,0,1,.642-.62l.67-.15a.287.287,0,0,0,.228-.281v-1.967a.292.292,0,0,0-.227-.283L38,402.488a.865.865,0,0,1-.64-.619,7.6,7.6,0,0,0-.7-1.69.869.869,0,0,1,.012-.886l.373-.595a.3.3,0,0,0-.039-.374L35.63,396.95a.3.3,0,0,0-.368-.036l-.589.371a.869.869,0,0,1-.888.016,7.562,7.562,0,0,0-1.689-.7.865.865,0,0,1-.621-.637l-.153-.682a.29.29,0,0,0-.286-.228H29.075a.293.293,0,0,0-.284.227l-.155.682a.866.866,0,0,1-.621.638,7.464,7.464,0,0,0-1.68.7.86.86,0,0,1-.89-.014l-.586-.37a.3.3,0,0,0-.374.039l-1.374,1.375a.3.3,0,0,0-.04.377l.369.576a.866.866,0,0,1,.016.895,7.5,7.5,0,0,0-.7,1.691.865.865,0,0,1-.64.62l-.677.151a.289.289,0,0,0-.23.283v1.955a.3.3,0,0,0,.236.293l.67.148a.858.858,0,0,1,.642.622,7.338,7.338,0,0,0,.7,1.681.855.855,0,0,1-.014.9l-.372.585a.3.3,0,0,0,.046.369l1.375,1.378a.3.3,0,0,0,.368.043l.588-.375a.844.844,0,0,1,.455-.132m4.158-2.644a3.838,3.838,0,1,1,3.837-3.839,3.843,3.843,0,0,1-3.837,3.839m0-7.219a3.381,3.381,0,1,0,3.38,3.38,3.385,3.385,0,0,0-3.38-3.38" transform="translate(-16.144 -307.014)" fill="#2e186b"/><path d="M456.531,13.9l-.674-.148a.635.635,0,0,1-.468-.456,7.819,7.819,0,0,0-.726-1.742.638.638,0,0,1,.007-.652l.373-.595a.531.531,0,0,0-.067-.652L453.6,8.277a.531.531,0,0,0-.652-.067l-.588.37a.637.637,0,0,1-.655.01,7.777,7.777,0,0,0-1.739-.719A.638.638,0,0,1,449.5,7.4l-.153-.681a.517.517,0,0,0-.509-.406H446.88a.52.52,0,0,0-.507.406l-.155.681a.639.639,0,0,1-.459.468,7.685,7.685,0,0,0-1.733.717.631.631,0,0,1-.655-.007l-.588-.37a.531.531,0,0,0-.652.067l-1.379,1.379a.534.534,0,0,0-.072.659l.37.578a.635.635,0,0,1,.01.66,7.708,7.708,0,0,0-.722,1.742.638.638,0,0,1-.471.459l-.676.15a.519.519,0,0,0-.409.507v1.955a.529.529,0,0,0,.414.516l.671.148a.63.63,0,0,1,.471.459,7.552,7.552,0,0,0,.719,1.735.629.629,0,0,1-.007.659l-.373.586a.528.528,0,0,0,.074.65l1.379,1.381a.532.532,0,0,0,.652.074l.588-.375a.636.636,0,0,1,.657-.01,7.767,7.767,0,0,0,1.737.722.638.638,0,0,1,.456.471l.15.674a.524.524,0,0,0,.511.413h1.957a.523.523,0,0,0,.509-.413l.148-.674a.642.642,0,0,1,.459-.471,7.694,7.694,0,0,0,1.737-.719.636.636,0,0,1,.657.007l.593.375a.521.521,0,0,0,.648-.072l1.383-1.383a.527.527,0,0,0,.067-.65l-.37-.588a.632.632,0,0,1-.007-.655,7.791,7.791,0,0,0,.724-1.737.63.63,0,0,1,.471-.459l.672-.15a.517.517,0,0,0,.406-.5V14.408a.519.519,0,0,0-.406-.507M447.862,19a3.61,3.61,0,1,1,3.609-3.611A3.612,3.612,0,0,1,447.862,19" transform="translate(-341.392 -4.913)" fill="#fff"/><path d="M448.042,23.9h-1.957a.757.757,0,0,1-.734-.593l-.15-.673a.411.411,0,0,0-.3-.3,7.983,7.983,0,0,1-1.787-.742.41.41,0,0,0-.422,0l-.588.375a.76.76,0,0,1-.932-.1l-1.383-1.385a.757.757,0,0,1-.1-.935l.372-.585a.4.4,0,0,0,0-.422,7.808,7.808,0,0,1-.742-1.789.4.4,0,0,0-.3-.3l-.673-.148a.755.755,0,0,1-.592-.739V13.611a.743.743,0,0,1,.588-.73l.676-.15a.41.41,0,0,0,.3-.3,7.961,7.961,0,0,1,.743-1.795.405.405,0,0,0,0-.423l-.371-.579a.761.761,0,0,1,.1-.943l1.38-1.38a.761.761,0,0,1,.937-.1l.587.37a.4.4,0,0,0,.42,0,7.922,7.922,0,0,1,1.785-.739.41.41,0,0,0,.3-.3l.155-.681a.752.752,0,0,1,.729-.584h1.962a.747.747,0,0,1,.732.588l.152.677a.41.41,0,0,0,.3.3,8,8,0,0,1,1.791.74.408.408,0,0,0,.421,0l.588-.371a.759.759,0,0,1,.931.094l1.383,1.383a.761.761,0,0,1,.1.937l-.372.593a.413.413,0,0,0,0,.42,8.059,8.059,0,0,1,.747,1.792.409.409,0,0,0,.3.3l.672.148h0a.752.752,0,0,1,.585.729v1.967a.741.741,0,0,1-.585.727l-.671.15a.4.4,0,0,0-.3.3,8.014,8.014,0,0,1-.746,1.79.4.4,0,0,0,0,.419l.371.589a.755.755,0,0,1-.1.93l-1.387,1.387a.753.753,0,0,1-.932.1l-.592-.374a.41.41,0,0,0-.422,0,7.941,7.941,0,0,1-1.789.741.41.41,0,0,0-.3.3l-.148.672a.75.75,0,0,1-.732.593M442.9,21.074a.891.891,0,0,1,.437.116,7.537,7.537,0,0,0,1.686.7.867.867,0,0,1,.619.642l.15.673a.3.3,0,0,0,.288.235h1.957a.3.3,0,0,0,.285-.232l.149-.676a.873.873,0,0,1,.62-.642,7.5,7.5,0,0,0,1.687-.7.865.865,0,0,1,.891.013l.593.375a.294.294,0,0,0,.364-.04l1.383-1.383a.3.3,0,0,0,.036-.366l-.371-.589a.861.861,0,0,1-.012-.89,7.561,7.561,0,0,0,.7-1.686.857.857,0,0,1,.642-.621l.67-.15a.288.288,0,0,0,.228-.281V13.609a.292.292,0,0,0-.227-.283l-.674-.148a.864.864,0,0,1-.639-.619,7.611,7.611,0,0,0-.705-1.69.87.87,0,0,1,.012-.886l.373-.595a.3.3,0,0,0-.039-.374l-1.374-1.374a.3.3,0,0,0-.368-.036l-.589.371a.87.87,0,0,1-.888.016,7.554,7.554,0,0,0-1.689-.7.866.866,0,0,1-.62-.637l-.153-.682a.29.29,0,0,0-.286-.228H446.08a.292.292,0,0,0-.284.227l-.155.682a.866.866,0,0,1-.621.638,7.468,7.468,0,0,0-1.68.7.859.859,0,0,1-.89-.013l-.587-.37a.3.3,0,0,0-.374.04l-1.374,1.375a.3.3,0,0,0-.039.377l.369.576a.866.866,0,0,1,.016.895,7.508,7.508,0,0,0-.7,1.691.865.865,0,0,1-.64.62l-.677.151a.289.289,0,0,0-.23.284v1.955a.3.3,0,0,0,.236.293l.67.148a.858.858,0,0,1,.642.622,7.341,7.341,0,0,0,.7,1.681.856.856,0,0,1-.013.9l-.372.585a.3.3,0,0,0,.046.369l1.376,1.378a.3.3,0,0,0,.368.043l.588-.375a.845.845,0,0,1,.455-.132m4.158-2.644a3.838,3.838,0,1,1,3.837-3.839,3.844,3.844,0,0,1-3.837,3.839m0-7.219a3.381,3.381,0,1,0,3.38,3.38,3.385,3.385,0,0,0-3.38-3.38" transform="translate(-340.593 -4.114)" fill="#2e186b"/><path d="M20.776,1.029a8.586,8.586,0,0,1,7.427,12.9H22.76v4.046A8.587,8.587,0,1,1,20.776,1.029" transform="translate(15.413 21.652)" fill="#7e4836"/><path d="M19.976,17.63A8.816,8.816,0,1,1,27.6,13.239a.228.228,0,0,1-.2.114H22.189V17.17a.228.228,0,0,1-.176.222,8.837,8.837,0,0,1-2.037.238m0-17.173a8.358,8.358,0,1,0,1.756,16.531V13.124a.228.228,0,0,1,.228-.228h5.31A8.358,8.358,0,0,0,19.976.457" transform="translate(15.756 22.681)" fill="#2e186b"/><path d="M19.143,9.616a8.589,8.589,0,0,0,11.621,8.034,2.245,2.245,0,1,0,3.61-2.595A8.586,8.586,0,1,0,19.143,9.616" transform="translate(10.002 21.652)" fill="#fff"/><path d="M31.945,18.281a2.458,2.458,0,0,1-2.084-1.151,8.819,8.819,0,1,1,4.01-2.882,2.473,2.473,0,0,1-1.484,3.993,2.519,2.519,0,0,1-.442.04m-1.982-1.66a.228.228,0,0,1,.2.123,2.016,2.016,0,1,0,3.242-2.331.228.228,0,0,1-.012-.3,8.348,8.348,0,1,0-3.514,2.526.23.23,0,0,1,.081-.015" transform="translate(10.346 22.68)" fill="#2e186b"/><path d="M46.969,28.366,43.033,32.3a1.216,1.216,0,0,1-1.719,0L39.423,30.41a1.214,1.214,0,0,1,1.717-1.717l1.034,1.032,3.076-3.076a1.215,1.215,0,0,1,1.719,1.717" transform="translate(-5.499 1.996)" fill="#ffd256"/><path d="M4.664,521.078H.228a.228.228,0,1,1,0-.457H4.664a.228.228,0,1,1,0,.457" transform="translate(0 -405.065)" fill="#2e186b"/><path d="M152.851,521.078H60.031a.228.228,0,0,1,0-.457h92.82a.228.228,0,0,1,0,.457" transform="translate(-46.529 -405.065)" fill="#2e186b"/><path d="M508.1,521.078h-5.42a.228.228,0,0,1,0-.457h5.42a.228.228,0,0,1,0,.457" transform="translate(-390.927 -405.065)" fill="#2e186b"/><path d="M26.67,182.1a.228.228,0,0,1-.163-.388l6.184-6.315a.228.228,0,0,1,.326.32l-6.184,6.315a.227.227,0,0,1-.163.069" transform="translate(-20.573 -136.412)" fill="#2e186b"/><path d="M29.041,205.518a.228.228,0,0,1-.16-.392l3.421-3.355a.228.228,0,0,1,.32.326L29.2,205.453a.229.229,0,0,1-.16.065" transform="translate(-22.418 -156.936)" fill="#2e186b"/><path d="M456.386,431.013a.228.228,0,0,1-.161-.39l4.473-4.473a.228.228,0,1,1,.323.323l-4.473,4.474a.229.229,0,0,1-.162.067" transform="translate(-354.91 -331.51)" fill="#2e186b"/><path d="M458.164,431.107a.228.228,0,0,1-.16-.392l8.026-7.828a.228.228,0,1,1,.319.327l-8.026,7.829a.228.228,0,0,1-.16.065" transform="translate(-356.293 -328.973)" fill="#2e186b"/><path d="M344.886,342.138c-1.551,2.179-3.121,3.722-3.507,3.448s.56-2.263,2.111-4.442,3.121-3.722,3.507-3.448-.56,2.263-2.111,4.442" transform="translate(-265.54 -262.717)" fill="#fff"/><path d="M250.362,383.069c-1.551,2.179-3.121,3.722-3.507,3.448s.559-2.263,2.11-4.442,3.121-3.722,3.507-3.448-.56,2.263-2.111,4.442" transform="translate(-191.996 -294.563)" fill="#fff"/><path d="M221.752,394.17a71.144,71.144,0,0,1-13.916-1.4.228.228,0,1,1,.089-.448,66.891,66.891,0,0,0,27.179,0,.228.228,0,0,1,.1.447,64.28,64.28,0,0,1-13.447,1.4" transform="translate(-161.562 -305.237)" fill="#2e186b"/><path d="M249.177,478.572c-1.551,2.179-3.121,3.722-3.507,3.448s.559-2.263,2.111-4.442,3.121-3.722,3.507-3.448-.56,2.263-2.111,4.442" transform="translate(-191.074 -368.869)" fill="#ff926d"/></g></svg>