<svg xmlns="http://www.w3.org/2000/svg" xmlns:xlink="http://www.w3.org/1999/xlink" width="102" height="102" viewBox="0 0 102 102"><defs><filter id="a" x="0" y="0" width="102" height="102" filterUnits="userSpaceOnUse"><feOffset dy="3" input="SourceAlpha"/><feGaussianBlur stdDeviation="3" result="b"/><feFlood flood-opacity="0.161"/><feComposite operator="in" in2="b"/><feComposite in="SourceGraphic"/></filter></defs><g transform="translate(-172 -4147)"><g transform="translate(-942.333 4054)"><g transform="matrix(1, 0, 0, 1, 1114.33, 93)" filter="url(#a)"><g transform="translate(9 6)" fill="#ebf9f0" stroke="#fff" stroke-width="4"><circle cx="42" cy="42" r="42" stroke="none"/><circle cx="42" cy="42" r="40" fill="none"/></g></g></g><g transform="translate(192.798 4165.108)"><g transform="translate(2.202 2.127)"><g transform="translate(10.99 9.982)"><path d="M39.053,31.518h-.438a2.273,2.273,0,0,1-2.27-2.27V26.27A2.273,2.273,0,0,1,38.615,24h.438a2.273,2.273,0,0,1,2.27,2.27v2.978A2.273,2.273,0,0,1,39.053,31.518Zm-.438-5.693a.445.445,0,0,0-.445.444v2.978a.446.446,0,0,0,.445.445h.438a.445.445,0,0,0,.444-.445V26.27a.445.445,0,0,0-.444-.444Z" transform="translate(-31.754 -24)" fill="#665f7f"/><path d="M71.136,31.518H70.7a2.273,2.273,0,0,1-2.27-2.27V26.27A2.273,2.273,0,0,1,70.7,24h.438a2.273,2.273,0,0,1,2.27,2.27v2.978A2.273,2.273,0,0,1,71.136,31.518ZM70.7,25.825a.445.445,0,0,0-.444.444v2.978a.445.445,0,0,0,.444.445h.438a.446.446,0,0,0,.445-.445V26.27a.445.445,0,0,0-.445-.444Z" transform="translate(-49.196 -24)" fill="#665f7f"/><path d="M54.173,38.229H27.2a.913.913,0,0,1-.913-.913V32.331a2.361,2.361,0,0,1,2.377-2.339h3.127a.913.913,0,1,1,0,1.825H28.662a.534.534,0,0,0-.551.513V36.4h25.15V32.331a.534.534,0,0,0-.551-.513H49.582a.913.913,0,0,1,0-1.825h3.127a2.361,2.361,0,0,1,2.377,2.339v4.986A.913.913,0,0,1,54.173,38.229Z" transform="translate(-26.285 -27.258)" fill="#665f7f"/><path d="M55.655,31.817H44.167a.913.913,0,0,1,0-1.825H55.655a.913.913,0,0,1,0,1.825Z" transform="translate(-35.51 -27.258)" fill="#665f7f"/><path d="M48.517,65.711H28.662a2.361,2.361,0,0,1-2.377-2.339V44.955a.913.913,0,0,1,.913-.913H54.173a.913.913,0,0,1,.913.913v8.922a.913.913,0,0,1-1.825,0V45.867H28.11v17.5a.534.534,0,0,0,.551.513H48.517a.913.913,0,0,1,0,1.825Z" transform="translate(-26.285 -34.896)" fill="#665f7f"/><path d="M86.31,71.356a.913.913,0,0,1-.913-.913V70a.913.913,0,0,1,1.825,0v.439A.913.913,0,0,1,86.31,71.356Z" transform="translate(-58.421 -48.514)" fill="#665f7f"/><g transform="translate(3.166 12.759)"><path d="M56.337,58.18H51.983a.913.913,0,0,1-.913-.913v-4.4a.913.913,0,0,1,.913-.913h4.354a.913.913,0,0,1,.913.913v4.4A.913.913,0,0,1,56.337,58.18ZM52.9,56.354h2.529V53.783H52.9Z" transform="translate(-42.926 -51.958)" fill="#665f7f"/><path d="M74.185,58.18H69.831a.913.913,0,0,1-.913-.913v-4.4a.913.913,0,0,1,.913-.913h4.354a.913.913,0,0,1,.913.913v4.4A.913.913,0,0,1,74.185,58.18Zm-3.442-1.825h2.529V53.783H70.743Z" transform="translate(-52.629 -51.958)" fill="#665f7f"/><path d="M38.49,58.18H34.136a.913.913,0,0,1-.913-.913v-4.4a.913.913,0,0,1,.913-.913H38.49a.913.913,0,0,1,.913.913v4.4A.913.913,0,0,1,38.49,58.18Zm-3.442-1.825h2.529V53.783H35.048Z" transform="translate(-33.223 -51.958)" fill="#665f7f"/><g transform="translate(0 8.222)"><path d="M56.337,76.2H51.983a.913.913,0,0,1-.913-.913v-4.4a.913.913,0,0,1,.913-.913h4.354a.913.913,0,0,1,.913.913v4.4A.912.912,0,0,1,56.337,76.2ZM52.9,74.372h2.529V71.8H52.9Z" transform="translate(-42.926 -69.976)" fill="#665f7f"/><path d="M38.49,76.2H34.136a.913.913,0,0,1-.913-.913v-4.4a.913.913,0,0,1,.913-.913H38.49a.913.913,0,0,1,.913.913v4.4A.913.913,0,0,1,38.49,76.2Zm-3.442-1.825h2.529V71.8H35.048Z" transform="translate(-33.223 -69.976)" fill="#665f7f"/></g><path d="M72.976,76.2H69.831a.913.913,0,0,1-.913-.913v-4.4a.913.913,0,0,1,.913-.913h4.354a.913.913,0,0,1,.913.913v3.285a.913.913,0,0,1-.913.913.9.9,0,0,1-.334-.063.914.914,0,0,1-.875,1.174Zm-2.233-1.825h2.233a.9.9,0,0,1,.334.063.914.914,0,0,1-.038-.261V71.8H70.743Z" transform="translate(-52.629 -61.754)" fill="#665f7f"/></g><g transform="translate(21.32 23.297)"><path d="M79.554,88.262a6.606,6.606,0,1,1,6.551-6.606A6.586,6.586,0,0,1,79.554,88.262Zm0-11.385a4.78,4.78,0,1,0,4.726,4.779A4.758,4.758,0,0,0,79.554,76.877Z" transform="translate(-73.003 -75.051)" fill="#665f7f"/><g transform="translate(4.14 3.046)"><path d="M85.575,83.726v2.647l-1.5,1.793" transform="translate(-83.164 -82.813)" fill="#665f7f"/><path d="M82.988,87.992a.913.913,0,0,1-.7-1.5l1.286-1.54V82.639a.913.913,0,0,1,1.825,0v2.647a.911.911,0,0,1-.212.585l-1.5,1.794a.911.911,0,0,1-.7.327Z" transform="translate(-82.076 -81.726)" fill="#665f7f"/></g></g></g><g transform="translate(0 0)"><path d="M6.022,90.523a.984.984,0,0,1-.158-.013.913.913,0,0,1-.742-1.056l1.007-5.772a.913.913,0,0,1,1.324-.651l5.227,2.744a.913.913,0,1,1-.848,1.616L7.713,85.228l-.792,4.539A.913.913,0,0,1,6.022,90.523Z" transform="translate(-3.782 -46.053)" fill="#665f7f"/><path d="M33.462,91.051A28.027,28.027,0,0,1,7.372,72.623a.913.913,0,1,1,1.713-.631A26.194,26.194,0,0,0,33.462,89.225c14.357,0,26.037-11.932,26.037-26.6a.913.913,0,0,1,1.825,0C61.324,78.3,48.825,91.051,33.462,91.051Z" transform="translate(-4.982 -34.521)" fill="#665f7f"/><path d="M3.115,31.16a.913.913,0,0,1-.913-.913,28.642,28.642,0,0,1,.24-3.692.913.913,0,0,1,1.81.237,26.779,26.779,0,0,0-.225,3.456A.912.912,0,0,1,3.115,31.16Zm54.577,0a.913.913,0,0,1-.913-.913,26.6,26.6,0,0,0-.364-4.389.913.913,0,0,1,1.8-.3,28.474,28.474,0,0,1,.389,4.691A.913.913,0,0,1,57.692,31.16ZM4.317,23.134a.914.914,0,0,1-.873-1.182A28.127,28.127,0,0,1,5.2,17.583a.913.913,0,1,1,1.631.822A26.279,26.279,0,0,0,5.189,22.49a.914.914,0,0,1-.872.644Zm51.87-.929a.914.914,0,0,1-.862-.613,26.329,26.329,0,0,0-1.793-4.025.913.913,0,0,1,1.6-.88,28.115,28.115,0,0,1,1.917,4.3.914.914,0,0,1-.862,1.213ZM8.4,15.026a.913.913,0,0,1-.734-1.454,28.363,28.363,0,0,1,3.1-3.547.913.913,0,1,1,1.271,1.31,26.613,26.613,0,0,0-2.9,3.319.91.91,0,0,1-.735.372Zm43.405-.78a.91.91,0,0,1-.716-.346,26.62,26.62,0,0,0-3.014-3.213A.912.912,0,0,1,49.3,9.331a28.415,28.415,0,0,1,3.222,3.434.913.913,0,0,1-.715,1.48ZM14.926,8.7a.912.912,0,0,1-.518-1.664A28.21,28.21,0,0,1,18.5,4.7a.913.913,0,0,1,.771,1.654A26.423,26.423,0,0,0,15.443,8.54a.906.906,0,0,1-.517.161Zm30.138-.541a.913.913,0,0,1-.49-.143,26.383,26.383,0,0,0-3.9-2.049.913.913,0,1,1,.711-1.681,28.2,28.2,0,0,1,4.167,2.19.913.913,0,0,1-.491,1.682Zm-21.9-3.295a.913.913,0,0,1-.241-1.793,28.259,28.259,0,0,1,4.63-.861.913.913,0,0,1,.183,1.816,26.288,26.288,0,0,0-4.329.8.906.906,0,0,1-.242.033ZM36.7,4.624a.907.907,0,0,1-.211-.025,26.391,26.391,0,0,0-4.355-.649.913.913,0,0,1,.118-1.822,28.261,28.261,0,0,1,4.657.695.913.913,0,0,1-.209,1.8Z" transform="translate(-2.202 -2.127)" fill="#665f7f"/></g></g></g></g></svg>