<svg xmlns="http://www.w3.org/2000/svg" xmlns:xlink="http://www.w3.org/1999/xlink" width="102" height="102" viewBox="0 0 102 102"><defs><filter id="a" x="0" y="0" width="102" height="102" filterUnits="userSpaceOnUse"><feOffset dy="3" input="SourceAlpha"/><feGaussianBlur stdDeviation="3" result="b"/><feFlood flood-opacity="0.161"/><feComposite operator="in" in2="b"/><feComposite in="SourceGraphic"/></filter></defs><g transform="translate(-1012 -4147)"><g transform="translate(-102.333 4054)"><g transform="matrix(1, 0, 0, 1, 1114.33, 93)" filter="url(#a)"><g transform="translate(9 6)" fill="#ebf9f0" stroke="#fff" stroke-width="4"><circle cx="42" cy="42" r="42" stroke="none"/><circle cx="42" cy="42" r="40" fill="none"/></g></g></g><g transform="translate(1037.418 4149.754)"><g transform="translate(4.86 40.85)"><g transform="translate(0 0)"><path d="M58.947,197.163a8.534,8.534,0,0,0-5.578,14.809v.009l.253.216a8.528,8.528,0,0,0,11.057,0l.253-.216v-.009a8.534,8.534,0,0,0-5.987-14.809Zm4.546,14.143a7.122,7.122,0,0,1-.7.474v-3.449H61.358v4.106a7.049,7.049,0,0,1-4.412,0v-4.106H55.505v3.449a7.078,7.078,0,0,1-.7-.474v-3.46a1.73,1.73,0,0,1,1.728-1.728h.528l1.366,2.783v.84h1.441v-.84l1.366-2.783h.528a1.727,1.727,0,0,1,1.728,1.728v3.46Zm-4.342-6.629a2.09,2.09,0,1,1,2.09-2.09A2.092,2.092,0,0,1,59.151,204.678Zm.481,1.441-.481.981-.481-.981Zm5.3,3.687v-1.96a3.172,3.172,0,0,0-2.945-3.16,3.53,3.53,0,1,0-5.674,0,3.172,3.172,0,0,0-2.945,3.16v1.96a7.094,7.094,0,0,1,5.611-11.2l.171,0a7.093,7.093,0,0,1,5.782,11.2Z" transform="translate(-50.616 -197.161)" fill="#665f7f"/></g></g><g transform="translate(12.676 54.158)"><rect width="1.441" height="1.494" fill="#665f7f"/></g><g transform="translate(12.676 28.299)"><g transform="translate(0 0)"><rect width="1.441" height="3.872" fill="#665f7f"/></g></g><g transform="translate(18.879 31.406)"><g transform="translate(0 0)"><rect width="3.872" height="1.441" transform="translate(0 2.738) rotate(-45)" fill="#665f7f"/></g></g><g transform="translate(4.157 31.406)"><g transform="translate(0 0)"><rect width="1.441" height="3.872" transform="translate(0 1.019) rotate(-45)" fill="#665f7f"/></g></g><g transform="translate(31.482 56.691)"><path d="M333.1,362.142l-3.3,3.3-.914-.914-1.018,1.019,1.933,1.933,4.317-4.316Z" transform="translate(-327.867 -362.142)" fill="#665f7f"/></g><g transform="translate(0 35.989)"><g transform="translate(0 0)"><path d="M26.792,163.115v-6.349H24.737a11.666,11.666,0,0,0-1.078-2.6l1.454-1.454-4.489-4.489-1.454,1.454a11.682,11.682,0,0,0-2.6-1.078v-2.055H10.222V148.6a11.676,11.676,0,0,0-2.6,1.078l-1.454-1.454-4.489,4.489,1.454,1.454a11.67,11.67,0,0,0-1.078,2.6H0v6.349H2.055a11.677,11.677,0,0,0,1.078,2.6l-1.454,1.454,4.489,4.489L7.622,170.2a11.682,11.682,0,0,0,2.6,1.078v2.055h6.349v-2.055a11.676,11.676,0,0,0,2.6-1.078l1.454,1.454,4.489-4.489-1.454-1.454a11.671,11.671,0,0,0,1.078-2.6ZM23.6,161.674l-.127.561a10.248,10.248,0,0,1-1.33,3.207l-.307.487,1.239,1.239-2.452,2.452-1.239-1.239-.487.307a10.248,10.248,0,0,1-3.207,1.33l-.561.127V171.9H11.662v-1.751l-.561-.127a10.248,10.248,0,0,1-3.207-1.33l-.487-.307L6.168,169.62l-2.452-2.452,1.239-1.239-.307-.487a10.248,10.248,0,0,1-1.33-3.207l-.127-.561H1.441v-3.468H3.191l.127-.561a10.245,10.245,0,0,1,1.33-3.207l.307-.487-1.239-1.239,2.452-2.452L7.407,151.5l.487-.307a10.248,10.248,0,0,1,3.207-1.33l.561-.127v-1.751H15.13v1.751l.561.127a10.247,10.247,0,0,1,3.207,1.33l.487.307,1.239-1.239,2.452,2.452-1.239,1.239.307.487a10.246,10.246,0,0,1,1.33,3.207l.127.561h1.751v3.468H23.6Z" transform="translate(0 -146.544)" fill="#665f7f"/></g></g><g transform="translate(24.387 24.246)"><g transform="translate(0 0)"><path d="M278.753,39.613V33.655h-1.906a10.8,10.8,0,0,0-.964-2.325l1.348-1.348-4.213-4.213-1.348,1.348a10.8,10.8,0,0,0-2.325-.964V24.246h-5.959v1.906a10.8,10.8,0,0,0-2.325.964l-1.348-1.348L255.5,29.981l1.348,1.348a10.8,10.8,0,0,0-.964,2.325h-1.906v5.959h1.906a10.8,10.8,0,0,0,.964,2.325L255.5,43.287l4.213,4.213,1.348-1.348a10.8,10.8,0,0,0,2.325.964v1.906h5.959V47.116a10.8,10.8,0,0,0,2.325-.964l1.348,1.348,4.213-4.213-1.348-1.348a10.8,10.8,0,0,0,.964-2.325h1.906Zm-3.04-1.441h0l-.127.561a9.376,9.376,0,0,1-1.217,2.934l-.307.487,1.132,1.132-2.176,2.176-1.132-1.132-.487.307a9.379,9.379,0,0,1-2.934,1.217l-.561.127v1.6h-3.077v-1.6l-.561-.127a9.377,9.377,0,0,1-2.934-1.217l-.487-.307-1.132,1.132-2.176-2.176,1.132-1.132-.307-.487a9.378,9.378,0,0,1-1.217-2.934l-.127-.561h-1.6V35.1h1.6l.127-.561a9.378,9.378,0,0,1,1.217-2.934l.307-.487-1.132-1.132,2.176-2.176,1.132,1.132.487-.307a9.38,9.38,0,0,1,2.934-1.217l.561-.127v-1.6H267.9v1.6l.561.127A9.377,9.377,0,0,1,271.4,28.63l.487.307,1.132-1.132,2.176,2.176-1.132,1.132.307.487a9.381,9.381,0,0,1,1.217,2.934l.127.561h1.6v3.077h-1.6Z" transform="translate(-253.977 -24.246)" fill="#665f7f"/></g></g><g transform="translate(25.555 50.156)"><path d="M284.738,305.762V301H283.29a8.121,8.121,0,0,0-.616-1.485l1.025-1.025-3.367-3.367-1.025,1.025a8.13,8.13,0,0,0-1.485-.616v-1.449h-4.762v1.449a8.135,8.135,0,0,0-1.485.616l-1.025-1.025-3.367,3.367,1.025,1.025a8.133,8.133,0,0,0-.616,1.485h-1.449v4.762h1.449a8.13,8.13,0,0,0,.616,1.485l-1.025,1.025,3.367,3.367,1.025-1.025a8.132,8.132,0,0,0,1.485.616v1.449h4.762V311.23a8.125,8.125,0,0,0,1.485-.616l1.025,1.025,3.367-3.367-1.025-1.025a8.126,8.126,0,0,0,.616-1.485Zm-2.578-1.441-.127.561a6.7,6.7,0,0,1-.87,2.1l-.307.487.805.805-1.33,1.33-.805-.805-.487.307a6.7,6.7,0,0,1-2.1.87l-.561.127v1.138H274.5V310.1l-.561-.127a6.706,6.706,0,0,1-2.1-.87l-.487-.307-.805.805-1.33-1.33.805-.805-.307-.487a6.7,6.7,0,0,1-.87-2.1l-.127-.561h-1.138V302.44h1.138l.127-.561a6.7,6.7,0,0,1,.87-2.1l.307-.487-.805-.805,1.33-1.33.805.805.487-.307a6.7,6.7,0,0,1,2.1-.87l.561-.127v-1.138h1.881v1.138l.561.127a6.7,6.7,0,0,1,2.1.87l.487.307.805-.805,1.33,1.33-.805.805.307.487a6.7,6.7,0,0,1,.87,2.1l.127.561H283.3v1.881H282.16Z" transform="translate(-266.142 -294.082)" fill="#665f7f"/></g><g transform="translate(14.827 62.2)"><path d="M160.211,419.511a14.542,14.542,0,0,1-5.793,1.737l.12,1.435a15.969,15.969,0,0,0,6.364-1.908Z" transform="translate(-154.418 -419.511)" fill="#665f7f"/></g><g transform="translate(21.476 60.817)"><path d="M224.888,405.109a14.834,14.834,0,0,1-1.233.878l.774,1.215a16.265,16.265,0,0,0,1.353-.963Z" transform="translate(-223.655 -405.109)" fill="#665f7f"/></g><g transform="translate(28.852 28.711)"><g transform="translate(0 0)"><path d="M308.4,70.741a7.923,7.923,0,1,0,7.923,7.923A7.932,7.932,0,0,0,308.4,70.741Zm0,14.406a6.483,6.483,0,1,1,6.483-6.483A6.49,6.49,0,0,1,308.4,85.147Z" transform="translate(-300.472 -70.741)" fill="#665f7f"/></g></g><g transform="translate(29.583 54.184)"><path d="M313.353,336.025a5.271,5.271,0,1,0,5.271,5.271A5.277,5.277,0,0,0,313.353,336.025Zm0,9.1a3.83,3.83,0,1,1,3.83-3.83A3.835,3.835,0,0,1,313.353,345.126Z" transform="translate(-308.082 -336.025)" fill="#665f7f"/></g><g transform="translate(33.408 31.19)"><path d="M354.466,102.907a1.986,1.986,0,0,0-.546-.69,3.075,3.075,0,0,0-.864-.48q-.51-.192-1.134-.36l-.02,0V99.257q.094.018.188.042a4.688,4.688,0,0,1,.69.234,3.736,3.736,0,0,1,.54.282,2.062,2.062,0,0,1,.306.228l.732-1.344a6.172,6.172,0,0,0-1.32-.666,4.482,4.482,0,0,0-1.136-.256V96.565H350.68v1.242a3.81,3.81,0,0,0-.512.118,3.017,3.017,0,0,0-.99.51,2.328,2.328,0,0,0-.666.84,2.647,2.647,0,0,0-.24,1.152,2.16,2.16,0,0,0,.15.846,1.752,1.752,0,0,0,.45.624,2.791,2.791,0,0,0,.75.468,7.742,7.742,0,0,0,1.058.365v2.116c-.039-.009-.077-.016-.116-.026a5.161,5.161,0,0,1-.852-.294,5.907,5.907,0,0,1-.666-.348,2.313,2.313,0,0,1-.39-.282l-.732,1.428a5.856,5.856,0,0,0,1.68.816,6.518,6.518,0,0,0,1.076.234v1.078H351.9v-1.04a4.933,4.933,0,0,0,.794-.121,3.023,3.023,0,0,0,1.008-.438,2.17,2.17,0,0,0,.7-.786,2.468,2.468,0,0,0,.258-1.17A2.29,2.29,0,0,0,354.466,102.907Zm-3.785-1.9a2.284,2.284,0,0,1-.212-.1,1.089,1.089,0,0,1-.366-.306.727.727,0,0,1-.126-.438.834.834,0,0,1,.336-.708,1.122,1.122,0,0,1,.368-.173Zm1.221,3.912V103.1a3.639,3.639,0,0,1,.392.164,1.326,1.326,0,0,1,.444.336.719.719,0,0,1,.156.468Q352.893,104.81,351.9,104.921Z" transform="translate(-347.924 -96.565)" fill="#665f7f"/></g></g></g></svg>