<svg xmlns="http://www.w3.org/2000/svg" xmlns:xlink="http://www.w3.org/1999/xlink" width="102" height="102" viewBox="0 0 102 102"><defs><filter id="a" x="0" y="0" width="102" height="102" filterUnits="userSpaceOnUse"><feOffset dy="3" input="SourceAlpha"/><feGaussianBlur stdDeviation="3" result="b"/><feFlood flood-opacity="0.161"/><feComposite operator="in" in2="b"/><feComposite in="SourceGraphic"/></filter></defs><g transform="translate(-802 -4290)"><g transform="translate(-407.333 3855)"><g transform="matrix(1, 0, 0, 1, 1209.33, 435)" filter="url(#a)"><g transform="translate(9 6)" fill="#f5f2ff" stroke="#fff" stroke-width="4"><circle cx="42" cy="42" r="42" stroke="none"/><circle cx="42" cy="42" r="40" fill="none"/></g></g></g><g transform="translate(820.098 4307.605)"><g transform="translate(6.396 6.395)"><path d="M54.825,26.117H52.3a21.032,21.032,0,0,0-1.9-4.559l1.791-1.791a2.574,2.574,0,0,0,0-3.637L47.66,11.6a2.574,2.574,0,0,0-3.636,0l-1.791,1.791a21.075,21.075,0,0,0-4.559-1.9V8.966A2.574,2.574,0,0,0,35.1,6.4H28.69a2.574,2.574,0,0,0-2.571,2.571v2.522a21.082,21.082,0,0,0-4.562,1.9L19.768,11.6a2.574,2.574,0,0,0-3.636,0L11.6,16.131a2.574,2.574,0,0,0,0,3.637l1.789,1.789a21.073,21.073,0,0,0-1.9,4.561H8.968A2.574,2.574,0,0,0,6.4,28.689V35.1a2.574,2.574,0,0,0,2.572,2.571h2.521a21.112,21.112,0,0,0,1.9,4.564L11.6,44.022a2.574,2.574,0,0,0,0,3.637l4.534,4.534a2.574,2.574,0,0,0,3.636,0l1.787-1.787a21.063,21.063,0,0,0,4.564,1.9v2.521A2.574,2.574,0,0,0,28.69,57.4H35.1a2.574,2.574,0,0,0,2.572-2.572V52.3a21.1,21.1,0,0,0,4.561-1.9l1.789,1.789a2.574,2.574,0,0,0,3.636,0l4.534-4.534a2.574,2.574,0,0,0,0-3.637l-1.788-1.788a21.06,21.06,0,0,0,1.9-4.562h2.522A2.574,2.574,0,0,0,57.4,35.1V28.689a2.574,2.574,0,0,0-2.571-2.572ZM56.152,35.1a1.329,1.329,0,0,1-1.327,1.327h-3a.621.621,0,0,0-.6.466,19.807,19.807,0,0,1-2.13,5.126.622.622,0,0,0,.1.756L51.315,44.9a1.33,1.33,0,0,1,0,1.878l-4.534,4.534a1.329,1.329,0,0,1-1.878,0l-2.126-2.126a.621.621,0,0,0-.756-.1A19.875,19.875,0,0,1,36.9,51.221a.621.621,0,0,0-.466.6v3A1.329,1.329,0,0,1,35.1,56.152H28.69a1.329,1.329,0,0,1-1.327-1.328v-3a.621.621,0,0,0-.467-.6,19.842,19.842,0,0,1-5.128-2.129.621.621,0,0,0-.756.1l-2.123,2.123a1.329,1.329,0,0,1-1.878,0L12.477,46.78a1.33,1.33,0,0,1,0-1.878L14.6,42.779a.622.622,0,0,0,.1-.756A19.857,19.857,0,0,1,12.567,36.9a.621.621,0,0,0-.6-.467h-3A1.329,1.329,0,0,1,7.64,35.1V28.689a1.329,1.329,0,0,1,1.328-1.327h3a.622.622,0,0,0,.6-.466A19.836,19.836,0,0,1,14.7,21.77a.622.622,0,0,0-.1-.756l-2.126-2.126a1.33,1.33,0,0,1,0-1.878l4.534-4.534a1.329,1.329,0,0,1,1.878,0L21.014,14.6a.62.62,0,0,0,.756.1,19.854,19.854,0,0,1,5.127-2.13.621.621,0,0,0,.466-.6v-3A1.329,1.329,0,0,1,28.69,7.639H35.1A1.329,1.329,0,0,1,36.43,8.967v3a.622.622,0,0,0,.466.6A19.844,19.844,0,0,1,42.02,14.7a.621.621,0,0,0,.756-.1L44.9,12.476a1.329,1.329,0,0,1,1.878,0l4.534,4.534a1.33,1.33,0,0,1,0,1.878l-2.127,2.127a.622.622,0,0,0-.1.756,19.845,19.845,0,0,1,2.13,5.123.622.622,0,0,0,.6.466h3a1.329,1.329,0,0,1,1.327,1.327V35.1Z" transform="translate(-6.396 -6.395)" fill="#665f7f"/><path d="M128,113.438a14.564,14.564,0,1,0,14.569,14.569A14.58,14.58,0,0,0,128,113.438Zm0,27.885a13.32,13.32,0,1,1,13.325-13.316A13.33,13.33,0,0,1,128,141.323Z" transform="translate(-102.506 -102.502)" fill="#665f7f"/><path d="M171.517,188.167c-5.246,0-9.343,6.326-9.515,6.6a.622.622,0,0,0,0,.67c.172.269,4.269,6.595,9.515,6.595s9.343-6.326,9.515-6.595a.622.622,0,0,0,0-.67C180.86,194.493,176.763,188.167,171.517,188.167Zm0,12.616c-3.929,0-7.341-4.419-8.238-5.686.9-1.266,4.309-5.686,8.238-5.686s7.341,4.42,8.238,5.686C178.858,196.363,175.446,200.783,171.517,200.783Z" transform="translate(-146.017 -169.597)" fill="#665f7f"/><path d="M225.6,222.107a3.462,3.462,0,1,0,3.459,3.465A3.466,3.466,0,0,0,225.6,222.107Zm0,5.681a2.218,2.218,0,1,1,2.215-2.216A2.218,2.218,0,0,1,225.6,227.788Z" transform="translate(-200.1 -200.069)" fill="#665f7f"/></g></g></g></svg>