<svg xmlns="http://www.w3.org/2000/svg" xmlns:xlink="http://www.w3.org/1999/xlink" width="103" height="103" viewBox="0 0 103 103"><defs><filter id="a" x="0" y="0" width="103" height="103" filterUnits="userSpaceOnUse"><feOffset dy="3" input="SourceAlpha"/><feGaussianBlur stdDeviation="3" result="b"/><feFlood flood-opacity="0.161"/><feComposite operator="in" in2="b"/><feComposite in="SourceGraphic"/></filter></defs><g transform="translate(-381 -1159)"><g transform="matrix(1, 0, 0, 1, 381, 1159)" filter="url(#a)"><circle cx="42.5" cy="42.5" r="42.5" transform="translate(9 6)" fill="#ebe5ff"/></g><g transform="translate(405.667 1180.667)"><path d="M34.38,49.057H2.868A2.871,2.871,0,0,1,0,46.189V13.839A.838.838,0,0,1,.839,13H36.9a.838.838,0,0,1,.839.839V24.061a.839.839,0,1,1-1.677,0V14.677H1.677V46.189A1.192,1.192,0,0,0,2.868,47.38H34.38a.839.839,0,0,1,0,1.677Z" transform="translate(0 -2.099)" fill="#7e4836"/><path d="M37.838,44.864A.838.838,0,0,1,37,44.026V13.839a.839.839,0,1,1,1.677,0V44.026a.838.838,0,0,1-.839.839Z" transform="translate(-5.974 -2.099)" fill="#7e4836"/><path d="M14.8,40.448a8.814,8.814,0,0,1-8.8-8.8V30.8a8.8,8.8,0,0,1,17.608,0v.839A8.814,8.814,0,0,1,14.8,40.448Zm0-16.771A7.135,7.135,0,0,0,7.677,30.8v.839a7.127,7.127,0,1,0,14.254,0V30.8A7.136,7.136,0,0,0,14.8,23.677Z" transform="translate(-0.969 -3.552)" fill="#7e4836"/><path d="M15.449,37.739A5.457,5.457,0,0,1,10,32.289V31.45a5.45,5.45,0,0,1,10.9,0v.839A5.457,5.457,0,0,1,15.449,37.739Zm0-10.062a3.778,3.778,0,0,0-3.773,3.773v.839a3.773,3.773,0,0,0,7.547,0V31.45a3.778,3.778,0,0,0-3.773-3.773Z" transform="translate(-1.614 -4.198)" fill="#7e4836"/><path d="M22.092,48.676H7.837a.839.839,0,1,1,0-1.677H22.092a.839.839,0,1,1,0,1.677Z" transform="translate(-1.13 -7.589)" fill="#7e4836"/><path d="M22.416,15.094a.838.838,0,0,1-.839-.839V7.128a5.45,5.45,0,1,0-10.9,0v7.128a.839.839,0,0,1-1.677,0V7.128a7.128,7.128,0,1,1,14.255,0v7.128a.838.838,0,0,1-.839.839Z" transform="translate(-1.453)" fill="#7e4836"/><path d="M30.416,12.578a.838.838,0,0,1-.839-.839V7.128a5.45,5.45,0,1,0-10.9,0V11.74a.839.839,0,0,1-1.677,0V7.128a7.128,7.128,0,1,1,14.255,0V11.74a.838.838,0,0,1-.839.839Z" transform="translate(-2.745)" fill="#7e4836"/><path d="M57.681,56.573H42.444A2.5,2.5,0,0,1,40,54.018V30.528a8.294,8.294,0,0,1,2.032-5.411l4.835-5.6A4.189,4.189,0,0,1,50.062,18h0a4.191,4.191,0,0,1,3.2,1.514l4.835,5.6h0a8.294,8.294,0,0,1,2.032,5.411v23.49a2.5,2.5,0,0,1-2.444,2.555Zm-7.619-36.9a2.54,2.54,0,0,0-1.925.933l-4.835,5.6a6.616,6.616,0,0,0-1.624,4.315v23.49a.828.828,0,0,0,.766.878H57.681a.829.829,0,0,0,.767-.878V30.528a6.618,6.618,0,0,0-1.624-4.315l-4.836-5.6A2.539,2.539,0,0,0,50.062,19.677Z" transform="translate(-6.459 -2.906)" fill="#7e4836"/><path d="M51.355,28.707a3.353,3.353,0,1,1,2.371-5.724h0a3.353,3.353,0,0,1-2.371,5.724Zm0-5.029a1.676,1.676,0,1,0,1.187.491h0A1.673,1.673,0,0,0,51.354,23.678Z" transform="translate(-7.75 -3.552)" fill="#7e4836"/><path d="M44.838,53.5a.839.839,0,0,1-.565-1.458l11.74-10.7a.839.839,0,1,1,1.13,1.24L45.4,53.284a.834.834,0,0,1-.565.219Z" transform="translate(-7.104 -6.64)" fill="#7e4836"/><path d="M46.774,46.546a3.773,3.773,0,1,1,3.773-3.773A3.773,3.773,0,0,1,46.774,46.546Zm0-5.87a2.1,2.1,0,1,0,2.1,2.1,2.1,2.1,0,0,0-2.1-2.1Z" transform="translate(-6.943 -6.297)" fill="#7e4836"/><path d="M55.774,56.545a3.773,3.773,0,1,1,3.773-3.773,3.773,3.773,0,0,1-3.773,3.773Zm0-5.869a2.1,2.1,0,1,0,2.1,2.1,2.1,2.1,0,0,0-2.1-2.1Z" transform="translate(-8.396 -7.912)" fill="#7e4836"/><path d="M56.579,34.677H44.84a.839.839,0,0,1,0-1.677h11.74a.839.839,0,1,1,0,1.677Z" transform="translate(-7.105 -5.328)" fill="#7e4836"/><path d="M50.548,24.388a.838.838,0,0,1-.839-.839V21.337a3.664,3.664,0,0,0-3.66-3.66h-2.21a.839.839,0,0,1,0-1.677h2.21a5.343,5.343,0,0,1,5.337,5.337v2.213a.838.838,0,0,1-.839.838Z" transform="translate(-6.943 -2.583)" fill="#7e4836"/><path d="M31.838,49.057A.84.84,0,0,1,31,48.219V13.839a.839.839,0,0,1,1.677,0v32.59l3.655-3.047a.84.84,0,0,1,1-.053L39.849,45a.839.839,0,1,1-.93,1.4l-1.994-1.329-4.55,3.792a.841.841,0,0,1-.537.194Z" transform="translate(-5.005 -2.099)" fill="#7e4836"/></g></g></svg>