<svg xmlns="http://www.w3.org/2000/svg" xmlns:xlink="http://www.w3.org/1999/xlink" width="103" height="103" viewBox="0 0 103 103"><defs><filter id="a" x="0" y="0" width="103" height="103" filterUnits="userSpaceOnUse"><feOffset dy="3" input="SourceAlpha"/><feGaussianBlur stdDeviation="3" result="b"/><feFlood flood-opacity="0.161"/><feComposite operator="in" in2="b"/><feComposite in="SourceGraphic"/></filter></defs><g transform="translate(-801 -1159)"><g transform="matrix(1, 0, 0, 1, 801, 1159)" filter="url(#a)"><circle cx="42.5" cy="42.5" r="42.5" transform="translate(9 6)" fill="#ebe5ff"/></g><path d="M44.85,9.366A26.066,26.066,0,0,0,4.429,41.792c-.1,3.6-.793,5.931-4.116,9.135a1.025,1.025,0,0,0,.7,1.763,21.007,21.007,0,0,0,11.646-2.753A26.066,26.066,0,0,0,44.85,9.366ZM26.42,51.812A23.914,23.914,0,0,1,13.278,47.9a1.025,1.025,0,0,0-1.034-.052c-3.494,1.814-5.458,2.565-8.82,2.749,2.443-2.96,3-5.6,3.062-9.075a1.025,1.025,0,0,0-.168-.581,24.016,24.016,0,1,1,20.1,10.873ZM45.647,27.022a1.025,1.025,0,0,1-1.025,1.025h-3.14a1.025,1.025,0,1,1,0-2.05h3.14A1.025,1.025,0,0,1,45.647,27.022Zm-7.131-4.246a1.025,1.025,0,0,1,.375-1.4l2.868-1.656A1.025,1.025,0,1,1,42.785,21.5l-2.868,1.656a1.024,1.024,0,0,1-1.4-.375Zm.476,4.246A3.566,3.566,0,0,0,35.9,23.494V18.04a3.214,3.214,0,0,0-6.34-.752,24.871,24.871,0,0,1-11.624,4.365,1.022,1.022,0,0,0-.773-.353H12.915a5.722,5.722,0,0,0-.062,11.444l.827,6.321a1.987,1.987,0,0,0,2.353,1.657l1.476-.32a1.944,1.944,0,0,0,1.526-2.158l-.741-5.8a24.631,24.631,0,0,1,11.271,4.315A3.214,3.214,0,0,0,35.9,36V30.551a3.565,3.565,0,0,0,3.088-3.529Zm-20.8-3.334a28.124,28.124,0,0,0,11.282-3.832V34.189a28.124,28.124,0,0,0-11.282-3.832Zm-8.95,3.334a3.677,3.677,0,0,1,3.673-3.673h3.227v7.345H12.915a3.677,3.677,0,0,1-3.673-3.673ZM15.7,38.7l-.778-5.951h1.344l.724,5.672ZM33.854,36a1.164,1.164,0,1,1-2.329,0V18.041a1.164,1.164,0,1,1,2.329,0Zm2.05-7.548V25.588a1.51,1.51,0,0,1,0,2.868ZM43.16,33.95a1.024,1.024,0,0,1-1.4.375l-2.868-1.656a1.025,1.025,0,1,1,1.025-1.775l2.868,1.656A1.025,1.025,0,0,1,43.16,33.95Z" transform="translate(826.313 1178.936)" fill="#7e4836"/></g></svg>