<svg xmlns="http://www.w3.org/2000/svg" xmlns:xlink="http://www.w3.org/1999/xlink" width="103" height="103" viewBox="0 0 103 103"><defs><filter id="a" x="0" y="0" width="103" height="103" filterUnits="userSpaceOnUse"><feOffset dy="3" input="SourceAlpha"/><feGaussianBlur stdDeviation="3" result="b"/><feFlood flood-opacity="0.161"/><feComposite operator="in" in2="b"/><feComposite in="SourceGraphic"/></filter></defs><g transform="translate(-381 -1315)"><g transform="matrix(1, 0, 0, 1, 381, 1315)" filter="url(#a)"><circle cx="42.5" cy="42.5" r="42.5" transform="translate(9 6)" fill="#ebe5ff"/></g><path d="M68.97,37.484a12.836,12.836,0,0,0,3.524-8.08h6.978a7.207,7.207,0,0,0,1.922,4.16.785.785,0,0,0,.12.126A7.221,7.221,0,0,0,91.8,33.7a.786.786,0,0,0,.136-.143,7.232,7.232,0,1,0-12.468-5.727H72.494a12.884,12.884,0,0,0-5.647-9.88L72.953,7.6h6.485a7.2,7.2,0,0,0,1.956,4.565.778.778,0,0,0,.121.127A7.221,7.221,0,0,0,91.8,12.3a.775.775,0,0,0,.137-.143A7.232,7.232,0,1,0,79.528,6.021H72.5a.789.789,0,0,0-.679.388L65.489,17.143a12.876,12.876,0,0,0-15.2,20.329.786.786,0,0,0,.147.152,12.859,12.859,0,0,0,15.051,2.463l6.335,10.735a.789.789,0,0,0,.679.388h6.97A7.212,7.212,0,0,0,81.4,55.378a.78.78,0,0,0,.1.108,7.218,7.218,0,0,0,10.309.011.785.785,0,0,0,.122-.129,7.231,7.231,0,1,0-12.462-5.736H72.953L66.846,39.283a12.984,12.984,0,0,0,1.994-1.665.787.787,0,0,0,.13-.134ZM86.664,34.27a5.633,5.633,0,0,1-3.607-1.3,2.864,2.864,0,0,1,2.17-1H88.1a2.869,2.869,0,0,1,2.172,1A5.629,5.629,0,0,1,86.664,34.27Zm-1.721-6.52a1.721,1.721,0,1,1,3.442,0c0,1.813-.892,2.638-1.721,2.638S84.943,29.563,84.943,27.75Zm1.721-4.793a5.654,5.654,0,0,1,4.672,8.84A4.452,4.452,0,0,0,89.2,30.533a4.92,4.92,0,0,0,.758-2.783,3.3,3.3,0,1,0-6.6,0,4.966,4.966,0,0,0,.751,2.784A4.45,4.45,0,0,0,81.991,31.8a5.653,5.653,0,0,1,4.673-8.841Zm0-10.087a5.634,5.634,0,0,1-3.607-1.3,2.864,2.864,0,0,1,2.17-1H88.1a2.869,2.869,0,0,1,2.172,1A5.629,5.629,0,0,1,86.664,12.871ZM84.943,6.35a1.721,1.721,0,1,1,3.442,0c0,1.813-.892,2.638-1.721,2.638S84.943,8.163,84.943,6.35Zm1.721-4.793a5.654,5.654,0,0,1,4.672,8.84A4.453,4.453,0,0,0,89.2,9.134a4.92,4.92,0,0,0,.758-2.783,3.3,3.3,0,1,0-6.6,0,4.965,4.965,0,0,0,.751,2.784A4.45,4.45,0,0,0,81.991,10.4a5.653,5.653,0,0,1,4.673-8.842Zm0,54.521a5.632,5.632,0,0,1-3.608-1.3,2.864,2.864,0,0,1,2.171-1H88.1a2.869,2.869,0,0,1,2.173,1,5.626,5.626,0,0,1-3.607,1.305Zm-1.721-6.523a1.721,1.721,0,1,1,3.442,0c0,1.814-.892,2.641-1.721,2.641s-1.721-.826-1.721-2.64Zm1.721-4.79A5.653,5.653,0,0,1,91.337,53.6a4.452,4.452,0,0,0-2.131-1.264,4.93,4.93,0,0,0,.757-2.783,3.3,3.3,0,1,0-6.6,0,4.969,4.969,0,0,0,.75,2.785,4.451,4.451,0,0,0-2.126,1.265,5.652,5.652,0,0,1,4.674-8.839ZM59.635,39.919a11.264,11.264,0,0,1-7.8-3.132,5.707,5.707,0,0,1,5.273-3.615h5.058a5.7,5.7,0,0,1,5.274,3.616,11.269,11.269,0,0,1-7.8,3.13Zm-4.125-14.25a4.127,4.127,0,1,1,8.254,0c0,4.069-2.137,5.924-4.123,5.926h-.008c-1.987,0-4.124-1.857-4.124-5.927Zm7.688,6a6.021,6.021,0,0,0,.427-.466,8.59,8.59,0,0,0,1.716-5.538,5.7,5.7,0,1,0-11.409,0,8.59,8.59,0,0,0,1.716,5.538,6.011,6.011,0,0,0,.427.466,7.318,7.318,0,0,0-5.39,3.839,11.305,11.305,0,1,1,17.9,0,7.311,7.311,0,0,0-5.389-3.84Z" transform="translate(358.913 1337.172)" fill="#7e4836"/></g></svg>