<svg xmlns="http://www.w3.org/2000/svg" xmlns:xlink="http://www.w3.org/1999/xlink" width="103" height="103" viewBox="0 0 103 103"><defs><filter id="a" x="0" y="0" width="103" height="103" filterUnits="userSpaceOnUse"><feOffset dy="3" input="SourceAlpha"/><feGaussianBlur stdDeviation="3" result="b"/><feFlood flood-opacity="0.161"/><feComposite operator="in" in2="b"/><feComposite in="SourceGraphic"/></filter></defs><g transform="translate(-801 -1315)"><g transform="matrix(1, 0, 0, 1, 801, 1315)" filter="url(#a)"><circle cx="42.5" cy="42.5" r="42.5" transform="translate(9 6)" fill="#ebe5ff"/></g><g transform="translate(823.69 1336.125)"><path d="M27.279,58.939a.719.719,0,1,0,0-1.439h-4.91a.719.719,0,1,0,0,1.439Z" transform="translate(-1.647 -5.487)" fill="#7e4836"/><path d="M51.961,3.06H27.008a3.151,3.151,0,0,0-3.147,3.147v7.724H18.573l-1.313-1.8a.708.708,0,0,0-.575-.3h-3.66a2.249,2.249,0,0,0-2.248,2.248V47.76a2.249,2.249,0,0,0,2.248,2.248H33.347A2.249,2.249,0,0,0,35.6,47.76V27.887a.719.719,0,1,0-1.439,0V47.769a.821.821,0,0,1-.818.818H21.2a4.127,4.127,0,0,0-.234-.863,3.967,3.967,0,0,1,.638-3.93A12.607,12.607,0,0,1,27.9,45.916v1.412a.719.719,0,1,0,1.439,0v-4.28a3.815,3.815,0,0,0,0-7.5v-4.28a.719.719,0,0,0-1.439,0V32.68a13.157,13.157,0,0,1-7.41,2.2H16.352A1.923,1.923,0,0,0,14.437,36.8v5.018a1.918,1.918,0,0,0,1.8,1.906,13.336,13.336,0,0,1-.081,4.883H13.016a.821.821,0,0,1-.818-.818v-33.7a.821.821,0,0,1,.818-.818h3.291l1.313,1.8a.708.708,0,0,0,.575.3h5.656V28.634a.724.724,0,0,0,.719.719.7.7,0,0,0,.513-.216L29.445,24.7h7.778V53.893a1.585,1.585,0,0,1-1.583,1.583H10.723a1.585,1.585,0,0,1-1.583-1.583v-42.1a1.585,1.585,0,0,1,1.583-1.583H21.064a.719.719,0,0,0,0-1.439H10.723a3.013,3.013,0,0,0-3.012,3.012V15.82l-1.9.6a.715.715,0,0,0-.495.683V27.438a.715.715,0,0,0,.495.683l1.9.6v1.744l-1.9.6a.763.763,0,0,0-.5.71v5.233A.715.715,0,0,0,5.8,37.7l1.9.6V53.893A3.013,3.013,0,0,0,10.714,56.9H35.64a3.013,3.013,0,0,0,3.012-3.012V24.7H51.961a3.151,3.151,0,0,0,3.147-3.147V6.207A3.151,3.151,0,0,0,51.961,3.06ZM31.01,39.289a2.394,2.394,0,0,1-1.673,2.284V37.005a2.406,2.406,0,0,1,1.673,2.284ZM27.9,36.178V44.19a15.136,15.136,0,0,0-6.564-1.87c-.036,0-.081-.009-.117-.009V36.259A15.2,15.2,0,0,0,27.9,34.38ZM15.876,41.8V36.78a.48.48,0,0,1,.477-.477h3.435v5.98H16.352a.482.482,0,0,1-.477-.486Zm1.834,1.915h2.23a5.239,5.239,0,0,0-.315,4.514,3.086,3.086,0,0,1,.108.351H17.62A14.524,14.524,0,0,0,17.71,43.713ZM6.74,26.925v-9.28L7.7,17.34v9.9Zm0,9.568V32.3L7.7,32v4.8ZM53.679,21.557a1.723,1.723,0,0,1-1.717,1.717H29.148a.737.737,0,0,0-.513.216l-3.336,3.4V6.207A1.723,1.723,0,0,1,27.017,4.49H51.97a1.723,1.723,0,0,1,1.717,1.717v15.35Z" fill="#7e4836"/><path d="M47.106,11.285h-1.1a6.76,6.76,0,0,0,.791-2.68,2.669,2.669,0,0,0-1.87-2.9,1.272,1.272,0,0,0-1.16.144,1.365,1.365,0,0,0-.584,1.034,3.409,3.409,0,0,1-.306,1.268,2.259,2.259,0,0,1-.827.953,7.257,7.257,0,0,0-3,3.579.178.178,0,0,1-.162.108h-.863a1.611,1.611,0,0,0-1.556-1.2H34.229a.721.721,0,0,0-.719.719v9.667a.721.721,0,0,0,.719.719h2.239a1.617,1.617,0,0,0,1.493-1l.306.225a1.89,1.89,0,0,0,1.124.369h7.7a1.9,1.9,0,0,0,1.475-3.1,1.873,1.873,0,0,0,0-2.392,1.873,1.873,0,0,0,0-2.392,1.905,1.905,0,0,0,.432-1.2,1.883,1.883,0,0,0-1.888-1.915ZM36.666,21.06a.18.18,0,0,1-.18.18H34.958V13.012h1.529a.18.18,0,0,1,.18.18V21.06Zm10.44-.234h-7.7a.514.514,0,0,1-.279-.09L38.1,19.99V14.217h.809a1.611,1.611,0,0,0,1.484-.98,5.813,5.813,0,0,1,2.5-2.958A3.8,3.8,0,0,0,44.2,8.731a4.776,4.776,0,0,0,.414-1.619,1.245,1.245,0,0,1,.755,1.376,5.121,5.121,0,0,1-1.232,3,.608.608,0,0,0-.162.234.722.722,0,0,0-.054.27V12a.263.263,0,0,0,.018.081.7.7,0,0,0,.036.189.973.973,0,0,0,.1.162.5.5,0,0,0,.045.072.725.725,0,0,0,.216.153.639.639,0,0,0,.288.063h2.464a.477.477,0,0,1,0,.953.719.719,0,1,0,0,1.439.477.477,0,0,1,0,.953.719.719,0,1,0,0,1.439.477.477,0,0,1,0,.953.719.719,0,1,0,0,1.439.48.48,0,0,1,.477.477A.442.442,0,0,1,47.106,20.826Z" transform="translate(-2.842 -0.258)" fill="#7e4836"/></g></g></svg>