<svg xmlns="http://www.w3.org/2000/svg" width="73" height="73" viewBox="0 0 73 73"><g transform="translate(-1 -1)"><path d="M45,30H55.65V53.667" transform="translate(7.883 5.133)" fill="none" stroke="#665f7f" stroke-linejoin="round" stroke-width="2"/><path d="M63.533,64.6H2V22H25.667l1.183,1.183" transform="translate(0 3.667)" fill="none" stroke="#665f7f" stroke-linejoin="round" stroke-width="2"/><path d="M4,25.667V2H41.867v9.467" transform="translate(0.367)" fill="none" stroke="#665f7f" stroke-linejoin="round" stroke-width="2"/><path d="M28,21.833V10H56.4V33.667" transform="translate(4.767 1.467)" fill="none" stroke="#665f7f" stroke-linejoin="round" stroke-width="2"/><path d="M7,6H37.767" transform="translate(0.917 0.733)" fill="none" stroke="#665f7f" stroke-linejoin="round" stroke-width="2"/><path d="M7,10H28.3" transform="translate(0.917 1.467)" fill="none" stroke="#665f7f" stroke-linejoin="round" stroke-width="2"/><path d="M7,14H28.3" transform="translate(0.917 2.2)" fill="none" stroke="#665f7f" stroke-linejoin="round" stroke-width="2"/><path d="M7,18H28.3" transform="translate(0.917 2.933)" fill="none" stroke="#665f7f" stroke-linejoin="round" stroke-width="2"/><path d="M6,28h4.733V46.933H6Z" transform="translate(0.733 4.767)" fill="none" stroke="#665f7f" stroke-linejoin="round" stroke-width="2"/><path d="M6,48h4.733v4.733H6Z" transform="translate(0.733 8.433)" fill="none" stroke="#665f7f" stroke-linejoin="round" stroke-width="2"/><circle cx="15.5" cy="15.5" r="15.5" transform="translate(22 22)" fill="none" stroke="#665f7f" stroke-linejoin="round" stroke-width="2"/><path d="M43.733,39,66.217,61.483l-4.733,4.733L39,43.733" transform="translate(6.783 6.783)" fill="none" stroke="#665f7f" stroke-linejoin="round" stroke-width="2"/><path d="M52,56.733,56.733,52" transform="translate(9.167 9.167)" fill="none" stroke="#665f7f" stroke-linejoin="round" stroke-width="2"/><circle cx="10.5" cy="10.5" r="10.5" transform="translate(27 27)" fill="none" stroke="#665f7f" stroke-linejoin="round" stroke-width="2"/></g></svg>