<svg xmlns="http://www.w3.org/2000/svg" width="70.51" height="70.51" viewBox="0 0 70.51 70.51"><path d="M68.2,0H47.789A2.311,2.311,0,0,0,45.48,2.309V4.493H17.4a1.1,1.1,0,0,0-1.1,1.1V17.868a17.4,17.4,0,0,0,0,34.737v12.31a1.1,1.1,0,0,0,1.1,1.1H45.48V68.2a2.311,2.311,0,0,0,2.309,2.309H68.2A2.311,2.311,0,0,0,70.51,68.2V61.629A2.312,2.312,0,0,0,68.2,59.32H47.789a2.311,2.311,0,0,0-2.309,2.309v2.184H18.506V52.6a17.324,17.324,0,0,0,9.958-3.94l2.2,2.2a1.1,1.1,0,0,0,.779.323H45.48v2.184a2.311,2.311,0,0,0,2.309,2.309H68.2a2.311,2.311,0,0,0,2.309-2.309V46.8A2.311,2.311,0,0,0,68.2,44.49H47.789A2.311,2.311,0,0,0,45.48,46.8v2.184H31.9l-1.826-1.826a17.343,17.343,0,0,0,4.7-10.8H45.48V38.54a2.311,2.311,0,0,0,2.309,2.309H68.2A2.311,2.311,0,0,0,70.51,38.54V31.969A2.311,2.311,0,0,0,68.2,29.66H47.789a2.311,2.311,0,0,0-2.309,2.309v2.185H34.775a17.415,17.415,0,0,0-1.83-6.754l5.505-5.5a1.1,1.1,0,0,0-.547-1.856l-3.047-.657.244-.244a1.1,1.1,0,1,0-1.558-1.558l-.244.244-.657-3.047a1.1,1.1,0,0,0-1.856-.547l-5.492,5.492a17.409,17.409,0,0,0-6.785-1.854V6.7H45.48V8.88a2.311,2.311,0,0,0,2.309,2.309H68.2A2.311,2.311,0,0,0,70.51,8.88V2.309A2.312,2.312,0,0,0,68.2,0ZM47.684,61.63a.11.11,0,0,1,.105-.105H68.2a.11.11,0,0,1,.105.105V68.2a.109.109,0,0,1-.105.105H47.789a.109.109,0,0,1-.105-.105Zm0-14.83a.109.109,0,0,1,.105-.105H68.2a.109.109,0,0,1,.105.105v6.572a.109.109,0,0,1-.105.105H47.789a.109.109,0,0,1-.105-.105Zm0-14.83a.109.109,0,0,1,.105-.105H68.2a.11.11,0,0,1,.105.105v6.572a.109.109,0,0,1-.105.105H47.789a.109.109,0,0,1-.105-.105ZM2.2,35.236A15.2,15.2,0,0,1,23.981,21.53a1.1,1.1,0,0,0,.022.193l.956,4.438-.168.168a11.587,11.587,0,1,0,1.555,1.561l.172-.172,4.437.956a1.1,1.1,0,0,0,.173.022,15.223,15.223,0,0,1,1.478,6.54c0,.006,0,.012,0,.018h0a15.2,15.2,0,0,1-30.4-.019Zm18.749,0a3.552,3.552,0,1,1-1.919-3.15l-2.39,2.39A1.1,1.1,0,0,0,18.2,36.034l2.378-2.378a3.524,3.524,0,0,1,.373,1.58Zm-.315-4.754a5.758,5.758,0,1,0,1.551,1.566l2.59-2.59A9.39,9.39,0,1,1,23.225,27.9Zm14.824-8.717-4.629,4.628-2.461-.53L33,21.235Zm-4.549-4.549.53,2.461-4.629,4.629-.53-2.461ZM68.307,8.88a.109.109,0,0,1-.105.105H47.789a.109.109,0,0,1-.105-.105V2.309a.109.109,0,0,1,.105-.105H68.2a.11.11,0,0,1,.105.105ZM68.2,14.83H47.789a2.311,2.311,0,0,0-2.309,2.309v2.184h-3.34a1.1,1.1,0,1,0,0,2.2h3.34v2.184a2.311,2.311,0,0,0,2.309,2.309H68.2a2.311,2.311,0,0,0,2.309-2.309V17.139A2.311,2.311,0,0,0,68.2,14.83Zm.105,8.881a.109.109,0,0,1-.105.105H47.789a.11.11,0,0,1-.105-.105V17.139a.109.109,0,0,1,.105-.105H68.2a.109.109,0,0,1,.105.105ZM64.984,5.595a1.1,1.1,0,0,1-1.1,1.1H52.108a1.1,1.1,0,1,1,0-2.2H63.882A1.1,1.1,0,0,1,64.984,5.595Zm0,14.83a1.1,1.1,0,0,1-1.1,1.1H52.108a1.1,1.1,0,1,1,0-2.2H63.882A1.1,1.1,0,0,1,64.984,20.425ZM51.006,35.255a1.1,1.1,0,0,1,1.1-1.1H63.882a1.1,1.1,0,1,1,0,2.2H52.108A1.1,1.1,0,0,1,51.006,35.255Zm0,14.83a1.1,1.1,0,0,1,1.1-1.1H63.882a1.1,1.1,0,1,1,0,2.2H52.108A1.1,1.1,0,0,1,51.006,50.085Zm0,14.83a1.1,1.1,0,0,1,1.1-1.1H63.882a1.1,1.1,0,0,1,0,2.2H52.108A1.1,1.1,0,0,1,51.006,64.915Z" fill="#665f7f"/></svg>