<svg xmlns="http://www.w3.org/2000/svg" width="37" height="37" viewBox="0 0 37 37"><path d="M26.5,8A18.5,18.5,0,1,1,8,26.5,18.509,18.509,0,0,1,26.5,8ZM11.131,18.232a17.349,17.349,0,0,0-2.074,7.744h5.658a11.724,11.724,0,0,1,1.316-4.915Zm6.195-6.576a17.562,17.562,0,0,0-5.669,5.669l4.9,2.829a11.873,11.873,0,0,1,3.6-3.6Zm8.651-2.6a17.349,17.349,0,0,0-7.743,2.074l2.829,4.9a11.725,11.725,0,0,1,4.914-1.316Zm8.793,2.074a17.349,17.349,0,0,0-7.744-2.074v5.658a11.724,11.724,0,0,1,4.915,1.316Zm6.575,6.193a17.562,17.562,0,0,0-5.668-5.668l-2.829,4.9a11.874,11.874,0,0,1,3.6,3.6Zm2.6,8.652a17.35,17.35,0,0,0-2.074-7.744l-4.9,2.829a11.724,11.724,0,0,1,1.316,4.915ZM26.429,43.951H26.5A17.46,17.46,0,0,0,43.944,27.024H28.95a2.505,2.505,0,0,1-4.9,0H9.056a17.362,17.362,0,0,0,3.382,9.807V29.942a1.121,1.121,0,0,1,1.121-1.121h1.729a1.121,1.121,0,0,1,1.121,1.121V40.736q.506.36,1.039.684V32.805a1.121,1.121,0,0,1,1.121-1.121H20.3a1.121,1.121,0,0,1,1.121,1.121V43.2q.513.156,1.039.281V35.668a1.121,1.121,0,0,1,1.121-1.121h1.729a1.121,1.121,0,0,1,1.121,1.121ZM23.507,43.7a17.453,17.453,0,0,0,1.874.221V35.668a.073.073,0,0,0-.073-.073H23.579a.073.073,0,0,0-.073.073ZM18.5,42.009a17.357,17.357,0,0,0,1.874.834V32.805a.073.073,0,0,0-.073-.073H18.569a.073.073,0,0,0-.073.073Zm-5.01-3.887A17.577,17.577,0,0,0,15.36,39.93V29.942a.073.073,0,0,0-.073-.073H13.559a.073.073,0,0,0-.073.073Zm2.278-12.147H24.05a2.507,2.507,0,0,1,3.086-1.9l2.239-4.433a.524.524,0,0,1,.936.473l-2.239,4.433a2.506,2.506,0,0,1,.878,1.425h8.286a10.749,10.749,0,0,0-21.472,0Zm24.906,6.06a11.173,11.173,0,0,1-3.7,5.414c-4.03,3.555-7.082,3.706-7.082,3.706a.524.524,0,1,1-.062-1.047s2.763-.192,6.45-3.445c2.578-2.275,3.268-4.277,3.452-5.23l-1.5.788a.524.524,0,0,1-.488-.928L40.195,30a.524.524,0,0,1,.708.22l1.29,2.454a.524.524,0,1,1-.928.488ZM26.5,25.044A1.456,1.456,0,1,0,27.956,26.5,1.457,1.457,0,0,0,26.5,25.044Z" transform="translate(-8 -8)" fill="#665f7f" fill-rule="evenodd"/></svg>