<svg xmlns="http://www.w3.org/2000/svg" width="61.606" height="73.015" viewBox="0 0 61.606 73.015"><g transform="translate(-6 -1)"><g transform="translate(7 2)"><g transform="translate(0.115 50.273)"><path d="M44.234,53.192l16.834-6.069a3.446,3.446,0,0,1,4.352,2.061,3.364,3.364,0,0,1-1.6,4.123L40.34,65.56a7.682,7.682,0,0,1-5.5.687L20.071,62.468a12.714,12.714,0,0,0-6.871.115" transform="translate(-6.215 -45.749)" fill="none" stroke="#665f7f" stroke-linecap="round" stroke-linejoin="round" stroke-miterlimit="10" stroke-width="2"/><path d="M13.2,48.638l12.711-2.176A13.378,13.378,0,0,1,30.148,46l6.413.115a7.564,7.564,0,0,1,6.871,5.039,6.929,6.929,0,0,1,.458,2.748l-13.627-.229" transform="translate(-6.215 -45.889)" fill="none" stroke="#665f7f" stroke-linecap="round" stroke-linejoin="round" stroke-miterlimit="10" stroke-width="2"/><path d="M7.1,45.9h6.985V65.482H7.1Z" transform="translate(-7.1 -45.9)" fill="none" stroke="#665f7f" stroke-linecap="round" stroke-linejoin="round" stroke-miterlimit="10" stroke-width="2"/></g><g transform="translate(0 21.958)"><g transform="translate(36.731)"><path d="M60.06,38.725a10.932,10.932,0,0,1-3.435,3.435c-.8-1.145-1.947-1.718-2.748-1.374s-1.145,1.489-.916,2.863a11.889,11.889,0,0,1-4.924,0c.229-1.374-.115-2.519-1.031-2.863-.8-.344-1.947.229-2.748,1.374a10.932,10.932,0,0,1-3.435-3.435c1.145-.8,1.718-1.947,1.374-2.748s-1.489-1.145-2.863-.916a11.889,11.889,0,0,1,0-4.924c1.374.229,2.519-.115,2.863-1.031.344-.8-.229-1.947-1.374-2.748a10.932,10.932,0,0,1,3.435-3.435c.8,1.145,1.947,1.718,2.748,1.374s1.145-1.489.916-2.863a11.889,11.889,0,0,1,4.924,0c-.229,1.374.115,2.519,1.031,2.863.8.344,1.947-.229,2.748-1.374a10.932,10.932,0,0,1,3.435,3.435c-1.145.8-1.718,1.947-1.374,2.748s1.489,1.145,2.863.916a11.889,11.889,0,0,1,0,4.924c-1.374-.229-2.519.229-2.863,1.031-.344.916.344,1.947,1.374,2.748Z" transform="translate(-39.075 -21.175)" fill="none" stroke="#665f7f" stroke-linecap="round" stroke-linejoin="round" stroke-miterlimit="10" stroke-width="2"/><path d="M54.434,31.81A4.867,4.867,0,1,1,49.51,27,4.792,4.792,0,0,1,54.434,31.81Z" transform="translate(-38.258 -20.329)" fill="none" stroke="#665f7f" stroke-linecap="round" stroke-linejoin="round" stroke-miterlimit="10" stroke-width="2"/></g><g transform="translate(0 0.029)"><circle cx="11.452" cy="11.452" r="11.452" fill="none" stroke="#665f7f" stroke-linecap="round" stroke-linejoin="round" stroke-miterlimit="10" stroke-width="2"/><path d="M17.377,32.069A3.032,3.032,0,0,1,14.4,29.092,3.134,3.134,0,0,1,17.377,26a3.032,3.032,0,0,1,2.977,2.977" transform="translate(-5.926 -20.503)" fill="none" stroke="#665f7f" stroke-linecap="round" stroke-linejoin="round" stroke-miterlimit="10" stroke-width="2"/><path d="M17.377,31.3A2.977,2.977,0,1,1,14.4,34.277" transform="translate(-5.926 -19.734)" fill="none" stroke="#665f7f" stroke-linecap="round" stroke-linejoin="round" stroke-miterlimit="10" stroke-width="2"/></g><path d="M17,26.145V25" transform="translate(-5.548 -20.62)" fill="none" stroke="#665f7f" stroke-linecap="round" stroke-linejoin="round" stroke-miterlimit="10" stroke-width="2"/><path d="M17,36.5v1.145" transform="translate(-5.548 -18.95)" fill="none" stroke="#665f7f" stroke-linecap="round" stroke-linejoin="round" stroke-miterlimit="10" stroke-width="2"/></g><g transform="translate(18.323)"><circle cx="11.452" cy="11.452" r="11.452" fill="none" stroke="#665f7f" stroke-linecap="round" stroke-linejoin="round" stroke-miterlimit="10" stroke-width="2"/><g transform="translate(4.81 5.382)"><path d="M38.29,11.4c0,2.519-2.061,5.726-4.7,5.726-2.519,0-4.7-3.206-4.7-5.726a4.716,4.716,0,0,1,4.7-4.7A4.644,4.644,0,0,1,38.29,11.4Z" transform="translate(-26.953 -6.7)" fill="none" stroke="#665f7f" stroke-linecap="round" stroke-linejoin="round" stroke-miterlimit="10" stroke-width="2"/><path d="M35,15.1v1.718a2.455,2.455,0,0,0,1.26,2.176l1.031.573,2.061,1.145" transform="translate(-26.068 -5.481)" fill="none" stroke="#665f7f" stroke-linecap="round" stroke-linejoin="round" stroke-miterlimit="10" stroke-width="2"/><path d="M31.666,15v1.718a2.455,2.455,0,0,1-1.26,2.176l-1.145.573L27.2,20.611" transform="translate(-27.2 -5.495)" fill="none" stroke="#665f7f" stroke-linecap="round" stroke-linejoin="round" stroke-miterlimit="10" stroke-width="2"/></g><circle cx="11.452" cy="11.452" r="11.452" fill="none" stroke="#665f7f" stroke-linecap="round" stroke-linejoin="round" stroke-miterlimit="10" stroke-width="2"/><g transform="translate(4.81 5.382)"><path d="M38.29,11.4c0,2.519-2.061,5.726-4.7,5.726-2.519,0-4.7-3.206-4.7-5.726a4.716,4.716,0,0,1,4.7-4.7A4.644,4.644,0,0,1,38.29,11.4Z" transform="translate(-26.953 -6.7)" fill="none" stroke="#665f7f" stroke-linecap="round" stroke-linejoin="round" stroke-miterlimit="10" stroke-width="2"/><path d="M35,15.1v1.718a2.455,2.455,0,0,0,1.26,2.176l1.031.573,2.061,1.145" transform="translate(-26.068 -5.481)" fill="none" stroke="#665f7f" stroke-linecap="round" stroke-linejoin="round" stroke-miterlimit="10" stroke-width="2"/><path d="M31.666,15v1.718a2.455,2.455,0,0,1-1.26,2.176l-1.145.573L27.2,20.611" transform="translate(-27.2 -5.495)" fill="none" stroke="#665f7f" stroke-linecap="round" stroke-linejoin="round" stroke-miterlimit="10" stroke-width="2"/></g></g></g><g transform="translate(7 2)"><g transform="translate(0.115 50.273)"><path d="M44.234,53.192l16.834-6.069a3.446,3.446,0,0,1,4.352,2.061,3.364,3.364,0,0,1-1.6,4.123L40.34,65.56a7.682,7.682,0,0,1-5.5.687L20.071,62.468a12.714,12.714,0,0,0-6.871.115" transform="translate(-6.215 -45.749)" fill="none" stroke="#665f7f" stroke-linecap="round" stroke-linejoin="round" stroke-miterlimit="10" stroke-width="2"/><path d="M13.2,48.638l12.711-2.176A13.378,13.378,0,0,1,30.148,46l6.413.115a7.564,7.564,0,0,1,6.871,5.039,6.929,6.929,0,0,1,.458,2.748l-13.627-.229" transform="translate(-6.215 -45.889)" fill="none" stroke="#665f7f" stroke-linecap="round" stroke-linejoin="round" stroke-miterlimit="10" stroke-width="2"/><path d="M7.1,45.9h6.985V65.482H7.1Z" transform="translate(-7.1 -45.9)" fill="none" stroke="#665f7f" stroke-linecap="round" stroke-linejoin="round" stroke-miterlimit="10" stroke-width="2"/></g><g transform="translate(0 21.958)"><g transform="translate(36.731)"><path d="M60.06,38.725a10.932,10.932,0,0,1-3.435,3.435c-.8-1.145-1.947-1.718-2.748-1.374s-1.145,1.489-.916,2.863a11.889,11.889,0,0,1-4.924,0c.229-1.374-.115-2.519-1.031-2.863-.8-.344-1.947.229-2.748,1.374a10.932,10.932,0,0,1-3.435-3.435c1.145-.8,1.718-1.947,1.374-2.748s-1.489-1.145-2.863-.916a11.889,11.889,0,0,1,0-4.924c1.374.229,2.519-.115,2.863-1.031.344-.8-.229-1.947-1.374-2.748a10.932,10.932,0,0,1,3.435-3.435c.8,1.145,1.947,1.718,2.748,1.374s1.145-1.489.916-2.863a11.889,11.889,0,0,1,4.924,0c-.229,1.374.115,2.519,1.031,2.863.8.344,1.947-.229,2.748-1.374a10.932,10.932,0,0,1,3.435,3.435c-1.145.8-1.718,1.947-1.374,2.748s1.489,1.145,2.863.916a11.889,11.889,0,0,1,0,4.924c-1.374-.229-2.519.229-2.863,1.031-.344.916.344,1.947,1.374,2.748Z" transform="translate(-39.075 -21.175)" fill="none" stroke="#665f7f" stroke-linecap="round" stroke-linejoin="round" stroke-miterlimit="10" stroke-width="2"/><path d="M54.434,31.81A4.867,4.867,0,1,1,49.51,27,4.792,4.792,0,0,1,54.434,31.81Z" transform="translate(-38.258 -20.329)" fill="none" stroke="#665f7f" stroke-linecap="round" stroke-linejoin="round" stroke-miterlimit="10" stroke-width="2"/></g><g transform="translate(0 0.029)"><circle cx="11.452" cy="11.452" r="11.452" fill="none" stroke="#665f7f" stroke-linecap="round" stroke-linejoin="round" stroke-miterlimit="10" stroke-width="2"/><path d="M17.377,32.069A3.032,3.032,0,0,1,14.4,29.092,3.134,3.134,0,0,1,17.377,26a3.032,3.032,0,0,1,2.977,2.977" transform="translate(-5.926 -20.503)" fill="none" stroke="#665f7f" stroke-linecap="round" stroke-linejoin="round" stroke-miterlimit="10" stroke-width="2"/><path d="M17.377,31.3A2.977,2.977,0,1,1,14.4,34.277" transform="translate(-5.926 -19.734)" fill="none" stroke="#665f7f" stroke-linecap="round" stroke-linejoin="round" stroke-miterlimit="10" stroke-width="2"/></g><path d="M17,26.145V25" transform="translate(-5.548 -20.62)" fill="none" stroke="#665f7f" stroke-linecap="round" stroke-linejoin="round" stroke-miterlimit="10" stroke-width="2"/><path d="M17,36.5v1.145" transform="translate(-5.548 -18.95)" fill="none" stroke="#665f7f" stroke-linecap="round" stroke-linejoin="round" stroke-miterlimit="10" stroke-width="2"/></g><g transform="translate(18.323)"><circle cx="11.452" cy="11.452" r="11.452" fill="none" stroke="#665f7f" stroke-linecap="round" stroke-linejoin="round" stroke-miterlimit="10" stroke-width="2"/><g transform="translate(4.81 5.382)"><path d="M38.29,11.4c0,2.519-2.061,5.726-4.7,5.726-2.519,0-4.7-3.206-4.7-5.726a4.716,4.716,0,0,1,4.7-4.7A4.644,4.644,0,0,1,38.29,11.4Z" transform="translate(-26.953 -6.7)" fill="none" stroke="#665f7f" stroke-linecap="round" stroke-linejoin="round" stroke-miterlimit="10" stroke-width="2"/><path d="M35,15.1v1.718a2.455,2.455,0,0,0,1.26,2.176l1.031.573,2.061,1.145" transform="translate(-26.068 -5.481)" fill="none" stroke="#665f7f" stroke-linecap="round" stroke-linejoin="round" stroke-miterlimit="10" stroke-width="2"/><path d="M31.666,15v1.718a2.455,2.455,0,0,1-1.26,2.176l-1.145.573L27.2,20.611" transform="translate(-27.2 -5.495)" fill="none" stroke="#665f7f" stroke-linecap="round" stroke-linejoin="round" stroke-miterlimit="10" stroke-width="2"/></g><circle cx="11.452" cy="11.452" r="11.452" fill="none" stroke="#665f7f" stroke-linecap="round" stroke-linejoin="round" stroke-miterlimit="10" stroke-width="2"/><g transform="translate(4.81 5.382)"><path d="M38.29,11.4c0,2.519-2.061,5.726-4.7,5.726-2.519,0-4.7-3.206-4.7-5.726a4.716,4.716,0,0,1,4.7-4.7A4.644,4.644,0,0,1,38.29,11.4Z" transform="translate(-26.953 -6.7)" fill="none" stroke="#665f7f" stroke-linecap="round" stroke-linejoin="round" stroke-miterlimit="10" stroke-width="2"/><path d="M35,15.1v1.718a2.455,2.455,0,0,0,1.26,2.176l1.031.573,2.061,1.145" transform="translate(-26.068 -5.481)" fill="none" stroke="#665f7f" stroke-linecap="round" stroke-linejoin="round" stroke-miterlimit="10" stroke-width="2"/><path d="M31.666,15v1.718a2.455,2.455,0,0,1-1.26,2.176l-1.145.573L27.2,20.611" transform="translate(-27.2 -5.495)" fill="none" stroke="#665f7f" stroke-linecap="round" stroke-linejoin="round" stroke-miterlimit="10" stroke-width="2"/></g></g></g></g></svg>