<svg xmlns="http://www.w3.org/2000/svg" xmlns:xlink="http://www.w3.org/1999/xlink" width="102" height="102" viewBox="0 0 102 102"><defs><filter id="a" x="0" y="0" width="102" height="102" filterUnits="userSpaceOnUse"><feOffset dy="3" input="SourceAlpha"/><feGaussianBlur stdDeviation="3" result="b"/><feFlood flood-opacity="0.161"/><feComposite operator="in" in2="b"/><feComposite in="SourceGraphic"/></filter></defs><g transform="translate(-592 -4146)"><g transform="translate(-617.333 3711)"><g transform="matrix(1, 0, 0, 1, 1209.33, 435)" filter="url(#a)"><g transform="translate(9 6)" fill="#f5f2ff" stroke="#fff" stroke-width="4"><circle cx="42" cy="42" r="42" stroke="none"/><circle cx="42" cy="42" r="40" fill="none"/></g></g></g><g transform="translate(584.688 4148)"><g transform="translate(35 19)"><g transform="translate(21.832 18.563)"><path d="M258.939,223.688H253.96a.844.844,0,0,1-.844-.844v-3.082a9.29,9.29,0,0,1-1.5-.572l-2.205,2.205a.844.844,0,0,1-1.193,0l-3.818-3.818a.844.844,0,0,1,0-1.193l2.2-2.2a13.8,13.8,0,0,1-.624-1.5h-3.134a.844.844,0,0,1-.844-.862l.105-4.978a.844.844,0,0,1,.844-.826h3.082a9.278,9.278,0,0,1,.572-1.5L244.4,202.3a.843.843,0,0,1,0-1.193l3.818-3.818a.844.844,0,0,1,1.193,0l2.213,2.213a12.942,12.942,0,0,1,1.494-.555v-3.107a.844.844,0,0,1,.844-.844h4.978a.844.844,0,0,1,.844.844v3.107a12.941,12.941,0,0,1,1.494.555l2.213-2.213a.844.844,0,0,1,1.193,0l3.818,3.818a.844.844,0,0,1,0,1.193l-2.205,2.205a9.281,9.281,0,0,1,.572,1.5h3.082a.844.844,0,0,1,.844.844v4.978a.844.844,0,0,1-.844.844h-3.082a9.283,9.283,0,0,1-.572,1.5l2.205,2.205a.844.844,0,0,1,0,1.193l-3.818,3.818a.844.844,0,0,1-1.193,0l-2.205-2.205a9.288,9.288,0,0,1-1.5.572v3.082A.844.844,0,0,1,258.939,223.688ZM254.8,222h3.291v-2.9a.843.843,0,0,1,.664-.824,7.736,7.736,0,0,0,2.266-.859.844.844,0,0,1,1.014.137l2.048,2.048,2.625-2.625-2.048-2.048a.844.844,0,0,1-.137-1.014,7.728,7.728,0,0,0,.859-2.266.844.844,0,0,1,.824-.664h2.9V207.7h-2.9a.843.843,0,0,1-.824-.664,7.733,7.733,0,0,0-.859-2.266.844.844,0,0,1,.137-1.014l2.048-2.048-2.625-2.625-2.048,2.048a.844.844,0,0,1-1.014.137,10.677,10.677,0,0,0-2.31-.87.844.844,0,0,1-.62-.814v-2.9H254.8v2.9a.844.844,0,0,1-.62.813,10.678,10.678,0,0,0-2.31.87.844.844,0,0,1-1.014-.137l-2.048-2.048-2.625,2.625,2.048,2.048a.844.844,0,0,1,.137,1.014,7.726,7.726,0,0,0-.859,2.266.844.844,0,0,1-.824.664h-2.914l-.07,3.291h2.878a.843.843,0,0,1,.8.585,12.138,12.138,0,0,0,.986,2.345.844.844,0,0,1-.137,1.014l-2.048,2.048,2.625,2.625,2.048-2.048a.843.843,0,0,1,1.014-.137,7.729,7.729,0,0,0,2.266.859.844.844,0,0,1,.664.824V222Z" transform="translate(-242 -195)" fill="#665f7f"/></g><g transform="translate(28.688 25.313)"><path d="M314.594,274.188a7.594,7.594,0,1,1,7.594-7.594A7.6,7.6,0,0,1,314.594,274.188Zm0-13.5a5.906,5.906,0,1,0,5.906,5.906A5.913,5.913,0,0,0,314.594,260.688Z" transform="translate(-307 -259)" fill="#665f7f"/></g><g transform="translate(7.594 2.531)"><path d="M128.1,51.438H109.522A2.525,2.525,0,0,1,107,48.916V45.522A2.525,2.525,0,0,1,109.522,43h6.446a.844.844,0,1,1,0,1.688h-6.446a.835.835,0,0,0-.834.834v3.394a.835.835,0,0,0,.834.834H128.1a.835.835,0,0,0,.834-.834V45.522a.835.835,0,0,0-.834-.834h-6.657a.844.844,0,0,1,0-1.688H128.1a2.525,2.525,0,0,1,2.522,2.522v3.394A2.525,2.525,0,0,1,128.1,51.438Z" transform="translate(-107 -43)" fill="#665f7f"/></g><g transform="translate(15.718 0)"><path d="M190.35,23.219a.844.844,0,0,1-.842-.8,1.962,1.962,0,0,0-.628-1.207,1.782,1.782,0,0,0-1.268-.525,1.894,1.894,0,0,0-1.9,1.723.844.844,0,0,1-1.686-.071A3.574,3.574,0,0,1,187.612,19a3.458,3.458,0,0,1,2.461,1.019,3.6,3.6,0,0,1,1.12,2.312.844.844,0,0,1-.8.887Z" transform="translate(-184.029 -19)" fill="#665f7f"/></g><g transform="translate(0 4.219)"><path d="M72.969,108.782H35.844a.844.844,0,0,1-.844-.844V59.844A.844.844,0,0,1,35.844,59h7.594a.844.844,0,0,1,0,1.688h-6.75v46.407H72.125v-5.906a.844.844,0,1,1,1.688,0v6.75A.844.844,0,0,1,72.969,108.782Z" transform="translate(-35 -59)" fill="#665f7f"/></g><g transform="translate(29.532 4.219)"><path d="M323.438,75.031a.844.844,0,0,1-.844-.844v-13.5h-6.75a.844.844,0,0,1,0-1.688h7.594a.844.844,0,0,1,.844.844V74.188A.844.844,0,0,1,323.438,75.031Z" transform="translate(-315 -59)" fill="#665f7f"/></g><g transform="translate(3.375 7.611)"><path d="M98.219,134.158H67.844a.844.844,0,0,1-.844-.844V92a.844.844,0,0,1,.844-.844h4.219a.844.844,0,1,1,0,1.688H68.688V132.47H97.375v-2.514a.844.844,0,1,1,1.688,0v3.358A.844.844,0,0,1,98.219,134.158Z" transform="translate(-67 -91.16)" fill="#665f7f"/></g><g transform="translate(29.532 7.611)"><path d="M320.063,103.8a.844.844,0,0,1-.844-.844V92.848h-3.375a.844.844,0,0,1,0-1.688h4.219a.844.844,0,0,1,.844.844v10.952A.844.844,0,0,1,320.063,103.8Z" transform="translate(-315 -91.16)" fill="#665f7f"/></g><g transform="translate(10.969 5.906)"><path d="M155.031,76.688H139.844a.844.844,0,0,1,0-1.688h15.188a.844.844,0,0,1,0,1.688Z" transform="translate(-139 -75)" fill="#665f7f"/></g><g transform="translate(6.75 43.875)"><path d="M115.875,436.688H99.844a.844.844,0,0,1,0-1.687h16.031a.844.844,0,0,1,0,1.688Z" transform="translate(-99 -435)" fill="#665f7f"/></g><g transform="translate(6.75 39.657)"><path d="M113.344,396.688h-13.5a.844.844,0,0,1,0-1.688h13.5a.844.844,0,0,1,0,1.688Z" transform="translate(-99 -395)" fill="#665f7f"/></g><g transform="translate(6.75 35.438)"><path d="M111.656,356.688H99.844a.844.844,0,0,1,0-1.687h11.813a.844.844,0,0,1,0,1.688Z" transform="translate(-99 -355)" fill="#665f7f"/></g><g transform="translate(6.75 31.219)"><path d="M111.656,316.688H99.844a.844.844,0,0,1,0-1.688h11.813a.844.844,0,0,1,0,1.688Z" transform="translate(-99 -315)" fill="#665f7f"/></g><g transform="translate(6.75 27)"><path d="M113.344,276.688h-13.5a.844.844,0,0,1,0-1.688h13.5a.844.844,0,0,1,0,1.688Z" transform="translate(-99 -275)" fill="#665f7f"/></g><g transform="translate(31.98 31.268)"><path d="M340.763,320.714a.834.834,0,0,1-.2-.024.844.844,0,0,1-.543-.417l-1.705-3.142a.844.844,0,0,1,1.483-.805l1.26,2.321,4.458-3.036a.844.844,0,0,1,.95,1.395l-5.229,3.562A.844.844,0,0,1,340.763,320.714Z" transform="translate(-338.214 -315.465)" fill="#665f7f"/></g><g transform="translate(7.567 15.121)"><path d="M110.291,171.674a.844.844,0,0,1-.734-.428l-2.7-4.773a.844.844,0,0,1,1.468-.831l2.225,3.929,9.165-7.025a.844.844,0,0,1,1.027,1.339L110.8,171.5A.844.844,0,0,1,110.291,171.674Z" transform="translate(-106.744 -162.372)" fill="#665f7f"/></g></g></g></g></svg>