<svg xmlns="http://www.w3.org/2000/svg" xmlns:xlink="http://www.w3.org/1999/xlink" width="102" height="102" viewBox="0 0 102 102"><defs><filter id="a" x="0" y="0" width="102" height="102" filterUnits="userSpaceOnUse"><feOffset dy="3" input="SourceAlpha"/><feGaussianBlur stdDeviation="3" result="b"/><feFlood flood-opacity="0.161"/><feComposite operator="in" in2="b"/><feComposite in="SourceGraphic"/></filter></defs><g transform="translate(-382 -4291)"><g transform="translate(-732.333 4198)"><g transform="matrix(1, 0, 0, 1, 1114.33, 93)" filter="url(#a)"><g transform="translate(9 6)" fill="#ebf9f0" stroke="#fff" stroke-width="4"><circle cx="42" cy="42" r="42" stroke="none"/><circle cx="42" cy="42" r="40" fill="none"/></g></g></g><g transform="translate(395 4312.025)"><g transform="translate(19.436 13.276)"><path d="M93.76,123.705a12.169,12.169,0,0,0-6.625,1.952.806.806,0,0,0-.242,1.109l.384.6a10.729,10.729,0,0,0-.084,17.035.806.806,0,0,0,1.134-.148l.541-.708a8.966,8.966,0,0,0,4.893,1.434,9.075,9.075,0,0,0,9.025-8.254h2.382a.806.806,0,0,0,.806-.79c0-.007,0-.014,0-.021A12.227,12.227,0,0,0,93.76,123.705Zm-5.7,18.248-.5.652a9.12,9.12,0,0,1,.586-13.873l4.553,7.144Zm5.7,1.417a7.374,7.374,0,0,1-3.912-1.108L91.12,140.6l2.958-3.873,7.09,0A7.464,7.464,0,0,1,93.76,143.37Zm8.258-8.254h0l-7.9,0-5.073-7.961h0l-.35-.55a10.6,10.6,0,0,1,15.634,8.516Z" transform="translate(-83.03 -123.705)" fill="#665f7f"/></g><g transform="translate(20.754 37.803)"><g transform="translate(0)"><path d="M114.99,352.237H96.119a.806.806,0,1,0,0,1.611H114.99a.806.806,0,1,0,0-1.611Z" transform="translate(-95.313 -352.237)" fill="#665f7f"/></g></g><g transform="translate(20.754 41.363)"><g transform="translate(0)"><path d="M109.13,385.408H96.119a.806.806,0,1,0,0,1.611H109.13a.806.806,0,0,0,0-1.611Z" transform="translate(-95.313 -385.408)" fill="#665f7f"/></g></g><g transform="translate(11.79)"><g transform="translate(0)"><path d="M60.484,37.139a9.109,9.109,0,0,0,2.047-5.748V29.006H63.4a.806.806,0,0,0,.806-.806V24.838a.805.805,0,0,0-.806-.806H50.025V5.437a.806.806,0,0,0-.806-.806h-6.84V3.611a.806.806,0,0,0-.806-.806h-6.5a4.493,4.493,0,0,0-8.327,0h-6.5a.806.806,0,0,0-.806.806V4.631H12.6a.806.806,0,0,0-.806.806V50.178a.806.806,0,0,0,.806.806H42.667v3.161a.805.805,0,0,0,.806.806H63.4a.805.805,0,0,0,.806-.806V50.782a.806.806,0,0,0-.806-.806h-.873V47.591a9.09,9.09,0,0,0-4.963-8.1A9.145,9.145,0,0,0,60.484,37.139Zm2.114-11.5v1.751H44.279V25.643H62.6ZM21.047,8.256V4.416h6.281a.805.805,0,0,0,.782-.614,2.88,2.88,0,0,1,5.593,0,.806.806,0,0,0,.782.614h6.282V9H21.047ZM13.4,49.372V6.243h6.035V7.451h-3.4a.806.806,0,0,0-.806.806V34.288a.806.806,0,0,0,1.611,0V9.062h2.6V9.8a.806.806,0,0,0,.806.806H41.573a.806.806,0,0,0,.806-.806V9.062h2.6v3.83a.806.806,0,1,0,1.611,0V8.256a.806.806,0,0,0-.806-.806h-3.4V6.243h6.035V24.032H46.589V16.114a.806.806,0,1,0-1.611,0v7.918h-1.5a.806.806,0,0,0-.806.806V28.2a.806.806,0,0,0,.806.806h.873v2.385c0,.116,0,.232.008.348,0,.019,0,.038,0,.057s0,.062.005.094c0,.069.009.137.014.206,0,.031,0,.061.007.092.009.1.021.2.033.305,0,.011,0,.022,0,.033s0,.029.005.044a9.011,9.011,0,0,0,.555,2.158v9.528a8.992,8.992,0,0,0-.535,2.016H16.837V37.51a.806.806,0,1,0-1.611,0v9.566a.806.806,0,0,0,.806.806H44.346v1.49H13.4Zm49.2,2.215v1.751H44.279V51.587H62.6ZM48.415,49.976v-.63a5.024,5.024,0,0,1,10.047,0v.63ZM55.025,38.7a.806.806,0,0,0,0,1.575,7.518,7.518,0,0,1,5.895,7.312v2.385h-.847v-.63a6.635,6.635,0,0,0-13.27,0v.63h-.847V47.591c0-.1,0-.2.006-.293,0-.03,0-.061,0-.091s0-.062.006-.093c.006-.089.013-.178.022-.266,0-.035.007-.069.011-.1q.01-.088.022-.175c.011-.077.022-.153.035-.229.006-.035.013-.07.019-.105.011-.061.023-.121.036-.182.008-.035.015-.07.023-.105q.025-.112.054-.222c0-.018.009-.035.013-.053q.037-.139.08-.275l.02-.062q.037-.115.077-.229l.018-.05a7.517,7.517,0,0,1,5.446-4.776.806.806,0,0,0,0-1.575,7.516,7.516,0,0,1-5.446-4.776l-.018-.049c-.027-.076-.053-.153-.078-.23l-.02-.061q-.042-.137-.08-.276c0-.017-.009-.035-.013-.052q-.029-.111-.055-.223c-.008-.035-.015-.07-.023-.105q-.019-.091-.036-.182c-.007-.035-.013-.07-.019-.105-.015-.085-.028-.171-.04-.257l0-.017v-.009c0-.013,0-.026,0-.039Q46,32.2,45.99,32.08c0-.022,0-.044-.005-.066s0-.054-.006-.081c0-.052-.008-.1-.01-.157,0-.022,0-.045,0-.067,0-.105-.008-.211-.008-.317V29.006H60.92v2.385A7.518,7.518,0,0,1,55.025,38.7Zm-8.436,2.912V37.367a9.128,9.128,0,0,0,.9.9l.1.086c.077.065.155.128.234.19s.143.111.216.165l.1.075c.089.064.178.126.269.187v1.047c-.091.061-.181.124-.27.187l-.1.074q-.11.082-.218.167c-.079.061-.156.125-.232.189l-.1.087A9.089,9.089,0,0,0,46.589,41.615Z" transform="translate(-11.79)" fill="#665f7f"/></g></g><g transform="translate(46.803 30.741)"><path d="M350.494,286.434H344.62a.806.806,0,0,0,0,1.611h5a5.024,5.024,0,0,1-9.918,0H341.4a.806.806,0,0,0,0-1.611h-2.562a.806.806,0,0,0-.806.806,6.635,6.635,0,0,0,13.27,0A.806.806,0,0,0,350.494,286.434Z" transform="translate(-338.03 -286.434)" fill="#665f7f"/></g></g></g></svg>