<svg xmlns="http://www.w3.org/2000/svg" xmlns:xlink="http://www.w3.org/1999/xlink" width="630.463" height="630.485" viewBox="0 0 630.463 630.485"><defs><filter id="a" x="0" y="0" width="308.78" height="308.801" filterUnits="userSpaceOnUse"><feOffset dy="3" input="SourceAlpha"/><feGaussianBlur stdDeviation="3" result="b"/><feFlood flood-opacity="0.161"/><feComposite operator="in" in2="b"/><feComposite in="SourceGraphic"/></filter><filter id="c" x="321.682" y="0" width="308.78" height="308.801" filterUnits="userSpaceOnUse"><feOffset dy="3" input="SourceAlpha"/><feGaussianBlur stdDeviation="3" result="d"/><feFlood flood-opacity="0.161"/><feComposite operator="in" in2="d"/><feComposite in="SourceGraphic"/></filter><filter id="e" x="0" y="321.704" width="308.779" height="308.781" filterUnits="userSpaceOnUse"><feOffset dy="3" input="SourceAlpha"/><feGaussianBlur stdDeviation="3" result="f"/><feFlood flood-opacity="0.161"/><feComposite operator="in" in2="f"/><feComposite in="SourceGraphic"/></filter><filter id="g" x="321.682" y="321.704" width="308.78" height="308.781" filterUnits="userSpaceOnUse"><feOffset dy="3" input="SourceAlpha"/><feGaussianBlur stdDeviation="3" result="h"/><feFlood flood-opacity="0.161"/><feComposite operator="in" in2="h"/><feComposite in="SourceGraphic"/></filter></defs><g transform="translate(-485.649 -2603.761)"><g transform="matrix(1, 0, 0, 1, 485.65, 2603.76)" filter="url(#a)"><path d="M785.483,374.173v290.8H494.7V479.764A105.591,105.591,0,0,1,600.294,374.173Z" transform="translate(-485.7 -368.17)" fill="#fff6dd"/></g><g transform="matrix(1, 0, 0, 1, 485.65, 2603.76)" filter="url(#c)"><path d="M1705.47,479.764V664.974H1414.69v-290.8h185.19A105.59,105.59,0,0,1,1705.47,479.764Z" transform="translate(-1084.01 -368.17)" fill="#ffe9e2"/></g><g transform="matrix(1, 0, 0, 1, 485.65, 2603.76)" filter="url(#e)"><path d="M785.482,1294.22V1585H600.294A105.591,105.591,0,0,1,494.7,1479.41V1294.22Z" transform="translate(-485.7 -966.52)" fill="#f5f2ff"/></g><g transform="matrix(1, 0, 0, 1, 485.65, 2603.76)" filter="url(#g)"><path d="M1705.47,1294.22v185.19A105.59,105.59,0,0,1,1599.88,1585H1414.69V1294.22Z" transform="translate(-1084.01 -966.52)" fill="#ebf9f0"/></g><rect width="306" height="250" rx="23" transform="translate(648.048 2791.203)" fill="#fff"/><path d="M1678.169,11727h-153v-102a23,23,0,0,1,23-23h130v125Z" transform="translate(-877.12 -8810.996)" fill="#ebe5ff"/><path d="M1678.169,11727h-153v-102a23,23,0,0,1,23-23h130v125Z" transform="translate(2479.049 14642.762) rotate(180)" fill="#ebe5ff"/><path d="M153,125H23A23,23,0,0,1,0,102V0H153V125h0Z" transform="translate(953.881 2916.003) rotate(180)" fill="#d6f3e1"/><path d="M153,125H23A23,23,0,0,1,0,102V0H153V125h0Z" transform="translate(648.048 2915.761)" fill="#d6f3e1"/><text transform="translate(541 2677.761)" fill="#12263f" font-size="16" font-family="Roboto-Regular, Roboto"><tspan x="0" y="17">Uso de gráficos, tableros y </tspan><tspan x="0" y="41">mapas de calor para facilitar </tspan><tspan x="0" y="65">la comprensión.</tspan></text><text transform="translate(871 2677.761)" fill="#12263f" font-size="16" font-family="Roboto-Regular, Roboto"><tspan x="0" y="17">Relatos breves que explican </tspan><tspan x="0" y="41">el contexto, el resultado y la </tspan><tspan x="0" y="65">recomendación.</tspan></text><text transform="translate(849 3061.761)" fill="#12263f" font-size="16" font-family="Roboto-Regular, Roboto"><tspan x="0" y="17">Documento breve que resume </tspan><tspan x="0" y="41">hallazgos clave, aprendizajes y </tspan><tspan x="0" y="65">decisiones sugeridas.</tspan></text><text transform="translate(530 3061.761)" fill="#12263f" font-size="16" font-family="Roboto-Regular, Roboto"><tspan x="0" y="17">Codificación por colores para </tspan><tspan x="0" y="41">identificar logros (verde), </tspan><tspan x="0" y="65">alertas (amarillo) y fallas (rojo).</tspan></text><text transform="translate(668.428 2821.761)" fill="#12263f" font-size="16" font-family="Roboto-Regular, Roboto"><tspan x="0" y="17">Visualización de </tspan><tspan x="0" y="41">datos.</tspan></text><text transform="translate(668.428 2946.761)" fill="#12263f" font-size="16" font-family="Roboto-Regular, Roboto"><tspan x="0" y="17">Semáforos de </tspan><tspan x="0" y="41">desempeño.</tspan></text><text transform="translate(816.331 2821.761)" fill="#12263f" font-size="16" font-family="Roboto-Regular, Roboto"><tspan x="0" y="17">Narrativas </tspan><tspan x="0" y="41">estratégicas.</tspan></text><text transform="translate(816.331 2946.761)" fill="#12263f" font-size="16" font-family="Roboto-Regular, Roboto"><tspan x="0" y="17">Informe </tspan><tspan x="0" y="41">ejecutivo.</tspan></text><path d="M90.685,88.323H89.229V51.893a2.061,2.061,0,0,0-2.059-2.059H76.677a2.061,2.061,0,0,0-2.059,2.059V88.323H70.4V60a2.061,2.061,0,0,0-2.059-2.059H57.85A2.061,2.061,0,0,0,55.791,60V88.323H51.574V68.12a2.061,2.061,0,0,0-2.059-2.059H39.023a2.061,2.061,0,0,0-2.059,2.059v20.2H32.747V76.237a2.061,2.061,0,0,0-2.059-2.059H20.2a2.061,2.061,0,0,0-2.059,2.059V88.323H16.054a1.338,1.338,0,1,0,0,2.675H90.685a1.338,1.338,0,1,0,0-2.675ZM77.294,52.509h9.259V88.323H77.294ZM58.467,60.621h9.259v27.7H58.467ZM39.639,68.737H48.9V88.323H39.639ZM20.812,76.853h9.259v11.47H20.812Zm19.128-32.9a17.989,17.989,0,0,0,5.3-12.8A1.338,1.338,0,0,0,43.9,29.811H28.473V14.375a1.338,1.338,0,0,0-1.338-1.338,18.111,18.111,0,1,0,12.8,30.916ZM16.222,42.062A15.438,15.438,0,0,1,25.8,15.77V31.149a1.338,1.338,0,0,0,1.338,1.338H42.51a15.432,15.432,0,0,1-26.287,9.576h0ZM32.178,27.444H48.946a1.338,1.338,0,0,0,1.338-1.338,18.147,18.147,0,0,0-.974-5.887h5.572L59.7,25.036a1.338,1.338,0,1,0,1.892-1.892l-5.208-5.208a1.338,1.338,0,0,0-.946-.392H48.143A18.159,18.159,0,0,0,32.178,7.995,1.338,1.338,0,0,0,30.84,9.333V26.106a1.338,1.338,0,0,0,1.338,1.338Zm1.338-16.716a15.342,15.342,0,0,1,9.575,4.466,15.561,15.561,0,0,1,1.928,2.351H40.308a1.338,1.338,0,1,0,0,2.675h6.144a15.34,15.34,0,0,1,1.1,4.549H33.516V10.728ZM55.73,46.755a7.056,7.056,0,0,0,.165,1.512L49.784,50.9a7.051,7.051,0,0,0-12.717,5.48l-6.106,2.634a7.052,7.052,0,1,0,1.061,2.456l6.106-2.634a7.051,7.051,0,0,0,12.717-5.48l6.11-2.632a7.051,7.051,0,0,0,12.716-5.484l6.111-2.632a7.049,7.049,0,1,0-1.06-2.456l-6.111,2.632A7.051,7.051,0,0,0,55.73,46.755Zm-30.6,20.606a4.381,4.381,0,1,1,4.383-4.378,4.383,4.383,0,0,1-4.383,4.378Zm18.827-8.116a4.378,4.378,0,1,1,4.378-4.378A4.383,4.383,0,0,1,43.956,59.245ZM81.611,34.26a4.378,4.378,0,1,1-4.378,4.378A4.383,4.383,0,0,1,81.611,34.26ZM62.784,42.372a4.381,4.381,0,1,1-4.378,4.383A4.386,4.386,0,0,1,62.784,42.372Z" transform="translate(520.965 2776.766)" fill="#4c6f59"/><g transform="translate(989.21 2946.761)"><path d="M58.493,0H7.355A4.578,4.578,0,0,0,2.79,4.565V71.5a4.578,4.578,0,0,0,4.565,4.565H9.742v.22A6.718,6.718,0,0,0,16.447,83H73.369a5.188,5.188,0,0,0,5.188-5.188V54.056a5.188,5.188,0,0,0-5.188-5.188H70V13.657a6.731,6.731,0,0,0-6.705-6.718h-.233V4.565A4.578,4.578,0,0,0,58.493,0Zm-48.4,19.454a3.1,3.1,0,0,0-.169.272v.13a1.79,1.79,0,0,0,0,.259s0,.065,0,.091V73.381H7.355a2.049,2.049,0,0,1-2.049-2.049V4.565A2.049,2.049,0,0,1,7.355,2.516H58.493a2.049,2.049,0,0,1,2.049,2.049V6.939H21.116a1.3,1.3,0,0,0-.96.454Zm10.752-8.015v7.639h-6.99ZM70,51.4h3.372a2.659,2.659,0,0,1,0,5.317H70Zm-1.3,7.782h4.63a5.422,5.422,0,0,0,.934-.091H74.5a3.891,3.891,0,0,0,.778-.233h.091A5.759,5.759,0,0,0,76,58.544V77.816a2.659,2.659,0,0,1-2.672,2.659H28.3V59.231ZM63.292,9.455a4.215,4.215,0,0,1,4.2,4.2V56.715H27.043a1.3,1.3,0,0,0-1.3,1.3V80.488H16.408a4.2,4.2,0,0,1-4.189-4.2v-54.7h9.844a1.3,1.3,0,0,0,1.3-1.3V9.455Z" fill="#4c6f59"/><path d="M16.365,23.925H38.413a1.3,1.3,0,1,0,0-2.516H16.365a1.3,1.3,0,0,0,0,2.516Z" transform="translate(3.739 6.346)" fill="#4c6f59"/><path d="M21.859,18.3H36.968a1.3,1.3,0,0,0,0-2.516H21.859a1.3,1.3,0,1,0,0,2.516Z" transform="translate(5.184 4.677)" fill="#4c6f59"/><path d="M55.9,27H16.365a1.3,1.3,0,0,0,0,2.516H55.9A1.3,1.3,0,0,0,55.9,27Z" transform="translate(3.739 8.017)" fill="#4c6f59"/><path d="M55.9,32.669H16.365a1.3,1.3,0,0,0,0,2.516H55.9a1.3,1.3,0,1,0,0-2.516Z" transform="translate(3.739 9.689)" fill="#4c6f59"/><path d="M55.9,38.28H16.365a1.3,1.3,0,0,0,0,2.516H55.9a1.3,1.3,0,0,0,0-2.516Z" transform="translate(3.739 11.367)" fill="#4c6f59"/><path d="M38.607,25.911H49.384a1.3,1.3,0,0,0,1.3-1.3V15.977a1.3,1.3,0,0,0-1.3-1.3H38.607a1.3,1.3,0,0,0-1.3,1.3v8.677A1.3,1.3,0,0,0,38.607,25.911Zm1.3-8.689h8.261V23.4h-8.3Z" transform="translate(10.25 4.359)" fill="#4c6f59"/><path d="M30.685,57.786H57.674a1.3,1.3,0,0,0,0-2.516H30.685a1.3,1.3,0,0,0,0,2.516Z" transform="translate(7.991 16.412)" fill="#4c6f59"/><path d="M30.685,52.156H57.674a1.3,1.3,0,0,0,0-2.516H30.685a1.3,1.3,0,0,0,0,2.516Z" transform="translate(7.991 14.74)" fill="#4c6f59"/></g><g transform="translate(532 2946.761)"><path d="M72.933,65.933V4.3a4.3,4.3,0,0,0-4.3-4.3H11.3A4.3,4.3,0,0,0,7,4.3V81.7A4.3,4.3,0,0,0,11.3,86H52.867a4.279,4.279,0,0,0,3.082-1.313L71.628,69.014h0a4.284,4.284,0,0,0,1.306-3.08Zm-20.067,17.2H11.3A1.433,1.433,0,0,1,9.867,81.7V4.3A1.433,1.433,0,0,1,11.3,2.867H68.633A1.433,1.433,0,0,1,70.067,4.3V65.933a1.433,1.433,0,0,1-1.433,1.433H58.6a4.3,4.3,0,0,0-4.3,4.3V81.7a1.433,1.433,0,0,1-.4.98l-.029.027h0A1.433,1.433,0,0,1,52.867,83.133Zm13.486-12.9-9.186,9.183v-7.75A1.433,1.433,0,0,1,58.6,70.233Z" transform="translate(0)" fill="#4c6f59"/><path d="M31.487,5.573l-2.246,3a4.26,4.26,0,0,0-2.341-.7H18.3a4.3,4.3,0,0,0-4.3,4.3v8.6a4.3,4.3,0,0,0,4.3,4.3h8.6a4.3,4.3,0,0,0,4.3-4.3v-8.6a4.27,4.27,0,0,0-.186-1.185L33.78,7.293a1.433,1.433,0,0,0-2.293-1.72ZM28.333,20.767A1.433,1.433,0,0,1,26.9,22.2H18.3a1.433,1.433,0,0,1-1.433-1.433v-8.6A1.433,1.433,0,0,1,18.3,10.733h8.6a1.4,1.4,0,0,1,.608.143l-3.629,4.839-1.7-1.7a1.433,1.433,0,1,0-2.027,2.027l2.867,2.867a1.433,1.433,0,0,0,1.013.423h.1a1.433,1.433,0,0,0,1.045-.573l3.153-4.205Z" transform="translate(3.033 2.167)" fill="#4c6f59"/><path d="M31.487,22.573l-2.246,3a4.26,4.26,0,0,0-2.341-.7H18.3a4.3,4.3,0,0,0-4.3,4.3v8.6a4.3,4.3,0,0,0,4.3,4.3h8.6a4.3,4.3,0,0,0,4.3-4.3v-8.6a4.27,4.27,0,0,0-.186-1.185l2.766-3.688a1.433,1.433,0,1,0-2.293-1.72ZM28.333,37.767A1.433,1.433,0,0,1,26.9,39.2H18.3a1.433,1.433,0,0,1-1.433-1.433v-8.6A1.433,1.433,0,0,1,18.3,27.733h8.6a1.4,1.4,0,0,1,.608.143l-3.629,4.839-1.7-1.7a1.433,1.433,0,1,0-2.027,2.027l2.867,2.867a1.433,1.433,0,0,0,1.013.423h.1a1.433,1.433,0,0,0,1.045-.573l3.153-4.205Z" transform="translate(3.033 9.533)" fill="#4c6f59"/><path d="M31.487,39.573l-2.246,3a4.26,4.26,0,0,0-2.341-.7H18.3a4.3,4.3,0,0,0-4.3,4.3v8.6a4.3,4.3,0,0,0,4.3,4.3h8.6a4.3,4.3,0,0,0,4.3-4.3v-8.6a4.27,4.27,0,0,0-.186-1.185l2.766-3.688a1.433,1.433,0,0,0-2.293-1.72ZM28.333,54.767A1.433,1.433,0,0,1,26.9,56.2H18.3a1.433,1.433,0,0,1-1.433-1.433v-8.6A1.433,1.433,0,0,1,18.3,44.733h8.6a1.4,1.4,0,0,1,.608.143l-3.629,4.839-1.7-1.7a1.433,1.433,0,1,0-2.027,2.027l2.867,2.867a1.433,1.433,0,0,0,1.013.423h.1a1.433,1.433,0,0,0,1.045-.573l3.153-4.205Z" transform="translate(3.033 16.9)" fill="#4c6f59"/><path d="M30.433,11.867H53.367a1.433,1.433,0,0,0,0-2.867H30.433a1.433,1.433,0,1,0,0,2.867Z" transform="translate(9.533 3.9)" fill="#4c6f59"/><path d="M30.433,16.867H40.467a1.433,1.433,0,0,0,0-2.867H30.433a1.433,1.433,0,1,0,0,2.867Z" transform="translate(9.533 6.067)" fill="#4c6f59"/><path d="M30.433,28.867H53.367a1.433,1.433,0,0,0,0-2.867H30.433a1.433,1.433,0,1,0,0,2.867Z" transform="translate(9.533 11.267)" fill="#4c6f59"/><path d="M30.433,33.867H40.467a1.433,1.433,0,0,0,0-2.867H30.433a1.433,1.433,0,0,0,0,2.867Z" transform="translate(9.533 13.433)" fill="#4c6f59"/><path d="M54.8,44.433A1.433,1.433,0,0,0,53.367,43H30.433a1.433,1.433,0,1,0,0,2.867H53.367A1.433,1.433,0,0,0,54.8,44.433Z" transform="translate(9.533 18.633)" fill="#4c6f59"/><path d="M40.467,48H30.433a1.433,1.433,0,0,0,0,2.867H40.467a1.433,1.433,0,0,0,0-2.867Z" transform="translate(9.533 20.8)" fill="#4c6f59"/></g><g transform="translate(987.161 2782.761)"><path d="M35.811,36.338,34.5,43.947A1.383,1.383,0,0,0,36.512,45.4l6.835-3.6,6.837,3.6a1.383,1.383,0,0,0,2-1.455l-1.306-7.609,5.534-5.4a1.383,1.383,0,0,0-.768-2.36l-7.642-1.107-3.418-6.917a1.44,1.44,0,0,0-2.482,0l-3.417,6.917-7.642,1.107a1.383,1.383,0,0,0-.766,2.36Zm4-6.225a1.383,1.383,0,0,0,1.042-.757l2.5-5.063,2.5,5.063a1.383,1.383,0,0,0,1.04.757l5.589.812-4.044,3.934a1.383,1.383,0,0,0-.4,1.224l.955,5.565-5-2.628a1.383,1.383,0,0,0-1.288,0l-5,2.628.955-5.565a1.383,1.383,0,0,0-.4-1.223L34.22,30.918Z" transform="translate(10.36 6.845)" fill="#4c6f59"/><path d="M13.614,45.782H4.222a1.383,1.383,0,0,0-1.383,1.383v25.07a1.383,1.383,0,0,0,1.383,1.383h9.392A1.383,1.383,0,0,0,15,72.235V70.824h.515a2.628,2.628,0,0,1,2.213,1.237A5.352,5.352,0,0,0,22.2,74.472h1.7v5.413A5.119,5.119,0,0,0,29.02,85H78.407a5.119,5.119,0,0,0,5.119-5.119V19.279a5.131,5.131,0,0,0-5.119-5.132H70.638V10.715a1.383,1.383,0,0,0-1.383-1.383H60.8V9.09a7.09,7.09,0,1,0-14.18,0v.242H38.164a1.383,1.383,0,0,0-1.383,1.383v3.431H29.014A5.13,5.13,0,0,0,23.9,19.279V41.056L17.5,48.067a1.3,1.3,0,0,1-.968.425H15V47.16a1.383,1.383,0,0,0-1.383-1.378Zm-1.383,25.07H5.606v-22.3h6.625Zm28.006-5.045H29.8a1.6,1.6,0,0,1,0-3.209H40.236a1.6,1.6,0,1,1,0,3.209Zm-.791-11.954H29.817a1.2,1.2,0,0,1,0-2.395h9.628a1.2,1.2,0,1,1,0,2.395ZM28.2,58.225a1.608,1.608,0,0,1,1.6-1.606H40.241a1.606,1.606,0,0,1,0,3.211H29.8a1.608,1.608,0,0,1-1.6-1.6Zm.155,11.914a1.569,1.569,0,0,1,1.566-1.566h7.724a1.566,1.566,0,1,1,0,3.132H29.913a1.569,1.569,0,0,1-1.566-1.566Zm11.2-58.04H48a1.383,1.383,0,0,0,1.383-1.383V9.09a4.323,4.323,0,1,1,8.646,0v1.625A1.383,1.383,0,0,0,59.414,12.1h8.457v7.47H39.547ZM29.014,16.913h7.766v4.04a1.383,1.383,0,0,0,1.383,1.383h31.09a1.383,1.383,0,0,0,1.383-1.383v-4.04H78.4a2.361,2.361,0,0,1,2.352,2.366V79.885A2.352,2.352,0,0,1,78.4,82.237H29.014a2.352,2.352,0,0,1-2.352-2.352V74.472H37.636a4.333,4.333,0,0,0,3.608-1.946H73.3a1.383,1.383,0,0,0,0-2.767H41.935a4.289,4.289,0,0,0-.362-1.415A4.369,4.369,0,0,0,44.01,66.37H66.421a1.383,1.383,0,0,0,0-2.767H44.547a4.333,4.333,0,0,0-1.137-2.389,4.351,4.351,0,0,0,.692-1h29.19a1.383,1.383,0,0,0,0-2.767H44.517A4.362,4.362,0,0,0,42.8,54.712a3.921,3.921,0,0,0,.592-2.056,3.97,3.97,0,0,0-3.948-3.965H31.186l2.262-4.236a10.1,10.1,0,0,0,1.187-4.741V38.569a4.842,4.842,0,0,0-4.915-4.817A3.055,3.055,0,0,0,26.668,36.8V19.279a2.36,2.36,0,0,1,2.346-2.366ZM16.543,51.264a4.074,4.074,0,0,0,3.006-1.328l9.089-9.977a3.043,3.043,0,0,0,.8-2.056V36.8c0-.158.127-.285.382-.285a2.053,2.053,0,0,1,2.052,2.05v1.145a7.321,7.321,0,0,1-.86,3.438l-3.247,6.077c-.01.021-.008.043-.018.064a3.915,3.915,0,0,0-1.011,5.821,4.342,4.342,0,0,0-.108,6.1,4.341,4.341,0,0,0,.068,6.058,4.232,4.232,0,0,0-.807,4.427H22.2a2.628,2.628,0,0,1-2.213-1.237,5.344,5.344,0,0,0-4.474-2.4H15V51.264Z" transform="translate(0)" fill="#4c6f59"/></g></g></svg>