<svg xmlns="http://www.w3.org/2000/svg" width="470" height="979.5" viewBox="0 0 470 979.5"><g transform="translate(-11563 9995)"><text fill="#12263f" font-family="Roboto-Bold, Roboto" font-size="16" font-weight="700" transform="translate(11583 -9852)"><tspan x="0" y="17">Acción propuesta: </tspan><tspan x="0" y="41" font-family="Roboto-Regular, Roboto" font-weight="400">descripción clara y </tspan><tspan x="0" y="65" font-family="Roboto-Regular, Roboto" font-weight="400">específica de la mejora </tspan><tspan x="0" y="89" font-family="Roboto-Regular, Roboto" font-weight="400">sugerida.</tspan></text><text fill="#12263f" font-family="Roboto-Bold, Roboto" font-size="16" font-weight="700" transform="translate(11563 -9529)"><tspan x="0" y="17">Recursos requeridos: </tspan><tspan x="0" y="41" font-family="Roboto-Regular, Roboto" font-weight="400">humanos, financieros, </tspan><tspan x="0" y="65" font-family="Roboto-Regular, Roboto" font-weight="400">tecnológicos y </tspan><tspan x="0" y="89" font-family="Roboto-Regular, Roboto" font-weight="400">temporales.</tspan></text><text fill="#12263f" font-family="Roboto-Bold, Roboto" font-size="16" font-weight="700" transform="translate(11563 -9242)"><tspan x="0" y="17">Formato de presentación. </tspan><tspan x="0" y="41" font-family="Roboto-Regular, Roboto" font-weight="400">diapositiva, documento </tspan><tspan x="0" y="65" font-family="Roboto-Regular, Roboto" font-weight="400">ejecutivo, ficha técnica.</tspan></text><text fill="#12263f" font-family="Roboto-Bold, Roboto" font-size="16" font-weight="700" transform="translate(11761 -9995)"><tspan x="0" y="17">Diagnóstico:</tspan><tspan y="17" font-family="Roboto-Regular, Roboto" font-weight="400"> </tspan><tspan font-family="Roboto-Regular, Roboto" font-weight="400"><tspan x="0" y="41">breve análisis del </tspan><tspan x="0" y="65">problema identificado.</tspan></tspan></text><text fill="#12263f" font-family="Roboto-Bold, Roboto" font-size="16" font-weight="700" transform="translate(11840 -9688)"><tspan x="0" y="17">Justificación técnica: </tspan><tspan x="0" y="41" font-family="Roboto-Regular, Roboto" font-weight="400">evidencia que respalda la </tspan><tspan x="0" y="65" font-family="Roboto-Regular, Roboto" font-weight="400">necesidad de la acción.</tspan></text><text fill="#12263f" font-family="Roboto-Bold, Roboto" font-size="16" font-weight="700" transform="translate(11842 -9392)"><tspan x="0" y="17">Resultados esperados: </tspan><tspan x="0" y="41" font-family="Roboto-Regular, Roboto" font-weight="400">indicadores de éxito y </tspan><tspan x="0" y="65" font-family="Roboto-Regular, Roboto" font-weight="400">metas proyectadas.</tspan></text><path fill="none" stroke="#cdbeff" stroke-width="3" d="m11842.653-9749.2 47.885-27.679c5.379-3.149 9.708-10.758 9.708-16.921v-55.365c0-6.166-4.46-13.775-9.708-16.924l-47.885-27.55c-5.379-3.149-14.169-3.149-19.547 0l-47.885 27.681c-5.379 3.149-9.708 10.758-9.708 16.924v55.362c0 6.166 4.46 13.775 9.708 16.924l47.885 27.681c5.379 3.018 14.169 3.018 19.547-.133Z"/><path fill="#ffedbb" d="m11840.671-9759.163 41.406-23.938c4.656-2.723 8.4-9.303 8.4-14.636v-47.879c0-5.33-3.857-11.91-8.4-14.633l-41.406-23.825c-4.652-2.723-12.253-2.723-16.9 0l-41.41 23.938c-4.652 2.723-8.4 9.3-8.4 14.635v47.878c0 5.332 3.857 11.912 8.4 14.635l41.41 23.938c4.648 2.61 12.249 2.61 16.9-.113"/><path fill="none" stroke="#cdbeff" stroke-width="3" d="m11749.328-9603.539 47.885-27.679c5.379-3.149 9.708-10.758 9.708-16.921v-55.365c0-6.166-4.46-13.775-9.708-16.924l-47.885-27.55c-5.379-3.149-14.169-3.149-19.547 0l-47.885 27.681c-5.379 3.149-9.708 10.758-9.708 16.924v55.362c0 6.166 4.46 13.775 9.708 16.924l47.885 27.681c5.379 3.018 14.169 3.018 19.547-.133Z"/><path fill="#ffedbb" d="m11747.345-9613.013 41.406-23.938c4.656-2.723 8.4-9.303 8.4-14.636v-47.879c0-5.33-3.857-11.91-8.4-14.633l-41.406-23.825c-4.652-2.723-12.253-2.723-16.9 0l-41.41 23.938c-4.652 2.723-8.4 9.3-8.4 14.635v47.878c0 5.332 3.857 11.912 8.4 14.635l41.41 23.938c4.648 2.61 12.249 2.61 16.9-.113"/><path fill="none" stroke="#cdbeff" stroke-width="3" d="m11844.618-9458.027 47.885-27.679c5.379-3.149 9.708-10.758 9.708-16.921v-55.365c0-6.166-4.46-13.775-9.708-16.924l-47.885-27.55c-5.379-3.149-14.169-3.149-19.547 0l-47.885 27.681c-5.379 3.149-9.708 10.758-9.708 16.924v55.362c0 6.166 4.46 13.775 9.708 16.924l47.885 27.681c5.379 3.018 14.169 3.018 19.547-.133Z"/><path fill="#ffedbb" d="m11842.635-9467.805 41.406-23.938c4.656-2.723 8.4-9.303 8.4-14.636v-47.879c0-5.33-3.857-11.91-8.4-14.633l-41.406-23.825c-4.652-2.723-12.253-2.723-16.9 0l-41.41 23.938c-4.652 2.723-8.4 9.3-8.4 14.635v47.878c0 5.332 3.857 11.912 8.4 14.635l41.41 23.938c4.648 2.61 12.249 2.61 16.9-.113"/><path fill="none" stroke="#cdbeff" stroke-width="3" d="m11749.328-9313.429 47.885-27.679c5.379-3.149 9.708-10.758 9.708-16.921v-55.365c0-6.166-4.46-13.775-9.708-16.924l-47.885-27.55c-5.379-3.149-14.169-3.149-19.547 0l-47.885 27.681c-5.379 3.149-9.708 10.758-9.708 16.924v55.362c0 6.166 4.46 13.775 9.708 16.924l47.885 27.681c5.379 3.018 14.169 3.018 19.547-.133Z"/><path fill="#ffedbb" d="m11747.345-9323.507 41.406-23.938c4.656-2.723 8.4-9.303 8.4-14.636v-47.879c0-5.33-3.857-11.91-8.4-14.633l-41.406-23.825c-4.652-2.723-12.253-2.723-16.9 0l-41.41 23.938c-4.652 2.723-8.4 9.3-8.4 14.635v47.878c0 5.332 3.857 11.912 8.4 14.635l41.41 23.938c4.648 2.61 12.249 2.61 16.9-.113"/><path fill="none" stroke="#cdbeff" stroke-width="3" d="m11843.636-9168.679 47.885-27.679c5.379-3.149 9.708-10.758 9.708-16.921v-55.365c0-6.166-4.46-13.775-9.708-16.924l-47.885-27.55c-5.379-3.149-14.169-3.149-19.547 0l-47.885 27.681c-5.379 3.149-9.708 10.758-9.708 16.924v55.362c0 6.166 4.46 13.775 9.708 16.924l47.885 27.681c5.379 3.018 14.169 3.018 19.547-.133Z"/><path fill="#ffedbb" d="m11841.653-9179.057 41.406-23.938c4.656-2.723 8.4-9.303 8.4-14.636v-47.879c0-5.33-3.857-11.91-8.4-14.633l-41.406-23.825c-4.652-2.723-12.253-2.723-16.9 0l-41.41 23.938c-4.652 2.723-8.4 9.3-8.4 14.635v47.878c0 5.332 3.857 11.912 8.4 14.635l41.41 23.938c4.648 2.61 12.249 2.61 16.9-.113"/><path fill="none" stroke="#cdbeff" stroke-width="3" d="m11749.328-9019.381 47.885-27.679c5.379-3.149 9.708-10.758 9.708-16.921v-55.365c0-6.166-4.46-13.775-9.708-16.924l-47.885-27.55c-5.379-3.149-14.169-3.149-19.547 0l-47.885 27.681c-5.379 3.149-9.708 10.758-9.708 16.924v55.362c0 6.166 4.46 13.775 9.708 16.924l47.885 27.681c5.379 3.018 14.169 3.018 19.547-.133Z"/><path fill="#ffedbb" d="m11747.345-9029.344 41.406-23.938c4.656-2.723 8.4-9.303 8.4-14.636v-47.879c0-5.33-3.857-11.91-8.4-14.633l-41.406-23.825c-4.652-2.723-12.253-2.723-16.9 0l-41.41 23.938c-4.652 2.723-8.4 9.3-8.4 14.635v47.878c0 5.332 3.857 11.912 8.4 14.635l41.41 23.938c4.648 2.61 12.249 2.61 16.9-.113"/><path fill="#cdbeff" d="M11869.733-9735.899a41.59 41.59 0 0 1-41.54 41.54 41.3 41.3 0 0 1-21.067-5.758 27 27 0 0 1-.147 4.018 44.8 44.8 0 0 0 21.213 5.313 45.1 45.1 0 0 0 37.399-70.32v.968h-3.695a41.3 41.3 0 0 1 7.837 24.239m-.455 291.484a41.06 41.06 0 0 1-41.015 41.012 40.77 40.77 0 0 1-20.8-5.686 26.6 26.6 0 0 1-.145 3.967 44.25 44.25 0 0 0 20.945 5.246 44.525 44.525 0 0 0 36.926-69.427v.956h-3.648a40.78 40.78 0 0 1 7.737 23.932m-.012 288.298a41.054 41.054 0 0 1-41.007 41.007 40.76 40.76 0 0 1-20.8-5.685 26.6 26.6 0 0 1-.145 3.967 44.24 44.24 0 0 0 20.941 5.245 44.517 44.517 0 0 0 36.923-69.417v.956h-3.647a40.77 40.77 0 0 1 7.735 23.927m-128.328-387.757a43.79 43.79 0 0 1-38.084-48.742 43.5 43.5 0 0 1 8.72-21.278 28.4 28.4 0 0 1-4.18-.668 47.2 47.2 0 0 0-8.28 21.488 47.484 47.484 0 0 0 68.699 48.107l-1.012-.125.474-3.862a43.5 43.5 0 0 1-26.337 5.08m.924 287.246a42.23 42.23 0 0 1-36.725-47.006 41.93 41.93 0 0 1 8.41-20.52 27.4 27.4 0 0 1-4.031-.645 45.5 45.5 0 0 0-7.985 20.721 45.789 45.789 0 0 0 66.247 46.394l-.976-.12.457-3.723a41.93 41.93 0 0 1-25.397 4.899"/><path fill="none" stroke="#cdbeff" stroke-width="2" d="M11672-9680h-51m332 150h-51m51 288h-51m-209-511h-110m76 326h-96m96 263h-96m449-452h-172m172 298h-172m-168-69h-51m51 295h-51m214.492-803.5v-26M11621-9753v73m1 253v41m0 222v73m331-525v86m0 212v76m-26.5-679.5h-165.299"/><path fill="#4c6f59" d="M11817.818-9835.556a1 1 0 0 0 .005.1l1.432 13.59a1 1 0 0 0 .99.891h3.58a1 1 0 0 0 .99-.891l1.432-13.588a1 1 0 0 0 .005-.1 4.217 4.217 0 1 0-8.434 0Zm6.443-.048-1.332 12.638h-1.788l-1.332-12.64a2.226 2.226 0 0 1 4.452 0Zm-2.226 16.594a3.584 3.584 0 1 0 3.584 3.584 3.59 3.59 0 0 0-3.584-3.584m0 5.178a1.594 1.594 0 1 1 1.594-1.594 1.6 1.6 0 0 1-1.594 1.594m51.508 17.535-7.892-13.669a1 1 0 0 0-1.36-.364l-.491.283-3.33-5.776a19.678 19.678 0 0 0-26.638-28.97l-4.453-7.713a8.4 8.4 0 0 0-7.344-4.24 8.4 8.4 0 0 0-7.344 4.24l-22.176 38.409a8.48 8.48 0 0 0 7.344 12.72h44.352a8.49 8.49 0 0 0 8.353-9.989q.194-.056.386-.116l3.334 5.774-.491.283a1 1 0 0 0-.364 1.359l7.891 13.67a6.25 6.25 0 0 0 3.651 2.892 6 6 0 0 0 1.7.248 5.66 5.66 0 0 0 2.841-.761 5.74 5.74 0 0 0 2.713-3.674 6.25 6.25 0 0 0-.679-4.607Zm-24.1-9.717a6.42 6.42 0 0 1-5.232 2.648h-44.352a6.49 6.49 0 0 1-5.62-9.735l22.175-38.41a6.49 6.49 0 0 1 11.241 0l4.728 8.19a19.6 19.6 0 0 0-1.744 2.292l-5.285-9.154a3.829 3.829 0 0 0-6.639 0l-22.175 38.409a3.829 3.829 0 0 0 3.32 5.75h44.351a3.833 3.833 0 0 0 3.759-4.587 19 19 0 0 0 2.648-.3 6.4 6.4 0 0 1-1.18 4.893Zm-19.945-33.011a19.665 19.665 0 0 0 12.521 27.759 20 20 0 0 0 3.86.638 1.834 1.834 0 0 1-1.668 2.618h-44.352a1.839 1.839 0 0 1-1.6-2.764l22.18-38.414a1.839 1.839 0 0 1 3.192 0l5.867 10.162Zm13.036 25.833a17.684 17.684 0 1 1 13.419-1.766 17.57 17.57 0 0 1-13.419 1.766m12.309 1.011a20 20 0 0 0 2.105-1.053 20 20 0 0 0 1.965-1.3l3.164 5.48-4.07 2.35Zm17.444 20.025a3.725 3.725 0 0 1-4.753 2.744 4.27 4.27 0 0 1-2.49-1.978l-7.394-12.807 6.775-3.912 7.394 12.807a4.27 4.27 0 0 1 .468 3.146m-15.893-28.784-.129-.313a.99.99 0 0 0 1.017-.109 13.8 13.8 0 0 0 3.452-3.809 1 1 0 0 0-.088-1.162l-1.254-1.486a11 11 0 0 0 .524-1.463l1.912-.353a1 1 0 0 0 .805-.843 13.8 13.8 0 0 0-.253-5.133 1 1 0 0 0-.884-.76l-1.938-.164a11 11 0 0 0-.52-1.137 1 1 0 0 0-1.185-.484l-4.343 1.39a1 1 0 0 0-.508 1.522 4.96 4.96 0 0 1-1.189 6.91 1 1 0 0 0-.308.352 4.956 4.956 0 1 1-2.1-6.69 1 1 0 0 0 1.165-.174l3.226-3.226a1 1 0 0 0-.132-1.518q-.124-.087-.251-.171l.249-1.929a1 1 0 0 0-.556-1.024 13.8 13.8 0 0 0-4.965-1.331 1 1 0 0 0-.993.609l-.749 1.795a11 11 0 0 0-1.541.2l-1.188-1.538a1 1 0 0 0-1.117-.331 13.8 13.8 0 0 0-4.451 2.57 1 1 0 0 0-.272 1.133l.739 1.8a11 11 0 0 0-.946 1.234l-1.928-.249a1 1 0 0 0-1.025.556 13.8 13.8 0 0 0-1.33 4.965 1 1 0 0 0 .609.993l1.795.749a11 11 0 0 0 .2 1.541l-1.54 1.188a1 1 0 0 0-.331 1.117 13.8 13.8 0 0 0 2.572 4.447 1 1 0 0 0 1.133.272l1.8-.739a11 11 0 0 0 1.233.945l-.249 1.929a1 1 0 0 0 .556 1.024 13.8 13.8 0 0 0 4.965 1.331h.075a1 1 0 0 0 .918-.612l.749-1.795a11 11 0 0 0 1.541-.2l1.188 1.54a1 1 0 0 0 1.116.334 13.8 13.8 0 0 0 4.451-2.57 1 1 0 0 0 .272-1.133Zm-4.717 1.574-1.126-1.459a1 1 0 0 0-1.042-.354 9.3 9.3 0 0 1-2.36.31 1 1 0 0 0-.915.612l-.71 1.7a11.8 11.8 0 0 1-2.894-.776l.24-1.833a1 1 0 0 0-.487-.988 9.3 9.3 0 0 1-1.888-1.447 1 1 0 0 0-1.08-.214l-1.7.7a11.8 11.8 0 0 1-1.5-2.595l1.455-1.125a1 1 0 0 0 .354-1.042 9.3 9.3 0 0 1-.309-2.359 1 1 0 0 0-.612-.915l-1.7-.71a11.8 11.8 0 0 1 .767-2.895l1.827.236a1 1 0 0 0 .988-.487 9.3 9.3 0 0 1 1.448-1.889 1 1 0 0 0 .214-1.08l-.7-1.7a11.8 11.8 0 0 1 2.595-1.5l1.128 1.458a1 1 0 0 0 1.042.354 9.3 9.3 0 0 1 2.359-.309 1 1 0 0 0 .916-.612l.71-1.7a11.8 11.8 0 0 1 2.894.776l-.236 1.828a1 1 0 0 0 .2.735l-1.905 1.904a6.947 6.947 0 1 0 2.32 11.426l.7 2.49a.994.994 0 0 0 1.085.716l.515 1.244a11.8 11.8 0 0 1-2.595 1.5Zm2.877-5.245a1 1 0 0 0-.3.046l-.728-2.577a6.955 6.955 0 0 0 1.758-8.094l2.348-.755c.1.232.184.467.261.7a1 1 0 0 0 .863.684l1.836.155a11.8 11.8 0 0 1 .147 2.993l-1.812.335a1 1 0 0 0-.791.765 9.3 9.3 0 0 1-.8 2.24 1 1 0 0 0 .126 1.094l1.189 1.409a11.8 11.8 0 0 1-2.012 2.22l-1.518-1.044a1 1 0 0 0-.564-.175Zm-77.199 121.59a1.2 1.2 0 0 0-.728-.557l-5.472-1.464a1.2 1.2 0 0 0-1.46.831 1.8 1.8 0 0 1-.644-.759c-1.526-3.23-4.7-4.314-7.823-5.148-3.576-.958-4.459-1.2-5.261-1.412-.852-.229-1.611-.434-5.419-1.454h-.015a3.283 3.283 0 0 0-4.1 3.235l-1.884-.5h-.012l-.909-.244a3.29 3.29 0 0 0-4 2.255h-10.239a1.2 1.2 0 0 0-.331.069l-.025.009a1 1 0 0 0-.156.075s0 0-.007 0a46 46 0 0 0-16.582 16.574v.007a1 1 0 0 0-.069.142l-.006.018a1 1 0 0 0-.042.13l-.007.03a1 1 0 0 0-.025.151v.007c0 .036-.006.073-.006.109v10.947a3.26 3.26 0 0 0-2.49 1.626 3.3 3.3 0 0 0-.439 1.509 3.295 3.295 0 0 0-3.377 4.135l.244.912v.009l.5 1.881a3.1 3.1 0 0 0-.89.112 3.3 3.3 0 0 0-2.336 3.987v.015l2.862 10.68c.836 3.122 1.921 6.3 5.151 7.824a1.77 1.77 0 0 1 .758.642 1.2 1.2 0 0 0-.833 1.463l1.469 5.472a1.194 1.194 0 0 0 1.468.845l13.392-3.591a1.2 1.2 0 0 0 .885-1.207h30.9a1.2 1.2 0 0 0 1.2-1.2v-44.773a10.75 10.75 0 0 1 5.512-1.2l-.009.034a1.2 1.2 0 0 0 .845 1.463l5.467 1.465a1.2 1.2 0 0 0 .31.04 1.2 1.2 0 0 0 1.156-.888l3.591-13.4a1.2 1.2 0 0 0-.12-.909Zm-50.218-1.135a27.8 27.8 0 0 0-.984 9.858l-10.408 1.764a43.9 43.9 0 0 1 11.4-11.622Zm-18.615 48.436-2.859-10.671a.893.893 0 0 1 1.725-.463l.6 2.24a1.2 1.2 0 0 0 1.156.888 1.2 1.2 0 0 0 .31-.04 1.2 1.2 0 0 0 .846-1.466l-.675-2.522-1.488-5.56a.895.895 0 0 1 1.728-.468l1.812 6.763a1.2 1.2 0 0 0 1.156.888 1.2 1.2 0 0 0 .31-.04 1.2 1.2 0 0 0 .846-1.466l-1.815-6.776-.006-.021v-.018l-.541-2.025a.88.88 0 0 1 .088-.672.9.9 0 0 1 .547-.419.88.88 0 0 1 .571.039l.04.018q.03.014.06.031a.88.88 0 0 1 .418.544l.8 2.987 1.918 7.161a1.2 1.2 0 0 0 1.156.888 1.2 1.2 0 0 0 .31-.04 1.2 1.2 0 0 0 .846-1.466l-1.557-5.81v-.006a.9.9 0 0 1 1.736-.443l.524 1.969 2.4 8.935a1.2 1.2 0 0 0 2.125.394l1.978-2.715a1.57 1.57 0 0 1 2.264-.618 1.49 1.49 0 0 1 .5 2.071 99 99 0 0 1-.819 1.382c-2.165 3.616-5.091 8.509-4.358 12.657l-8.7 2.332a4.1 4.1 0 0 0-2.1-2.176c-2.086-.985-2.995-3.047-3.859-6.277Zm6.236 14.244-.848-3.16 10.972-2.941.037-.007.042-.013.033-.009.846 3.158-11.081 2.966Zm43.449-4.57h-30.318l-.893-3.336a1.2 1.2 0 0 0-1.466-.848l-.03.007c-.439-3.242 2.159-7.583 4.088-10.8q.451-.75.839-1.415a3.853 3.853 0 0 0-1.268-5.276 3.956 3.956 0 0 0-5.5 1.22l-.508.7-1.748-6.51-.53-1.978v-.018a3.28 3.28 0 0 0-4.028-2.31 3.3 3.3 0 0 0-.83.352l-.347-1.292a3.27 3.27 0 0 0-1.14-1.727v-10.621l13.13-2.225a1.2 1.2 0 0 0 .988-1.319 25.15 25.15 0 0 1 1.619-12.413h6.772a3.25 3.25 0 0 0-.577 1.164 3.29 3.29 0 0 0 2.324 4.025l1.3.347a3.276 3.276 0 0 0 1.959 4.852h.015l8.487 2.285-.7.511a3.945 3.945 0 1 0 4.054 6.769c.449-.259.93-.547 1.439-.851a89 89 0 0 1 2.88-1.67v42.377Zm-4.108-42.767c-.5.3-.973.581-1.408.833a1.48 1.48 0 0 1-2.065-.493 1.57 1.57 0 0 1 .619-2.265l2.73-1.987a1.2 1.2 0 0 0-.394-2.123l-10.9-2.922a.893.893 0 0 1 .433-1.733l5.822 1.56a1.2 1.2 0 0 0 .31.04 1.2 1.2 0 0 0 .31-2.354l-5.819-1.559h-.009l-4.328-1.166a.9.9 0 0 1-.63-1.095.9.9 0 0 1 1.092-.635l2.02.544.021.006.051.012 6.743 1.807a1.2 1.2 0 0 0 .31.04 1.2 1.2 0 0 0 .31-2.354l-6.772-1.809a.894.894 0 0 1 .472-1.725l5.634 1.509 2.447.656a1.2 1.2 0 0 0 .31.04 1.2 1.2 0 0 0 .31-2.354l-2.236-.6a.895.895 0 0 1 .458-1.73c3.8 1.017 4.555 1.222 5.407 1.451.8.216 1.685.454 5.264 1.412 3.229.863 5.291 1.772 6.279 3.861a4.13 4.13 0 0 0 2.176 2.095l-2.329 8.7c-4.139-.731-9.024 2.185-12.636 4.343Zm17.783-1.677-3.155-.845 2.941-10.986c0-.01.007-.021.01-.031l.006-.028.01-.039 3.158.846-2.97 11.085Zm-34.53 28.1a4.88 4.88 0 0 0 4.855-4.451 3.34 3.34 0 0 0 1.995-5.851 12.8 12.8 0 0 1 1.978-3.871 12 12 0 0 0 2.574-7.228 11.4 11.4 0 0 0-22.8 0 12 12 0 0 0 2.577 7.228 12.8 12.8 0 0 1 1.978 3.871 3.34 3.34 0 0 0 1.993 5.852 4.88 4.88 0 0 0 4.849 4.458Zm0-2.394a2.48 2.48 0 0 1-2.439-2.05h4.88a2.48 2.48 0 0 1-2.439 2.05Zm-9.007-19.006a9.008 9.008 0 0 1 18.015 0c0 2.646-1.006 4.154-2.171 5.9a15.5 15.5 0 0 0-2.244 4.371h-3.4v-8.29a3.64 3.64 0 0 0 2.95-3.348 1.2 1.2 0 1 0-2.393 0c0 .523-.72 1.1-1.754 1.1s-1.749-.581-1.749-1.1a1.2 1.2 0 1 0-2.393 0 3.64 3.64 0 0 0 2.946 3.348v8.292h-3.392a15.4 15.4 0 0 0-2.242-4.374c-1.167-1.745-2.173-3.251-2.173-5.9Zm3.408 13.614a.95.95 0 0 1 .951-.946h9.3a.95.95 0 0 1 0 1.9h-9.3a.964.964 0 0 1-.952-.955Zm22.012 10.777a1.2 1.2 0 0 1-1.2 1.2h-18.686a1.2 1.2 0 1 1 0-2.393h18.69a1.2 1.2 0 0 1 1.196 1.193m-10.243 5.888a1.2 1.2 0 0 1-1.2 1.2h-8.443a1.2 1.2 0 1 1 0-2.393h8.447a1.2 1.2 0 0 1 1.196 1.193"/><g fill="#4c6f59" transform="translate(11807.544 -9564.479)"><path d="M45.347 66.562H6.656a1.11 1.11 0 0 1-1.109-1.109V1.109A1.11 1.11 0 0 1 6.656 0h29.953a1.1 1.1 0 0 1 .832.367l9.984 11.094a1.1 1.1 0 0 1 .277.742v45.068a1.11 1.11 0 0 1-2.219 0V12.629l-9.369-10.41H7.764v62.125h37.583a1.11 1.11 0 0 1 0 2.219Z"/><path d="M41.047 71H1.109A1.11 1.11 0 0 1 0 69.891V6.656a1.11 1.11 0 0 1 1.109-1.109h5.547a1.11 1.11 0 0 1 0 2.219H2.219v61.016h37.719v-3.329a1.11 1.11 0 0 1 2.219 0v4.438A1.11 1.11 0 0 1 41.047 71m5.547-57.688H36.61A1.11 1.11 0 0 1 35.5 12.2V1.109a1.11 1.11 0 0 1 2.219 0v9.984h8.875a1.11 1.11 0 1 1 0 2.219"/><path d="M26.688 56.638a14.422 14.422 0 1 1 10.2-4.22 14.42 14.42 0 0 1-10.2 4.22m0-26.625a5.052 5.052 0 1 1 0 .006Z"/><path d="M26.764 47.149a8.91 8.91 0 0 1-7.684-4.437 1.11 1.11 0 0 1 0-1.109 8.875 8.875 0 0 1 15.368 0 1.11 1.11 0 0 1 0 1.109 8.91 8.91 0 0 1-7.684 4.437m-5.408-4.992a6.656 6.656 0 0 0 10.816 0 6.656 6.656 0 0 0-10.816 0"/><path d="M26.763 43.266a1 1 0 0 1-.216-.022 1 1 0 0 1-.208-.062 1 1 0 0 1-.191-.1 1.05 1.05 0 0 1-.306-.306 1 1 0 0 1-.1-.191 1 1 0 0 1-.062-.208 1.1 1.1 0 0 1 0-.433 1 1 0 0 1 .062-.208 1 1 0 0 1 .1-.191 1.05 1.05 0 0 1 .306-.306 1.11 1.11 0 0 1 1.231 0 1 1 0 0 1 .169.139 1 1 0 0 1 .139.169 1 1 0 0 1 .1.191 1 1 0 0 1 .062.208 1.1 1.1 0 0 1 0 .433 1 1 0 0 1-.062.208 1 1 0 0 1-.1.191 1 1 0 0 1-.139.169 1.12 1.12 0 0 1-.785.319m24.335 27.662a4.4 4.4 0 0 1-3.138-1.3L37.673 59.479a1.11 1.11 0 0 1 0-1.574l4.707-4.707a1.11 1.11 0 0 1 1.563 0l10.294 10.154a4.447 4.447 0 0 1 0 6.282 4.4 4.4 0 0 1-3.139 1.294M40.03 58.689l9.5 9.37a2.219 2.219 0 1 0 3.142-3.133l-9.5-9.375Z"/><path d="M40.804 57.444a1.1 1.1 0 0 1-.784-.324l-4.707-4.7a1.112 1.112 0 1 1 1.573-1.573l4.707 4.707a1.109 1.109 0 0 1-.785 1.893ZM32.172 7.766H11.093a1.11 1.11 0 0 1 0-2.219h21.078a1.11 1.11 0 0 1 0 2.219Zm0 5.547H11.093a1.11 1.11 0 0 1 0-2.219h21.078a1.11 1.11 0 0 1 0 2.219Zm9.984 5.547H11.093a1.11 1.11 0 0 1 0-2.219h31.063a1.11 1.11 0 0 1 0 2.219m0 5.547H11.093a1.11 1.11 0 0 1 0-2.219h31.063a1.11 1.11 0 0 1 0 2.219M34.39 62.125h-23.3a1.11 1.11 0 0 1 0-2.219h23.3a1.11 1.11 0 0 1 0 2.219"/></g><g fill="#4c6f59" transform="translate(11710.791 -9421.723)"><path d="M14.983 32.271h16.135a1.153 1.153 0 0 0 1.152-1.151v-3.46a9.22 9.22 0 0 0-5.417-8.39 5.67 5.67 0 0 0 1.959-4.287 5.763 5.763 0 0 0-11.525 0 5.67 5.67 0 0 0 1.959 4.287 9.22 9.22 0 0 0-5.416 8.39v3.46a1.153 1.153 0 0 0 1.153 1.151m4.61-17.288a3.458 3.458 0 1 1 3.457 3.457 3.46 3.46 0 0 1-3.458-3.458ZM16.135 27.66a6.915 6.915 0 0 1 13.83 0v2.305h-13.83ZM4.61 34.576h36.881v2.305H4.61zm0 4.61h36.881v2.305H4.61z"/><path d="M50.711 42.644V1.153A1.153 1.153 0 0 0 49.559 0h-43.8A1.153 1.153 0 0 0 4.61 1.153V4.61H1.153A1.153 1.153 0 0 0 0 5.763v59.931a1.153 1.153 0 0 0 1.153 1.153h33.008a14.983 14.983 0 1 0 16.55-24.2ZM6.915 2.305h41.491v39.6a15 15 0 0 0-2.305-.357v-28.87a1.15 1.15 0 0 0-.334-.818l-6.915-6.916a1.15 1.15 0 0 0-.818-.334H6.915ZM39.186 8.54l2.985 2.985h-2.985Zm-36.881 56V6.915h34.576v5.763a1.153 1.153 0 0 0 1.153 1.153H43.8v27.66A15 15 0 0 0 37 43.8H4.61v2.3h29.551a14.7 14.7 0 0 0-1.821 2.305H4.61v2.305h26.508a15.4 15.4 0 0 0-.738 2.305H4.61v2.305h25.356v2.305H4.61v2.305h25.771a15 15 0 0 0 1.959 4.61Zm42.644 4.61a12.678 12.678 0 1 1 12.677-12.676 12.68 12.68 0 0 1-12.677 12.678Z"/><path d="M51.864 53.016h-2.305v-1.152a5.763 5.763 0 0 0-5.763-5.763 1.153 1.153 0 0 0-1.153 1.153v5.14l-1.153.772v-.15a1.153 1.153 0 0 0-1.153-1.153h-4.61a1.153 1.153 0 0 0-1.151 1.153v9.22a1.153 1.153 0 0 0 1.153 1.153h4.61a1.153 1.153 0 0 0 1.153-1.153v-.15l1.671 1.153a1.15 1.15 0 0 0 .634.15h8.068a3.46 3.46 0 0 0 3.458-3.458v-3.457a3.46 3.46 0 0 0-3.458-3.458Zm-12.678 8.068h-2.305v-6.915h2.305Zm13.83-1.153a1.153 1.153 0 0 1-1.153 1.153h-7.721l-2.651-1.775v-3.365l2.939-1.971a1.15 1.15 0 0 0 .519-.957v-4.415a3.46 3.46 0 0 1 2.305 3.262v2.305a1.153 1.153 0 0 0 1.152 1.153h3.458a1.153 1.153 0 0 1 1.153 1.153Z"/></g><g fill="#4c6f59" transform="translate(11802.174 -9270.727)"><path d="M16.959 43.316h23.107a.903.903 0 1 0 0-1.805H16.959a.903.903 0 1 0 0 1.805m20.687 3.425a.9.9 0 0 0-.9-.9H16.959a.903.903 0 1 0 0 1.805h19.785a.9.9 0 0 0 .902-.905m-1.95 3.424H16.959a.903.903 0 1 0 0 1.805h18.737a.903.903 0 0 0 0-1.805m-1.528 4.326h-17.21a.903.903 0 1 0 0 1.805h17.21a.903.903 0 0 0 0-1.805m0 0"/><path d="M58.511 54.227V51a9.88 9.88 0 0 0-4.8-8.476.362.362 0 0 1 0-.62 9.85 9.85 0 0 0 4.643-6.709 30.3 30.3 0 0 0 .159-5 3.33 3.33 0 0 0 2.9-3.244 3.387 3.387 0 0 0-3.4-3.381h-4.478V9.266a2.03 2.03 0 0 0-2.028-2.028h-3.913V2.029A2.03 2.03 0 0 0 45.564 0h-11.9a.92.92 0 0 0-.926.785.9.9 0 0 0 .9 1.02h11.928a.223.223 0 0 1 .223.223v5.21H13.972a2.03 2.03 0 0 0-2.028 2.029v44.751c0 4.81-5.1 5.1-4.908 5A5.23 5.23 0 0 1 1.8 53.789V2.03c0-.442-1.179-.12 28.175-.224a.93.93 0 0 0 .94-.874A.9.9 0 0 0 30.02 0H2.031A2.033 2.033 0 0 0 0 2.028v51.761a7.045 7.045 0 0 0 7.037 7.037c62.01-.006-11.036-.006 51.049.026a3.326 3.326 0 0 0 .425-6.625M56.705 51v3.2h-.33a15.3 15.3 0 0 0-2.839-2.607.903.903 0 0 0-1.052 1.468 15 15 0 0 1 1.4 1.14H42.978a16.6 16.6 0 0 1 3.494-2.4 4.47 4.47 0 0 1 3.137-.314.903.903 0 1 0 .477-1.742 6.25 6.25 0 0 0-4.422.44 19.6 19.6 0 0 0-5.156 3.869V51a8.09 8.09 0 0 1 4.392-7.2 1.8 1.8 0 0 0 .752-.737l2.009 1.071V45.4a.903.903 0 0 0 1.805 0v-1.209c.09-.046 1.156-.618 2.093-1.116a1.8 1.8 0 0 0 .746.724 8.09 8.09 0 0 1 4.4 7.2Zm-8.048-8.417a.08.08 0 0 1-.078 0c-3.575-1.9-6.458-2.889-7.68-6.666h15.415c-1.2 3.713-4.121 4.783-7.656 6.666Zm8.019-8.472H40.537c-.049-.574-.021-.711-.029-3.886h16.2c-.008 3.186.019 3.312-.029 3.886Zm1.409-8.733a1.521 1.521 0 1 1 0 3.041c-20.65-.004-19.185.081-19.685-.189a1.521 1.521 0 0 1 .726-2.856ZM39.593 37.524h-2.3v-7.857a3.3 3.3 0 0 0 1.413.526c.036 2.934-.272 4.787.889 7.332Zm-2.3-13.4v-6.063h3.33v5.507c-1.367.019-2.253-.162-3.333.555Zm5.135-.555v-9.837h3.329v9.836Zm-6.27 35.449h-24.6a6.8 6.8 0 0 0 2.193-5V9.042h37.76a.223.223 0 0 1 .223.223v14.3H47.56v-10.2a1.477 1.477 0 0 0-1.509-1.439H42.13a1.477 1.477 0 0 0-1.509 1.439v2.889h-3.627a1.477 1.477 0 0 0-1.509 1.44v2.889H31.86a1.48 1.48 0 0 0-1.51 1.439v2.584H26.8a1.59 1.59 0 0 0-1.584 1.594v2.586h-3.388a1.75 1.75 0 0 0-1.747 1.748v7.9a.9.9 0 0 0 .9.9h19.681a10 10 0 0 0 3.388 2.88A9.89 9.89 0 0 0 38.7 51v3.232a3.328 3.328 0 0 0-2.548 4.791Zm-.67-36.627v15.133h-3.33V22.39Zm-5.138 4.023v11.11h-3.329v-11.11Zm-5.134 4.175v6.936h-3.33v-6.937Zm32.87 28.458c-.2 0 2.3.006-19.251-.029a1.522 1.522 0 0 1 .006-2.986h19.532a1.521 1.521 0 0 1-.288 3.015Zm0 0"/></g><g fill="#4c6f59" transform="rotate(90 10447 1325)"><path d="M1 62h52a1 1 0 0 0 .97-.758l8-32A1 1 0 0 0 61 28h-3V17a1 1 0 0 0-1-1h-3V9a1 1 0 0 0-.293-.707l-8-8A1 1 0 0 0 45 0H17a1 1 0 0 0-1 1v15h-1.465l-3.7-5.555A1 1 0 0 0 10 10H1a1 1 0 0 0-1 1v50a1 1 0 0 0 1 1m51.219-2H2.281l7.5-30h49.938ZM46 3.414 50.586 8H46ZM56 18v10h-2V18ZM44 2v7a1 1 0 0 0 1 1h7v18H18V2ZM2 12h7.465l3.7 5.555A1 1 0 0 0 14 18h2v10H9a1 1 0 0 0-.97.757L2 52.877Z"/><path d="M33 58a13 13 0 1 0-13-13 13 13 0 0 0 13 13m0-24a11 11 0 1 1-11 11 11 11 0 0 1 11-11M21 20h10a1 1 0 0 0 1-1V9a1 1 0 0 0-1-1H21a1 1 0 0 0-1 1v10a1 1 0 0 0 1 1m1-10h8v8h-8Zm12 8h16v2H34Zm-14 4h30v2H20Zm14-8h16v2H34Z"/><path d="M31 53a1 1 0 0 0 .707-.293l10-10a1 1 0 0 0 0-1.414l-3-3a1 1 0 0 0-1.414 0L31 44.586l-2.293-2.293a1 1 0 0 0-1.414 0l-3 3a1 1 0 0 0 0 1.414l6 6A1 1 0 0 0 31 53m-3-8.586 2.293 2.293a1 1 0 0 0 1.414 0L38 40.414 39.586 42 31 50.586 26.414 46Zm-3-29.828-1.293-1.293-1.414 1.414 2 2a1 1 0 0 0 1.414 0l4-4-1.414-1.414Z"/></g></g></svg>