<svg xmlns="http://www.w3.org/2000/svg" width="125" height="125" viewBox="0 0 125 125"><g transform="translate(-8866 10497.839)"><circle cx="62.5" cy="62.5" r="62.5" transform="translate(8866 -10497.839)" fill="#ebe5ff"/><g transform="translate(8890.5 -10472.5)"><path d="M41.017,35.845A13.925,13.925,0,1,0,27.052,21.919,13.925,13.925,0,0,0,41.017,35.845Zm0-25.53a11.6,11.6,0,1,1-11.637,11.6,11.6,11.6,0,0,1,11.637-11.6Z" transform="translate(-10.506 -3.352)" fill="#665f7f"/><path d="M46.731,32.412v1.081a.9.9,0,1,0,1.8,0V32.412c2.593-.251,3.948-1.64,3.948-3.763,0-4.824-7.064-3.647-7.064-6.175,0-.772.6-1.524,2.207-1.524a4,4,0,0,1,2.709,1.023,1.282,1.282,0,0,0,.832.424,1.036,1.036,0,0,0,1.046-1.023,1.114,1.114,0,0,0-.194-.618,4.957,4.957,0,0,0-3.483-1.737V17.9a.9.9,0,1,0-1.8,0V19c-2.477.27-3.561,1.756-3.561,3.474,0,4.651,7.064,3.358,7.064,6.175,0,1.2-.852,1.775-2.612,1.775a4.441,4.441,0,0,1-3.174-1.467,1.136,1.136,0,0,0-.852-.424,1.038,1.038,0,0,0-.871,1.582A5.554,5.554,0,0,0,46.731,32.412Z" transform="translate(-17.013 -7.129)" fill="#665f7f"/><path d="M20.49,59.118a1.162,1.162,0,0,0-1.164-1.16H11.18a1.162,1.162,0,0,0-1.164,1.16v8.123A1.162,1.162,0,0,0,11.18,68.4h8.146a1.162,1.162,0,0,0,1.164-1.16ZM18.163,66.08H12.344v-5.8h5.819Z" transform="translate(-3.362 -24.304)" fill="#665f7f"/><path d="M20.49,81.1a1.162,1.162,0,0,0-1.164-1.16H11.18a1.162,1.162,0,0,0-1.164,1.16v8.123a1.162,1.162,0,0,0,1.164,1.16h8.146a1.162,1.162,0,0,0,1.164-1.16Zm-2.327,6.963H12.344v-5.8h5.819Z" transform="translate(-3.362 -33.523)" fill="#665f7f"/><path d="M19.326,101.925H11.18a1.162,1.162,0,0,0-1.164,1.16v8.123a1.162,1.162,0,0,0,1.164,1.16h8.146a1.162,1.162,0,0,0,1.164-1.16v-8.123A1.162,1.162,0,0,0,19.326,101.925Zm-1.164,8.123H12.344v-5.8h5.819Z" transform="translate(-3.362 -42.743)" fill="#665f7f"/><path d="M49.521,60.955H33.229a1.16,1.16,0,1,0,0,2.321H49.521a1.16,1.16,0,1,0,0-2.321Z" transform="translate(-12.609 -25.562)" fill="#665f7f"/><path d="M33.229,71.27H43.7a1.16,1.16,0,1,0,0-2.321H33.229a1.16,1.16,0,1,0,0,2.321Z" transform="translate(-12.609 -28.914)" fill="#665f7f"/><path d="M50.684,83.1a1.162,1.162,0,0,0-1.164-1.16H33.229a1.16,1.16,0,1,0,0,2.321H49.521a1.162,1.162,0,0,0,1.164-1.16Z" transform="translate(-12.609 -34.361)" fill="#665f7f"/><path d="M33.229,89.933a1.16,1.16,0,0,0,0,2.321H43.7a1.16,1.16,0,1,0,0-2.321Z" transform="translate(-12.609 -37.714)" fill="#665f7f"/><path d="M33.229,112.916a1.16,1.16,0,1,0,0,2.321H43.7a1.16,1.16,0,0,0,0-2.321Z" transform="translate(-12.609 -47.352)" fill="#665f7f"/><path d="M49.918,107.169l.531-1.779a1.159,1.159,0,0,0-.928-.468H33.229a1.16,1.16,0,1,0,0,2.321H49.521A1.157,1.157,0,0,0,49.918,107.169Z" transform="translate(-12.609 -44)" fill="#665f7f"/><path d="M89.068,106.141V84.307L86.74,89.4v16.744a1.163,1.163,0,0,1-1.164,1.16H75.128l-1.48,2.321H85.576a3.486,3.486,0,0,0,3.491-3.481Z" transform="translate(-30.046 -35.354)" fill="#665f7f"/><path d="M5.491,74.268H35.477a4.668,4.668,0,0,1-.6-2.321H5.491a1.163,1.163,0,0,1-1.164-1.16V3.481a1.163,1.163,0,0,1,1.164-1.16h50.04a1.163,1.163,0,0,1,1.164,1.16V5.034a5.639,5.639,0,0,1,2.327-1.2V3.481A3.486,3.486,0,0,0,55.531,0H5.491A3.486,3.486,0,0,0,2,3.481V70.787a3.486,3.486,0,0,0,3.491,3.481Z" transform="translate(0 0)" fill="#665f7f"/><path d="M87.328,9.816A3.5,3.5,0,0,0,82.7,11.539L77.151,23.682a1.163,1.163,0,1,0,2.118.963L84.821,12.5a1.165,1.165,0,0,1,1.542-.575l1.059.481L68.594,53.588a2.315,2.315,0,0,0-.062,1.775c0,.006.006.011.008.016L62.726,74.867a2.327,2.327,0,0,0,4.195,1.907L77.865,59.612a2.312,2.312,0,0,0,1.317-1.21L99.217,14.583a2.318,2.318,0,0,0-1.152-3.075L91.711,8.62a2.329,2.329,0,0,0-3.083,1.149l-.241.528ZM64.957,75.528,70.485,57l4.876,2.217Zm25.789-64.8L97.1,13.62l-1.931,4.224h0l-6.353-2.888ZM94.2,19.955,77.065,57.439l-6.353-2.888L87.849,17.067h0Z" transform="translate(-25.426 -3.527)" fill="#665f7f"/></g></g></svg>