<svg xmlns="http://www.w3.org/2000/svg" width="125" height="125" viewBox="0 0 125 125"><g transform="translate(-8866 9947.315)"><circle cx="62.5" cy="62.5" r="62.5" transform="translate(8866 -9947.315)" fill="#ebe5ff"/><path d="M53.577,49.962l.231,1.017a1.852,1.852,0,0,0,1.783,1.571H57.08a1.851,1.851,0,0,0,1.782-1.568l.232-1.019q.3-.112.6-.25l.891.561a1.856,1.856,0,0,0,2.364-.154L64,49.067a1.851,1.851,0,0,0,.151-2.368l-.558-.886q.137-.3.25-.6l1.027-.234a1.861,1.861,0,0,0,1.56-1.78V41.709a1.851,1.851,0,0,0-1.568-1.782L63.847,39.7q-.113-.308-.25-.6l.559-.889A1.868,1.868,0,0,0,64,35.834l-1.052-1.048a1.858,1.858,0,0,0-2.368-.151l-.886.558q-.3-.137-.6-.249l-.232-1.023a1.854,1.854,0,0,0-1.782-1.569H55.591a1.854,1.854,0,0,0-1.782,1.569l-.232,1.022q-.306.112-.6.249l-.89-.56a1.856,1.856,0,0,0-2.362.152l-1.061,1.057a1.868,1.868,0,0,0-.145,2.366l.559.888q-.138.3-.25.6l-1.016.231a1.852,1.852,0,0,0-1.571,1.783V43.2a1.864,1.864,0,0,0,1.568,1.782l1.018.232q.112.306.25.6l-.556.884a1.851,1.851,0,0,0,.15,2.369l1.054,1.054a1.858,1.858,0,0,0,2.368.151l.888-.559q.3.138.6.25Zm-1.233-2.414-1.3.821-.62-.62.821-1.3a1.085,1.085,0,0,0,.024-1.116A5.763,5.763,0,0,1,50.713,44a1.085,1.085,0,0,0-.8-.769l-1.5-.342v-.877l1.5-.342a1.085,1.085,0,0,0,.8-.769,5.947,5.947,0,0,1,.554-1.333,1.085,1.085,0,0,0-.027-1.109l-.823-1.307.621-.618,1.306.821a1.084,1.084,0,0,0,1.116.024,5.754,5.754,0,0,1,1.326-.55,1.085,1.085,0,0,0,.769-.806l.342-1.5h.877l.342,1.5a1.084,1.084,0,0,0,.769.806,5.76,5.76,0,0,1,1.326.55,1.084,1.084,0,0,0,1.116-.024l1.306-.821.621.618-.823,1.307a1.085,1.085,0,0,0-.022,1.12,5.654,5.654,0,0,1,.548,1.323,1.085,1.085,0,0,0,.8.769l1.5.342v.877l-1.5.342a1.085,1.085,0,0,0-.8.769,5.76,5.76,0,0,1-.55,1.326,1.084,1.084,0,0,0,.024,1.116l.821,1.3-.62.62-1.305-.821a1.085,1.085,0,0,0-1.109-.027,5.954,5.954,0,0,1-1.333.554,1.085,1.085,0,0,0-.77.8l-.342,1.5H55.9l-.342-1.5a1.084,1.084,0,0,0-.769-.8,5.95,5.95,0,0,1-1.333-.554,1.084,1.084,0,0,0-1.109.027Zm8.161-5.1a4.169,4.169,0,1,0-4.167,4.171A4.172,4.172,0,0,0,60.5,42.45Zm-6.169,0a2,2,0,1,1,2,2A2,2,0,0,1,54.336,42.45ZM65.7,58.1H53.852a1.085,1.085,0,0,1,0-2.169H65.7a1.085,1.085,0,0,1,0,2.169Zm-1.326,5.265a1.085,1.085,0,0,1-1.084,1.085H53.853a1.085,1.085,0,1,1,0-2.169h9.432A1.085,1.085,0,0,1,64.369,63.365ZM51.084,55.259l-3.57,4.11a1.085,1.085,0,0,1-.781.373h-.038a1.084,1.084,0,0,1-.767-.318l-1.642-1.642a1.085,1.085,0,0,1,1.534-1.534l.82.819,2.807-3.232a1.085,1.085,0,0,1,1.638,1.422Zm0,6.762-3.57,4.11a1.085,1.085,0,0,1-.781.373h-.038a1.084,1.084,0,0,1-.767-.318l-1.642-1.642a1.085,1.085,0,0,1,1.534-1.534l.82.819L49.446,60.6a1.085,1.085,0,0,1,1.638,1.422Zm5.254-45.579a3.14,3.14,0,1,0,3.14,3.14A3.143,3.143,0,0,0,56.338,16.442Zm0,4.11a.97.97,0,1,1,.97-.97A.983.983,0,0,1,56.338,20.552ZM37.746,67.945v1.906a1.085,1.085,0,0,1-2.169,0V67.945a1.085,1.085,0,0,1,2.169,0Zm6.033,7.943h1.91a1.084,1.084,0,1,1,0,2.169h-1.91a1.084,1.084,0,1,1,0-2.169Zm-6.033,8.2V86a1.085,1.085,0,1,1-2.169,0v-1.91a1.085,1.085,0,0,1,2.169,0Zm-8.2-6.033h-1.91a1.085,1.085,0,1,1,0-2.169h1.91a1.085,1.085,0,1,1,0,2.169Zm8.2-5.023v3.939a1.085,1.085,0,0,1-.318.768l-2.27,2.266a1.085,1.085,0,1,1-1.532-1.535l1.952-1.948V73.034a1.085,1.085,0,0,1,2.169,0Zm6.067-3.213a1.085,1.085,0,0,1,0,1.534l-.676.676A1.085,1.085,0,0,1,41.6,70.5l.676-.676a1.085,1.085,0,0,1,1.534,0Zm0,12.769a1.085,1.085,0,0,1-1.534,1.534l-.676-.676a1.085,1.085,0,0,1,1.534-1.534l.676.676ZM31.72,81.915a1.085,1.085,0,0,1,0,1.534l-.676.676a1.085,1.085,0,0,1-1.534-1.534l.676-.676a1.085,1.085,0,0,1,1.534,0Zm0-11.417a1.085,1.085,0,1,1-1.534,1.534l-.676-.676a1.085,1.085,0,0,1,1.534-1.534l.676.676ZM94.843,28.864a4.438,4.438,0,0,0-1.91-2.406,3.984,3.984,0,0,0-5.518.97l-.988,1.592a2.829,2.829,0,0,0-2.9,1.29l-.939,1.516c-.006.01-.013.018-.02.028s-.01.018-.015.027L79.6,36.649V23.029a2.2,2.2,0,0,0-2.2-2.2H66.433v-.206A2.128,2.128,0,0,0,64.308,18.5H62.742a6.5,6.5,0,0,0-12.812,0H48.364a2.128,2.128,0,0,0-2.125,2.125v.206H35.278a2.2,2.2,0,0,0-2.2,2.2V64.856a12.635,12.635,0,1,0,15.83,15.235H77.4a2.2,2.2,0,0,0,2.2-2.2V56.828l5.322-8.585a2.849,2.849,0,0,0,.6-.074,2.8,2.8,0,0,0,1.755-1.261l6.4-10.317a2.832,2.832,0,0,0-.138-3.165l.984-1.592a3.569,3.569,0,0,0,.325-2.97Zm-5.585-.292a1.859,1.859,0,0,1,2.534-.269,2.3,2.3,0,0,1,.985,1.22,1.39,1.39,0,0,1-.1,1.17L91.8,32.111l-3.421-2.12.882-1.42Zm-3.887,2.881a.657.657,0,0,1,.559-.311.644.644,0,0,1,.341.1h0l5.343,3.31a.658.658,0,0,1,.213.9l-.373.6-6.466-3.982.382-.617ZM66.433,23H77.4a.043.043,0,0,1,.031.031v17.12l-.293.473a2.8,2.8,0,0,0-.35,2.13,2.853,2.853,0,0,0,.2.572l-2.482,4V26.954a1.213,1.213,0,0,0-1.212-1.212H66.433V23ZM48.408,20.666h2.516a1.085,1.085,0,0,0,1.085-1.085,4.327,4.327,0,1,1,8.655,0,1.085,1.085,0,0,0,1.085,1.085h2.516v7.368H48.408Zm-13.16,2.362A.037.037,0,0,1,35.279,23h10.96v2.744H39.38a1.213,1.213,0,0,0-1.212,1.212V64.428a12.3,12.3,0,0,0-2.92-.012Zm1.414,64.408A10.466,10.466,0,1,1,47.13,76.973,10.478,10.478,0,0,1,36.662,87.437Zm3.675-22.555V27.912h5.9v.167A2.128,2.128,0,0,0,48.364,30.2H64.308a2.128,2.128,0,0,0,2.125-2.125v-.167h5.9V50.826l-4.351,7.018a2.082,2.082,0,0,0-.246,1.586,2.365,2.365,0,0,0,.364.806l-1.541,2.487-.007.013c-.012.02-.024.042-.035.063s-.012.023-.018.035-.017.038-.025.058-.012.03-.018.046-.01.032-.015.049-.011.039-.016.059-.006.027-.008.04-.009.046-.012.069c0,.005,0,.01,0,.015l-.61,5.2A1.085,1.085,0,0,0,67.465,69.4l4.387-2.859.02-.015.044-.032.044-.035L72,66.43l.044-.043.028-.03c.015-.017.029-.034.043-.051l.023-.031c.013-.018.027-.037.039-.056l.009-.013.154-.248v7.054H48.66a12.691,12.691,0,0,0-8.323-8.13Zm28.024.233.876.543-1.018.663.142-1.206Zm.615-2.171.86-1.388,1.933,1.2-.86,1.388Zm8.453,14.946a.037.037,0,0,1-.031.031H49.26c.023-.314.039-.629.039-.948a12.679,12.679,0,0,0-.129-1.791H73.292A1.213,1.213,0,0,0,74.5,73.969V63.708c.032-.006.064-.009.1-.016a2.084,2.084,0,0,0,1.318-.927l1.511-2.437V77.891ZM74.1,61.58a.307.307,0,0,1-.193-.055L69.984,59.1a.306.306,0,0,1-.132-.15l8.739-14.1,4.248,2.632L74.1,61.58ZM85.428,45.766a.654.654,0,0,1-.9.21l-5.343-3.31a.657.657,0,0,1-.208-.9l.43-.694,6.451,4-.431.695ZM87,43.228l-6.452-4,3.295-5.316,6.465,3.982Z" transform="translate(8868.977 -9936.446)" fill="#665f7f"/></g></svg>