<svg xmlns="http://www.w3.org/2000/svg" width="127.033" height="127.029" viewBox="0 0 127.033 127.029"><g transform="translate(0 -0.007)"><path d="M174.723,223.2a6.516,6.516,0,0,0,9.221-.006l8.075-8.1a1.861,1.861,0,1,0-2.635-2.627l-8.074,8.1a2.795,2.795,0,0,1-3.955,0L165.4,208.612a2.794,2.794,0,1,1,3.952-3.952l8.657,8.656a1.859,1.859,0,0,0,1.316.545h0a1.861,1.861,0,0,0,1.317-.547l18.612-18.674a2.794,2.794,0,1,1,3.957,3.947l-7.676,7.7a1.861,1.861,0,1,0,2.635,2.627l7.675-7.7a6.516,6.516,0,1,0-9.228-9.2l-17.3,17.354-7.339-7.339a6.516,6.516,0,0,0-9.215,9.215Z" transform="translate(-120.954 -142.933)" fill="#665f7f"/><path d="M121.377,90.428l-6.884-6.884a55.2,55.2,0,0,0,0-40.04L121.4,36.6c5.167-5.062,6.808-12.22,4.773-19.977A12.316,12.316,0,0,0,110.255.929C100.511-1.777,94.1,1.981,90.421,5.662l-6.885,6.885a55.2,55.2,0,0,0-40.04,0L36.59,5.64c-5-5-11.418-6.682-19.074-4.995-.3.066-.6.141-.9.22a12.317,12.317,0,0,0-8.713.146A1.861,1.861,0,0,0,9.279,4.47,8.6,8.6,0,1,1,4.387,9.485,1.861,1.861,0,0,0,.895,8.2a12.356,12.356,0,0,0,.028,8.582c-2.708,9.747,1.051,16.157,4.732,19.838L12.54,43.5A54.769,54.769,0,0,0,9.659,53.618a1.861,1.861,0,0,0,1.495,2.165,1.885,1.885,0,0,0,.337.031,1.861,1.861,0,0,0,1.828-1.526,51.088,51.088,0,0,1,2.2-8.127,9.529,9.529,0,0,0,5.077,1.266l8.976-.612A37.854,37.854,0,0,0,29.553,80.2l-8.961-.581a8.508,8.508,0,0,0-5.079,1.267A50.8,50.8,0,0,1,12.491,62.52a1.861,1.861,0,0,0-3.721-.073,54.487,54.487,0,0,0,3.769,21.1L5.632,90.45C.466,95.512-1.175,102.669.86,110.426a12.322,12.322,0,0,0,15.917,15.691,23.8,23.8,0,0,0,6.365.919,18.586,18.586,0,0,0,7.426-1.5,1.861,1.861,0,0,0-1.473-3.417,15.437,15.437,0,0,1-7.843,1.094,12.258,12.258,0,0,0,3.4-6.869,8.127,8.127,0,0,0,4.5-2.417l7.627-7.627a1.861,1.861,0,0,0,.544-1.357l-.059-2.623h6.147l.3,4.384a4.8,4.8,0,0,1-1.4,3.721L35.4,117.336a1.861,1.861,0,0,0,2.632,2.631L43.5,114.5a55.188,55.188,0,0,0,40.038,0l6.907,6.907a18.513,18.513,0,0,0,13.549,5.629,27.1,27.1,0,0,0,6.428-.856,12.316,12.316,0,0,0,15.691-15.917c2.706-9.745-1.052-16.154-4.733-19.834Zm1.818,15.353a12.257,12.257,0,0,0-6.861-3.39,8.12,8.12,0,0,0-2.418-4.5l-7.627-7.627a1.867,1.867,0,0,0-1.358-.545l-2.623.059V83.63l4.384-.3a4.8,4.8,0,0,1,3.72,1.395l8.333,8.333a15.167,15.167,0,0,1,4.449,12.722Zm-17.334.088a12.249,12.249,0,0,0-3.433,6.688,4.6,4.6,0,0,1-1.892-1.244l-4.06-4.06a55.135,55.135,0,0,0,10.771-10.771l4.039,4.039a4.642,4.642,0,0,1,1.24,1.919,12.254,12.254,0,0,0-6.663,3.43ZM98.587,83.884V89.86c-.042,0-11.175.252-11.281.252a2.717,2.717,0,0,1-2.706-2.4,2.749,2.749,0,0,1-.011-.536,2.822,2.822,0,0,1,2.533-2.508Zm-5.138,20.343.236-10.535,10.535-.236.367.367a51.437,51.437,0,0,1-10.771,10.771Zm-9.24-11.179a6.437,6.437,0,0,0,3.244.784l2.508-.056-.108,4.819h-6Zm27.309-12.162a8.519,8.519,0,0,0-5.078-1.267l-8.976.612a37.854,37.854,0,0,0,.015-33.383l8.961.581a8.94,8.94,0,0,0,5.078-1.267,51.5,51.5,0,0,1,0,34.726ZM83.876,28.452h5.976L90.1,39.67a2.717,2.717,0,0,1-2.4,2.769,2.762,2.762,0,0,1-.535.011,2.821,2.821,0,0,1-2.509-2.533Zm18.557-13.934a12.28,12.28,0,0,0,10.114,10.093,4.589,4.589,0,0,1-1.241,1.893l-4.06,4.06A55.161,55.161,0,0,0,96.475,19.793l4.039-4.039A4.641,4.641,0,0,1,102.433,14.518ZM93.685,33.354,93.449,22.82l.367-.367a51.412,51.412,0,0,1,10.771,10.771l-.367.367Zm.084,3.724,4.819.108v6L93.04,42.83a6.448,6.448,0,0,0,.785-3.244Zm25-3.113-8.355,8.355a4.8,4.8,0,0,1-3.727,1.395l-4.378-.284V37.27c.207,0,2.362.054,2.664.059a1.861,1.861,0,0,0,1.316-.545l7.649-7.649a8,8,0,0,0,2.416-4.482,12.256,12.256,0,0,0,6.862-3.407,15.267,15.267,0,0,1-4.448,12.72Zm1.889-27.582a8.6,8.6,0,1,1-12.163,0A8.61,8.61,0,0,1,120.656,6.383Zm-27.6,1.91a15.167,15.167,0,0,1,12.722-4.449,12.257,12.257,0,0,0-3.39,6.859,8.1,8.1,0,0,0-4.5,2.42l-7.627,7.628a1.861,1.861,0,0,0-.544,1.357l.059,2.623H83.623l-.3-4.384a4.8,4.8,0,0,1,1.4-3.721ZM80.879,15.521A8.517,8.517,0,0,0,79.611,20.6l.612,8.976a37.853,37.853,0,0,0-33.383-.015l.581-8.961a8.517,8.517,0,0,0-1.267-5.079,51.5,51.5,0,0,1,34.725,0ZM28.445,43.163V37.186l11.218-.252a2.682,2.682,0,0,1,2.769,2.4,2.752,2.752,0,0,1-2.522,3.044ZM42.823,34a6.471,6.471,0,0,0-3.244-.786l-2.508.056.108-4.819h6ZM33.583,22.82l-.236,10.535-10.535.236-.367-.367A51.421,51.421,0,0,1,33.216,22.452Zm.375-14.548,8.355,8.355a4.8,4.8,0,0,1,1.395,3.727l-.284,4.378H37.263l.059-2.623a1.861,1.861,0,0,0-.544-1.357L29.128,13.1a8.017,8.017,0,0,0-4.482-2.413,12.256,12.256,0,0,0-3.407-6.866A15.268,15.268,0,0,1,33.958,8.271ZM21.171,21.178A12.251,12.251,0,0,0,24.6,14.491,4.573,4.573,0,0,1,26.5,15.733l4.06,4.06a55.18,55.18,0,0,0-10.77,10.771l-4.039-4.039a4.64,4.64,0,0,1-1.239-1.918A12.255,12.255,0,0,0,21.171,21.178ZM20.34,43.715a4.8,4.8,0,0,1-3.72-1.395L8.286,33.987A15.168,15.168,0,0,1,3.836,21.265a12.257,12.257,0,0,0,6.861,3.39,8.12,8.12,0,0,0,2.418,4.5l7.627,7.627a1.854,1.854,0,0,0,1.358.545l2.623-.059v6.147ZM29.4,63.523a34.048,34.048,0,0,1,4.538-17.005l6.221-.424a6.449,6.449,0,0,0,6-6.1l.394-6.076a34.129,34.129,0,0,1,33.963.027l.424,6.221a6.45,6.45,0,0,0,5.917,5.99l6.255.405a34.13,34.13,0,0,1-.026,33.964l-6.221.424a6.449,6.449,0,0,0-6,6.1l-.394,6.076A34.131,34.131,0,0,1,46.511,93.1l-.424-6.22a6.448,6.448,0,0,0-6.084-6l-6.089-.394A34.06,34.06,0,0,1,29.4,63.523Zm3.943,30.169.236,10.535-.368.368A51.453,51.453,0,0,1,22.445,93.823l.368-.368Zm-.083-3.724-4.819-.108v-6l5.547.359a6.448,6.448,0,0,0-.785,3.244Zm-25,3.113,8.355-8.355a4.8,4.8,0,0,1,3.727-1.395l4.378.284v6.161L22.1,89.718a1.859,1.859,0,0,0-1.358.545l-7.649,7.649a8,8,0,0,0-2.416,4.482A12.256,12.256,0,0,0,3.816,105.8a15.269,15.269,0,0,1,4.448-12.72ZM6.376,120.663a8.6,8.6,0,1,1,12.163,0A8.61,8.61,0,0,1,6.376,120.663Zm20.142-9.372a4.655,4.655,0,0,1-1.919,1.238,12.28,12.28,0,0,0-10.115-10.094,4.589,4.589,0,0,1,1.241-1.893l4.06-4.06a55.125,55.125,0,0,0,10.771,10.771Zm10.661-12.7-.252-11.218a2.717,2.717,0,0,1,2.4-2.769,3.556,3.556,0,0,1,.531-.011,2.75,2.75,0,0,1,2.513,2.534l.781,11.464Zm8.975,12.929a8.516,8.516,0,0,0,1.266-5.077l-.612-8.976a37.854,37.854,0,0,0,33.383.015l-.581,8.961a8.516,8.516,0,0,0,1.267,5.078,51.522,51.522,0,0,1-34.724,0Zm46.92,7.251-8.355-8.355a4.8,4.8,0,0,1-1.395-3.727l.284-4.378h6.161l-.059,2.623a1.861,1.861,0,0,0,.544,1.357l7.649,7.649a8,8,0,0,0,4.483,2.417,12.258,12.258,0,0,0,3.407,6.861,15.266,15.266,0,0,1-12.719-4.448Zm27.582,1.889a8.6,8.6,0,1,1,0-12.163A8.61,8.61,0,0,1,120.656,120.663Z" transform="translate(0 0)" fill="#665f7f"/></g></svg>