<svg xmlns="http://www.w3.org/2000/svg" width="67" height="67" viewBox="0 0 67 67"><g transform="translate(-4 -4)"><path d="M21.946,24H5.2A1.2,1.2,0,0,0,4,25.2v16.75a1.2,1.2,0,0,0,1.2,1.2h16.75a1.2,1.2,0,0,0,1.2-1.2V25.2A1.2,1.2,0,0,0,21.946,24Zm-1.2,16.75H6.393V26.393H20.75Z" transform="translate(0 3.929)" fill="#665f7f"/><path d="M25.2,33.393H57.5A1.2,1.2,0,1,0,57.5,31H25.2a1.2,1.2,0,0,0,0,2.393Z" transform="translate(3.929 5.304)" fill="#665f7f"/><path d="M65.875,36H25.2a1.2,1.2,0,0,0,0,2.393H65.875a1.2,1.2,0,0,0,0-2.393Z" transform="translate(3.929 6.286)" fill="#665f7f"/><path d="M25.2,28.393H47.929a1.2,1.2,0,0,0,0-2.393H25.2a1.2,1.2,0,0,0,0,2.393Z" transform="translate(3.929 4.321)" fill="#665f7f"/><path d="M21.946,44H5.2A1.2,1.2,0,0,0,4,45.2v16.75a1.2,1.2,0,0,0,1.2,1.2h16.75a1.2,1.2,0,0,0,1.2-1.2V45.2A1.2,1.2,0,0,0,21.946,44Zm-1.2,16.75H6.393V46.393H20.75Z" transform="translate(0 7.857)" fill="#665f7f"/><path d="M25.2,53.393H57.5A1.2,1.2,0,1,0,57.5,51H25.2a1.2,1.2,0,0,0,0,2.393Z" transform="translate(3.929 9.232)" fill="#665f7f"/><path d="M65.875,56H25.2a1.2,1.2,0,0,0,0,2.393H65.875a1.2,1.2,0,0,0,0-2.393Z" transform="translate(3.929 10.214)" fill="#665f7f"/><path d="M25.2,48.393H47.929a1.2,1.2,0,0,0,0-2.393H25.2a1.2,1.2,0,0,0,0,2.393Z" transform="translate(3.929 8.25)" fill="#665f7f"/><path d="M21.946,13.069a1.2,1.2,0,0,0-1.2,1.2V20.75H6.393V6.393H17.472a1.2,1.2,0,0,0,0-2.393H5.2A1.2,1.2,0,0,0,4,5.2v16.75a1.2,1.2,0,0,0,1.2,1.2h16.75a1.2,1.2,0,0,0,1.2-1.2V14.265A1.2,1.2,0,0,0,21.946,13.069Z" fill="#665f7f"/><path d="M25.2,13.393H57.5A1.2,1.2,0,1,0,57.5,11H25.2a1.2,1.2,0,0,0,0,2.393Z" transform="translate(3.929 1.375)" fill="#665f7f"/><path d="M25.2,18.393H65.875a1.2,1.2,0,0,0,0-2.393H25.2a1.2,1.2,0,0,0,0,2.393Z" transform="translate(3.929 2.357)" fill="#665f7f"/><path d="M25.2,8.393H47.929a1.2,1.2,0,0,0,0-2.393H25.2a1.2,1.2,0,0,0,0,2.393Z" transform="translate(3.929 0.393)" fill="#665f7f"/><path d="M22.476,4.351l-9.428,9.428-2.327-2.327a1.2,1.2,0,0,0-1.692,1.692L12.2,16.317a1.2,1.2,0,0,0,1.692,0L24.168,6.042a1.2,1.2,0,1,0-1.692-1.692Z" transform="translate(0.919 0)" fill="#665f7f"/></g></svg>