<svg xmlns="http://www.w3.org/2000/svg" width="103.394" height="119.586" viewBox="0 0 103.394 119.586"><g transform="translate(11349 11823.592)"><path fill="#2e186b" d="M-11310.507-11802.372h-4.879a.238.238 0 0 1 0-.476h4.879a.238.238 0 1 1 0 .476"/><path fill="#665f7f" d="M-11255.901-11817.152h-23.31v112.91h23.31a10.064 10.064 0 0 0 10.055-10.064v-92.791a10.06 10.06 0 0 0-10.055-10.055"/><path fill="#2e186b" d="M-11255.9-11704.006h-23.31a.24.24 0 0 1-.238-.238v-112.91a.24.24 0 0 1 .238-.238h23.31a10.3 10.3 0 0 1 10.293 10.293v92.79a10.31 10.31 0 0 1-10.293 10.3m-23.072-.476h23.072a9.833 9.833 0 0 0 9.817-9.826v-92.788a9.83 9.83 0 0 0-9.817-9.817h-23.072Z"/><path fill="#cdbeff" d="M-11252.003-11807.096v92.79a10.064 10.064 0 0 1-10.053 10.065h-53.207a10.067 10.067 0 0 1-10.063-10.065v-92.79a10.063 10.063 0 0 1 10.063-10.056h53.206a10.06 10.06 0 0 1 10.054 10.056"/><path fill="#fff" d="M-11313.436-11704.241h-1.827a10.066 10.066 0 0 1-10.063-10.065v-92.791a10.06 10.06 0 0 1 10.063-10.055h1.826a10.06 10.06 0 0 0-10.063 10.055v92.79a10.066 10.066 0 0 0 10.063 10.065"/><path fill="#fff" d="M-11255.709-11801.542v86.307a6.367 6.367 0 0 1-6.351 6.368h-53.2a6.37 6.37 0 0 1-6.359-6.368v-86.307a6.36 6.36 0 0 1 6.359-6.36h53.2a6.36 6.36 0 0 1 6.351 6.36"/><path fill="#ffd256" d="M-11256.806-11805.118a6.32 6.32 0 0 0-3.761-1.236h-53.203a6.36 6.36 0 0 0-6.359 6.359v86.308a6.35 6.35 0 0 0 1.1 3.576 6.36 6.36 0 0 1-2.585-5.123v-86.309a6.36 6.36 0 0 1 6.358-6.358h53.206a6.34 6.34 0 0 1 5.249 2.783"/><path fill="#2e186b" d="M-11262.056-11704.006h-53.2a10.314 10.314 0 0 1-10.3-10.3v-92.793a10.31 10.31 0 0 1 10.3-10.293h53.2a10.3 10.3 0 0 1 10.288 10.293v92.79a10.31 10.31 0 0 1-10.293 10.3m-53.2-112.91a9.833 9.833 0 0 0-9.826 9.817v92.79a9.837 9.837 0 0 0 9.826 9.826h53.2a9.833 9.833 0 0 0 9.817-9.826v-92.787a9.83 9.83 0 0 0-9.817-9.817Z"/><path fill="#2e186b" d="M-11262.059-11708.627h-53.2a6.61 6.61 0 0 1-6.6-6.606v-86.308a6.605 6.605 0 0 1 6.6-6.6h53.2a6.6 6.6 0 0 1 6.589 6.6v86.308a6.605 6.605 0 0 1-6.589 6.606m-53.2-99.035a6.13 6.13 0 0 0-6.121 6.121v86.308a6.133 6.133 0 0 0 6.121 6.13h53.2a6.13 6.13 0 0 0 6.112-6.13v-86.308a6.124 6.124 0 0 0-6.112-6.121Z"/><path fill="#b1923b" d="M-11272.87-11758.62v11.493a1.387 1.387 0 0 1-1.385 1.385h-5.063a1.39 1.39 0 0 1-1.394-1.385v-11.493a1.4 1.4 0 0 1 1.394-1.385h5.063a1.393 1.393 0 0 1 1.385 1.385"/><path fill="#ffd256" d="M-11260.999-11781.843v34.717a1.387 1.387 0 0 1-1.385 1.385h-5.063a1.38 1.38 0 0 1-1.385-1.385v-34.717a1.38 1.38 0 0 1 1.385-1.385h5.063a1.387 1.387 0 0 1 1.385 1.385m-23.744 3.969v30.748a1.39 1.39 0 0 1-1.394 1.385h-5.063a1.387 1.387 0 0 1-1.385-1.385v-30.748a1.387 1.387 0 0 1 1.385-1.385h5.063a1.39 1.39 0 0 1 1.394 1.385m-23.754 14.889v15.859a1.38 1.38 0 0 1-1.385 1.385h-5.063a1.38 1.38 0 0 1-1.385-1.385v-15.859a1.38 1.38 0 0 1 1.385-1.385h5.063a1.38 1.38 0 0 1 1.385 1.385"/><path fill="#b1923b" d="M-11296.624-11769.493v22.369a1.38 1.38 0 0 1-1.382 1.384h-5.063a1.387 1.387 0 0 1-1.385-1.385v-22.368a1.387 1.387 0 0 1 1.385-1.385h5.063a1.38 1.38 0 0 1 1.385 1.385"/><path fill="#fff" d="M-11277.711-11745.743h-1.607a1.39 1.39 0 0 1-1.393-1.385v-11.494a1.394 1.394 0 0 1 1.393-1.383h1.607a1.394 1.394 0 0 0-1.393 1.383v11.493a1.39 1.39 0 0 0 1.393 1.385m11.872.003h-1.607a1.38 1.38 0 0 1-1.383-1.385v-34.717a1.38 1.38 0 0 1 1.383-1.385h1.607a1.38 1.38 0 0 0-1.383 1.385v34.716a1.38 1.38 0 0 0 1.383 1.385m-23.755.002h-1.607a1.39 1.39 0 0 1-1.383-1.385v-30.749a1.39 1.39 0 0 1 1.383-1.385h1.607a1.39 1.39 0 0 0-1.383 1.385v30.748a1.39 1.39 0 0 0 1.383 1.385m-23.743.001h-1.607a1.384 1.384 0 0 1-1.385-1.385v-15.86a1.38 1.38 0 0 1 1.385-1.381h1.607a1.38 1.38 0 0 0-1.386 1.383v15.857a1.384 1.384 0 0 0 1.386 1.385m11.87-.001h-1.607a1.39 1.39 0 0 1-1.383-1.385v-22.369a1.39 1.39 0 0 1 1.383-1.385h1.607a1.39 1.39 0 0 0-1.383 1.385v22.368a1.39 1.39 0 0 0 1.383 1.385"/><path fill="#2e186b" d="M-11274.254-11745.503h-5.063a1.63 1.63 0 0 1-1.632-1.623v-11.493a1.63 1.63 0 0 1 1.632-1.623h5.063a1.624 1.624 0 0 1 1.623 1.623v11.493a1.625 1.625 0 0 1-1.623 1.623m-5.063-14.263a1.15 1.15 0 0 0-1.156 1.146v11.493a1.153 1.153 0 0 0 1.156 1.147h5.063a1.15 1.15 0 0 0 1.146-1.146v-11.493a1.15 1.15 0 0 0-1.147-1.146Zm16.931 14.263h-5.063a1.625 1.625 0 0 1-1.623-1.623v-34.717a1.624 1.624 0 0 1 1.623-1.623h5.063a1.625 1.625 0 0 1 1.623 1.623v34.717a1.625 1.625 0 0 1-1.623 1.623m-5.063-37.487a1.15 1.15 0 0 0-1.147 1.147v34.717a1.15 1.15 0 0 0 1.147 1.147h5.063a1.15 1.15 0 0 0 1.147-1.147v-34.717a1.15 1.15 0 0 0-1.147-1.147Zm-18.686 37.488h-5.063a1.624 1.624 0 0 1-1.623-1.623v-30.748a1.624 1.624 0 0 1 1.623-1.623h5.063a1.63 1.63 0 0 1 1.632 1.623v30.748a1.63 1.63 0 0 1-1.632 1.623m-5.063-33.517a1.15 1.15 0 0 0-1.147 1.146v30.748a1.15 1.15 0 0 0 1.147 1.146h5.063a1.15 1.15 0 0 0 1.156-1.146v-30.748a1.15 1.15 0 0 0-1.156-1.146Zm-18.683 33.517h-5.063a1.625 1.625 0 0 1-1.623-1.623v-15.859a1.625 1.625 0 0 1 1.623-1.623h5.063a1.625 1.625 0 0 1 1.623 1.623v15.859a1.625 1.625 0 0 1-1.623 1.623m-5.063-18.629a1.15 1.15 0 0 0-1.147 1.147v15.859a1.15 1.15 0 0 0 1.147 1.147h5.063a1.15 1.15 0 0 0 1.146-1.147v-15.859a1.15 1.15 0 0 0-1.146-1.147Zm16.936 18.627h-5.063a1.625 1.625 0 0 1-1.623-1.623v-22.368a1.625 1.625 0 0 1 1.623-1.623h5.063a1.625 1.625 0 0 1 1.623 1.623v22.369a1.625 1.625 0 0 1-1.623 1.623m-5.063-25.142a1.15 1.15 0 0 0-1.143 1.15v22.369a1.15 1.15 0 0 0 1.147 1.147h5.063a1.15 1.15 0 0 0 1.147-1.147v-22.369a1.15 1.15 0 0 0-1.147-1.146Z"/><path fill="#2e186b" d="M-11312.412-11773.728a.238.238 0 0 1-.145-.428l23.749-18.082a.24.24 0 0 1 .306.015l11.7 10.868 13.241-13.506a.238.238 0 0 1 .34.333l-13.4 13.672a.24.24 0 0 1-.332.008l-11.726-10.889-23.59 17.96a.24.24 0 0 1-.144.049"/><path fill="#2e186b" d="M-11263.388-11791.261a.24.24 0 0 1-.238-.238v-3.143h-3.143a.238.238 0 0 1 0-.476h3.381a.24.24 0 0 1 .238.238v3.381a.24.24 0 0 1-.238.238m-33.779-11.111h-10.378a.238.238 0 1 1 0-.476h10.377a.238.238 0 0 1 0 .476m.002 4.262h-3.749a.238.238 0 0 1 0-.476h3.749a.238.238 0 0 1 0 .476m-6.337 0h-11.883a.238.238 0 0 1 0-.476h11.883a.238.238 0 0 1 0 .476m-3.255 4.701h-8.628a.238.238 0 0 1 0-.476h8.628a.238.238 0 1 1 0 .476m11.067 55.637h-4.767a.238.238 0 1 1 0-.476h4.767a.238.238 0 1 1 0 .476m20.469 0h-17.7a.238.238 0 1 1 0-.476h17.7a.238.238 0 1 1 0 .476m13.709 0h-11.359a.238.238 0 1 1 0-.476h11.359a.238.238 0 1 1 0 .476m-22.921 3.767h-16.024a.238.238 0 0 1 0-.476h16.024a.238.238 0 0 1 0 .476m18.104 0h-15.863a.238.238 0 1 1 0-.476h15.86a.238.238 0 0 1 0 .476m4.82 0h-2.84a.238.238 0 1 1 0-.476h2.84a.238.238 0 0 1 0 .476m-20.025 3.77h-18.92a.238.238 0 0 1 0-.476h18.92a.238.238 0 1 1 0 .476m6.689 0h-4.412a.238.238 0 1 1 0-.476h4.412a.238.238 0 0 1 0 .476"/><path fill="#fff" d="M-11312.333-11812.575a2 2 0 1 1-2-2 2 2 0 0 1 2 2"/><path fill="#2e186b" d="M-11314.331-11810.336a2.241 2.241 0 1 1 2.241-2.241 2.244 2.244 0 0 1-2.241 2.241m0-4.006a1.765 1.765 0 1 0 1.765 1.765 1.767 1.767 0 0 0-1.765-1.768"/><path fill="#fff" d="M-11306.859-11812.577a1.369 1.369 0 1 1-1.369-1.369 1.37 1.37 0 0 1 1.369 1.369"/><path fill="#2e186b" d="M-11308.226-11810.97a1.607 1.607 0 1 1 1.607-1.607 1.61 1.61 0 0 1-1.607 1.607m0-2.737a1.131 1.131 0 1 0 1.131 1.131 1.13 1.13 0 0 0-1.131-1.131m-3.039 84.839a5.3 5.3 0 1 1 2.769-9.815.238.238 0 1 1-.249.406 4.822 4.822 0 1 0 2.3 4.112 5 5 0 0 0-.083-.9.238.238 0 0 1 .468-.088 5.3 5.3 0 0 1-5.206 6.282"/><path fill="#2e186b" d="M-11310.871-11733.118a.24.24 0 0 1-.168-.07l-1.625-1.625a.238.238 0 0 1 .337-.337l1.456 1.456 5.7-5.7a.238.238 0 0 1 .337.337l-5.869 5.869a.24.24 0 0 1-.168.07m15.18 9.394h-4.767a.238.238 0 1 1 0-.476h4.767a.238.238 0 1 1 0 .476m20.469 0h-17.7a.238.238 0 1 1 0-.476h17.7a.238.238 0 1 1 0 .476m8.65 0h-6.3a.238.238 0 1 1 0-.476h6.3a.238.238 0 1 1 0 .476m-17.862 3.768h-16.024a.238.238 0 0 1 0-.476h16.024a.238.238 0 0 1 0 .476m18.104 0h-15.863a.238.238 0 1 1 0-.476h15.86a.238.238 0 0 1 0 .476m-15.205 3.774h-18.92a.238.238 0 0 1 0-.476h18.92a.238.238 0 1 1 0 .476m6.689 0h-4.412a.238.238 0 1 1 0-.476h4.412a.238.238 0 0 1 0 .476m-36.416 1.363a5.3 5.3 0 1 1 2.769-9.815.238.238 0 1 1-.249.406 4.822 4.822 0 1 0 2.3 4.112 5 5 0 0 0-.083-.9.238.238 0 1 1 .468-.088 5.3 5.3 0 0 1-5.206 6.282"/><path fill="#2e186b" d="M-11310.871-11719.07a.24.24 0 0 1-.168-.07l-1.625-1.625a.238.238 0 0 1 .337-.337l1.456 1.456 5.7-5.7a.238.238 0 0 1 .337.337l-5.869 5.869a.24.24 0 0 1-.168.07"/><path fill="#ff926d" d="M-11342.219-11812.767a4.04 4.04 0 0 1 4.044-4.04v-6.785a10.823 10.823 0 0 0-10.413 13.782l6.526-1.852a4 4 0 0 1-.157-1.105"/><path fill="#6b9c7d" d="M-11327.35-11812.767a10.827 10.827 0 0 0-10.825-10.825v6.785a4.039 4.039 0 0 1 2.144 7.465l3.599 5.75a10.81 10.81 0 0 0 5.081-9.174"/><path fill="#7e682a" d="M-11338.169-11808.723a4.04 4.04 0 0 1-3.892-2.938l-6.525 1.852a10.822 10.822 0 0 0 16.156 6.217l-3.6-5.749a4 4 0 0 1-2.143.619"/><path fill="none" d="M-11349-11823.592h103.392v119.586H-11349z"/></g></svg>